<svg xmlns="http://www.w3.org/2000/svg" viewBox="0 0 386.28 511.92"><defs><style>.a{fill:#a80030;}</style></defs><title>Untitled-6</title><path class="a" d="M220.31,169.3c-5.3.07,1,2.73,7.93,3.8,1.92-1.5,3.65-3,5.2-4.48a39.63,39.63,0,0,1-13.13.68" transform="translate(-3.76 -0.08)"/><path class="a" d="M248.79,162.2a33.58,33.58,0,0,0,6.28-14.07c-.71,3.51-2.61,6.55-4.42,9.76-9.92,6.25-.93-3.71,0-7.5-10.67,13.44-1.47,8.06-1.86,11.81" transform="translate(-3.76 -0.08)"/><path class="a" d="M259.31,134.84c.65-9.56-1.88-6.53-2.73-2.89,1,.52,1.77,6.74,2.73,2.89" transform="translate(-3.76 -0.08)"/><path class="a" d="M200.18,4.21c2.83.5,6.12.89,5.65,1.57,3.11-.68,3.81-1.3-5.65-1.57" transform="translate(-3.76 -0.08)"/><path class="a" d="M205.83,5.78l-2,.42L205.7,6l.13-.25" transform="translate(-3.76 -0.08)"/><path class="a" d="M294.16,138.46c.32,8.58-2.5,12.75-5.05,20.13l-4.6,2.28c-3.75,7.29.38,4.63-2.31,10.43-5.87,5.21-17.78,16.3-21.6,17.32-2.79-.07,1.89-3.29,2.5-4.55-7.85,5.38-6.3,8.08-18.3,11.36l-.35-.79c-29.58,13.93-70.68-13.66-70.14-51.3-.32,2.39-.9,1.79-1.56,2.75-1.52-19.36,8.95-38.8,26.61-46.76,17.27-8.54,37.52-5,49.88,6.5-6.79-8.9-20.32-18.34-36.34-17.46-15.7.25-30.4,10.23-35.3,21.07-8,5.06-9,19.52-12.48,22.17C160.4,166.27,174,181.24,197,198.86c3.61,2.44,1,2.81,1.5,4.67a62.4,62.4,0,0,1-20.38-15.59c3.05,4.47,6.35,8.81,10.6,12.22-7.2-2.43-16.82-17.45-19.63-18.06,12.42,22.22,50.36,39,70.24,30.66-9.2.34-20.88.19-31.21-3.63-4.35-2.23-10.24-6.85-9.19-7.71,27.12,10.12,55.13,7.66,78.6-11.15,6-4.65,12.49-12.56,14.38-12.67-2.84,4.27.48,2.06-1.7,5.83,5.94-9.6-2.59-3.91,6.15-16.57l3.22,4.44c-1.21-8,9.89-17.64,8.76-30.23,2.55-3.85,2.84,4.15.14,13,3.75-9.82,1-11.4,2-19.52a73.86,73.86,0,0,1,3.11,8.51c-2.44-9.5,2.5-16,3.73-21.52-1.22-.53-3.77,4.2-4.36-7,.09-4.87,1.36-2.55,1.85-3.75-1-.55-3.47-4.29-5-11.45,1.1-1.69,2.95,4.36,4.46,4.61-1-5.7-2.64-10-2.71-14.41-4.4-9.2-1.56,1.23-5.12-4-4.69-14.61,3.88-3.39,4.47-10,7.09,10.28,11.14,26.23,13,32.83A134.64,134.64,0,0,0,317.34,85c2.16.91-3.48-16.56,2.81-5-6.71-24.67-28.69-47.72-48.92-58.53,2.47,2.26,5.59,5.11,4.47,5.55-10.06-6-8.29-6.45-9.73-9-8.19-3.34-8.74.27-14.15,0-15.45-8.19-18.43-7.32-32.65-12.45l.65,3c-10.23-3.41-11.93,1.29-23,0-.67-.52,3.54-1.9,7-2.4-9.9,1.3-9.44-2-19.12.36a79,79,0,0,1,7.46-4.21c-8.07.49-19.27,4.7-15.81.87-13.16,5.87-36.54,14.11-49.65,26.41l-.42-2.75c-6,7.21-26.2,21.54-27.81,30.9l-1.61.37c-3.12,5.29-5.15,11.29-7.63,16.74-4.09,7-6,2.68-5.41,3.78-8,16.31-12,30-15.5,41.25,2.46,3.68.06,22.14,1,36.91-4,73,51.21,143.81,111.59,160.16,8.85,3.17,22,3.06,33.21,3.37-13.21-3.78-14.91-2-27.78-6.48-9.28-4.38-11.32-9.37-17.89-15.08l2.6,4.6c-12.89-4.56-7.5-5.65-18-9l2.78-3.62c-4.18-.32-11.07-7-13-10.78l-4.58.19c-5.49-6.77-8.42-11.67-8.2-15.45l-1.48,2.63c-1.67-2.87-20.21-25.42-10.59-20.17-1.79-1.63-4.17-2.66-6.74-7.34l2-2.24c-4.62-6-8.52-13.58-8.22-16.13,2.47,3.33,4.18,4,5.88,4.53-11.69-29-12.35-1.59-21.2-29.51l1.87-.15a62.33,62.33,0,0,1-3.46-6.82l.82-8.12c-8.41-9.71-2.35-41.36-1.14-58.71.84-7,7-14.56,11.73-26.34l-2.87-.49C102.18,86.36,128,57.55,139.91,59c5.79-7.27-1.15,0-2.28-1.85,12.71-13.16,16.71-9.3,25.29-11.67,9.24-5.48-7.94,2.15-3.56-2.09,16-4.08,11.33-9.28,32.19-11.35,2.2,1.25-5.1,1.93-6.94,3.55,13.32-6.52,42.16-5,60.9,3.62,21.72,10.16,46.15,40.18,47.12,68.43l1.09.3c-.55,11.23,1.72,24.21-2.22,36.14l2.66-5.65" transform="translate(-3.76 -0.08)"/><path class="a" d="M162.38,176.58l-.75,3.72c3.49,4.74,6.26,9.88,10.71,13.57-3.2-6.25-5.58-8.83-10-17.29" transform="translate(-3.76 -0.08)"/><path class="a" d="M170.62,176.26a29.93,29.93,0,0,1-4.16-6.95c1.17,4.31,3.57,8,5.8,11.77l-1.64-4.82" transform="translate(-3.76 -0.08)"/><path class="a" d="M316.54,144.54l-.77,2A94.5,94.5,0,0,1,306.51,176a93,93,0,0,0,10-31.48" transform="translate(-3.76 -0.08)"/><path class="a" d="M201.23,1.66C204.82.35,210.05.94,213.86.08c-5,.41-9.9.66-14.78,1.28l2.15.3" transform="translate(-3.76 -0.08)"/><path class="a" d="M75.25,68.65c.83,7.65-5.75,10.63,1.46,5.58,3.87-8.72-1.51-2.41-1.46-5.58" transform="translate(-3.76 -0.08)"/><path class="a" d="M66.77,104.08A84.39,84.39,0,0,0,69.37,93c-4.59,5.87-2.12,7.12-2.6,11.12" transform="translate(-3.76 -0.08)"/><path d="M51.49,445.84c-.16.17-.16,26.66-.49,33.58C50.67,485,50.17,497,38.33,497,26.15,497,23.18,483,22.2,477a86.09,86.09,0,0,1-1.15-14.81c0-7.9.49-30,19.09-30a21.36,21.36,0,0,1,11.19,3ZM3.76,465.27c0,46.41,24.69,46.41,28.31,46.41,10.21,0,16.79-5.6,19.59-15.31L52,511c3.13-.17,6.25-.5,11.35-.5a37.55,37.55,0,0,1,4.61.17,36.17,36.17,0,0,1,4.11.33c-2.63-5.27-4.6-17.12-4.6-42.8,0-25,0-67.31,2.14-80.15-5.92,2.8-11,4.62-22.22,5.6,4.44,4.77,4.44,7.24,4.44,29A41.68,41.68,0,0,0,38,420.49c-29.46,0-34.24,25.68-34.24,44.78" transform="translate(-3.76 -0.08)"/><path d="M93,456.87c.17-13.66,3-25.84,14.65-25.84,12.84,0,13.82,14.15,13.49,25.84Zm44.43,1.65c0-19.26-3.78-38.19-28.14-38.19-33.57,0-33.57,37.2-33.57,45.1,0,33.4,15,46.57,40.16,46.57,11.18,0,16.62-1.64,19.58-2.47-.16-5.92.66-9.71,1.65-14.81-3.46,2.15-7.9,4.94-17.78,4.94-25.67,0-26-23.38-26-31.44h43.78l.32-9.7" transform="translate(-3.76 -0.08)"/><path d="M191,465.59c0,15.31-2.8,35.88-21.89,35.88a40.11,40.11,0,0,1-8.06-1c-.33-5.92-.33-16.13-.33-28,0-14.15,1.47-21.55,2.63-25.18,3.45-11.68,11.19-11.84,12.67-11.84C188.53,435.48,191,452.76,191,465.59Zm-47.24,17.94c0,12.19,0,19.09-2,24.36,6.75,2.63,15.14,4.11,25.18,4.11,6.42,0,25,0,35.05-20.57,4.78-9.55,6.42-22.39,6.42-32.1,0-5.92-.66-18.92-5.43-27.15-4.6-7.73-12-11.68-19.91-11.68-15.8,0-20.41,13.16-22.87,19.91,0-8.39.16-37.69,1.47-52.67a64.94,64.94,0,0,1-24.35,6.42c6.42,2.63,6.42,13.5,6.42,48.89v40.48" transform="translate(-3.76 -0.08)"/><path d="M240.08,511a58.13,58.13,0,0,0-10.38-.83A91.15,91.15,0,0,0,217,511c1.64-3.13,2.3-4.62,2.79-15.31.66-14.65.83-53.82-.32-62-.83-6.26-2.31-7.24-4.61-8.89,13.49-1.32,17.28-2.3,23.53-5.26-1.31,7.23-1.49,10.86-1.49,21.88-.32,56.79-.49,62.88,3.14,69.63" transform="translate(-3.76 -0.08)"/><path d="M292.78,464.43c-.33,10.38-.49,17.62-3.29,23.38-3.46,7.4-9.22,9.54-13.5,9.54-9.88,0-12-8.22-12-16.29,0-15.46,13.82-16.63,20.07-16.63Zm-45.26,20.25c0,10.37,3.13,20.74,12.35,25.19a23.83,23.83,0,0,0,9.54,1.81c15.15,0,20.25-11.2,23.38-18.11a144.48,144.48,0,0,0,.49,17.45c3-.17,5.92-.5,10.86-.5,2.8,0,5.43.33,8.23.5-1.81-2.8-2.8-4.45-3.3-10.87-.32-6.25-.32-12.5-.32-21.23l.16-33.57c0-12.52-3.29-24.86-28-24.86-16.29,0-25.83,4.94-30.61,7.41a42.41,42.41,0,0,1,5.1,13.83,35.61,35.61,0,0,1,23.37-8.56c13.67,0,13.67,9.05,13.67,21.88-3.13-.16-5.76-.48-10.21-.48-20.91,0-34.73,8.05-34.73,30.11" transform="translate(-3.76 -0.08)"/><path d="M387.58,494.72c.17,5.6.17,11.53,2.47,16.3a95.11,95.11,0,0,0-12.51-.82,50.84,50.84,0,0,0-9.22.82,25.29,25.29,0,0,0,1.32-5.76c.49-3.78.82-16.46.82-20.91V466.58c0-7.74,0-18.93-.5-22.88-.33-2.79-1.14-10.36-10.7-10.36-9.38,0-12.5,6.91-13.66,12.5-1.31,5.76-1.31,12-1.31,36.37.16,21.07.16,23,1.81,28.81a90.21,90.21,0,0,0-11.19-.66A60,60,0,0,0,325,511c1.15-2.64,1.81-4,2.14-13.17.33-9.05,1-53.49-.5-64-.82-6.43-2.47-7.9-4.28-9.55,13.34-.66,17.61-2.8,21.73-4.93v17.44c2-5.11,6.08-16.46,22.55-16.46,20.57,0,20.73,15,20.9,24.84v49.55" transform="translate(-3.76 -0.08)"/><path class="a" d="M241.47,396.22l-13.63,13.62-13.63-13.62,13.63-13.63,13.63,13.63" transform="translate(-3.76 -0.08)"/></svg>