<svg xmlns="http://www.w3.org/2000/svg" xmlns:xlink="http://www.w3.org/1999/xlink" viewBox="0 0 1080 1080" width="1080" height="1080" preserveAspectRatio="xMidYMid meet" style="width: 100%; height: 100%; transform: translate3d(0px, 0px, 0px); content-visibility: visible;"><defs><clipPath id="__lottie_element_634"><rect width="1080" height="1080" x="0" y="0"/></clipPath><clipPath id="__lottie_element_649"><path d="M0,0 L2080,0 L2080,1080 L0,1080z"/></clipPath></defs><g clip-path="url(#__lottie_element_634)"><g clip-path="url(#__lottie_element_649)" transform="matrix(1,0,0,1,827.0096435546875,0.00323486328125)" opacity="1" style="display: block;"><g transform="matrix(0.44402000308036804,0,0,0.44402000308036804,1153.0306396484375,312.4559631347656)" opacity="0.7000000000000001" style="display: block;"><g opacity="1" transform="matrix(1,0,0,1,-91,-84)"><path fill="rgb(237,237,237)" fill-opacity="1" d=" M259,0 C259,0 259,0 259,0 C259,45.25579833984375 222.25579833984375,82 177,82 C177,82 -177,82 -177,82 C-222.25579833984375,82 -259,45.25579833984375 -259,0 C-259,0 -259,0 -259,0 C-259,-45.25579833984375 -222.25579833984375,-82 -177,-82 C-177,-82 177,-82 177,-82 C222.25579833984375,-82 259,-45.25579833984375 259,0z"/></g><g opacity="1" transform="matrix(1,0,0,1,-194,-156)"><path fill="rgb(237,237,237)" fill-opacity="1" d=" M0,-108 C59.605201721191406,-108 108,-59.605201721191406 108,0 C108,59.605201721191406 59.605201721191406,108 0,108 C-59.605201721191406,108 -108,59.605201721191406 -108,0 C-108,-59.605201721191406 -59.605201721191406,-108 0,-108z"/></g><g opacity="1" transform="matrix(1,0,0,1,-44,-154)"><path fill="rgb(237,237,237)" fill-opacity="1" d=" M0,-108 C59.605201721191406,-108 108,-59.605201721191406 108,0 C108,59.605201721191406 59.605201721191406,108 0,108 C-59.605201721191406,108 -108,59.605201721191406 -108,0 C-108,-59.605201721191406 -59.605201721191406,-108 0,-108z"/></g><g opacity="1" transform="matrix(0.7254899740219116,0,0,0.7254899740219116,-82,-252)"><path fill="rgb(237,237,237)" fill-opacity="1" d=" M0,-108 C59.605201721191406,-108 108,-59.605201721191406 108,0 C108,59.605201721191406 59.605201721191406,108 0,108 C-59.605201721191406,108 -108,59.605201721191406 -108,0 C-108,-59.605201721191406 -59.605201721191406,-108 0,-108z"/></g></g><g transform="matrix(1,0,0,1,1822.6649169921875,495.35205078125)" opacity="1" style="display: block;"><g opacity="1" transform="matrix(1,0,0,1,-91,-84)"><path fill="rgb(237,237,237)" fill-opacity="1" d=" M259,0 C259,0 259,0 259,0 C259,45.25579833984375 222.25579833984375,82 177,82 C177,82 -177,82 -177,82 C-222.25579833984375,82 -259,45.25579833984375 -259,0 C-259,0 -259,0 -259,0 C-259,-45.25579833984375 -222.25579833984375,-82 -177,-82 C-177,-82 177,-82 177,-82 C222.25579833984375,-82 259,-45.25579833984375 259,0z"/></g><g opacity="1" transform="matrix(1,0,0,1,-194,-156)"><path fill="rgb(237,237,237)" fill-opacity="1" d=" M0,-108 C59.605201721191406,-108 108,-59.605201721191406 108,0 C108,59.605201721191406 59.605201721191406,108 0,108 C-59.605201721191406,108 -108,59.605201721191406 -108,0 C-108,-59.605201721191406 -59.605201721191406,-108 0,-108z"/></g><g opacity="1" transform="matrix(1,0,0,1,-44,-154)"><path fill="rgb(237,237,237)" fill-opacity="1" d=" M0,-108 C59.605201721191406,-108 108,-59.605201721191406 108,0 C108,59.605201721191406 59.605201721191406,108 0,108 C-59.605201721191406,108 -108,59.605201721191406 -108,0 C-108,-59.605201721191406 -59.605201721191406,-108 0,-108z"/></g><g opacity="1" transform="matrix(0.7254899740219116,0,0,0.7254899740219116,-82,-252)"><path fill="rgb(237,237,237)" fill-opacity="1" d=" M0,-108 C59.605201721191406,-108 108,-59.605201721191406 108,0 C108,59.605201721191406 59.605201721191406,108 0,108 C-59.605201721191406,108 -108,59.605201721191406 -108,0 C-108,-59.605201721191406 -59.605201721191406,-108 0,-108z"/></g></g><g transform="matrix(0.6293399930000305,0,0,0.6293399930000305,500.3575134277344,473.88385009765625)" opacity="1" style="display: block;"><g opacity="1" transform="matrix(1,0,0,1,-91,-84)"><path fill="rgb(237,237,237)" fill-opacity="1" d=" M259,0 C259,0 259,0 259,0 C259,45.25579833984375 222.25579833984375,82 177,82 C177,82 -177,82 -177,82 C-222.25579833984375,82 -259,45.25579833984375 -259,0 C-259,0 -259,0 -259,0 C-259,-45.25579833984375 -222.25579833984375,-82 -177,-82 C-177,-82 177,-82 177,-82 C222.25579833984375,-82 259,-45.25579833984375 259,0z"/></g><g opacity="1" transform="matrix(1,0,0,1,-194,-156)"><path fill="rgb(237,237,237)" fill-opacity="1" d=" M0,-108 C59.605201721191406,-108 108,-59.605201721191406 108,0 C108,59.605201721191406 59.605201721191406,108 0,108 C-59.605201721191406,108 -108,59.605201721191406 -108,0 C-108,-59.605201721191406 -59.605201721191406,-108 0,-108z"/></g><g opacity="1" transform="matrix(1,0,0,1,-44,-154)"><path fill="rgb(237,237,237)" fill-opacity="1" d=" M0,-108 C59.605201721191406,-108 108,-59.605201721191406 108,0 C108,59.605201721191406 59.605201721191406,108 0,108 C-59.605201721191406,108 -108,59.605201721191406 -108,0 C-108,-59.605201721191406 -59.605201721191406,-108 0,-108z"/></g><g opacity="1" transform="matrix(0.7254899740219116,0,0,0.7254899740219116,-82,-252)"><path fill="rgb(237,237,237)" fill-opacity="1" d=" M0,-108 C59.605201721191406,-108 108,-59.605201721191406 108,0 C108,59.605201721191406 59.605201721191406,108 0,108 C-59.605201721191406,108 -108,59.605201721191406 -108,0 C-108,-59.605201721191406 -59.605201721191406,-108 0,-108z"/></g></g><g transform="matrix(0.6293399930000305,0,0,0.6293399930000305,500.3575439453125,473.88385009765625)" opacity="1" style="display: block;"><g opacity="1" transform="matrix(1,0,0,1,-91,-84)"><path fill="rgb(237,237,237)" fill-opacity="1" d=" M259,0 C259,0 259,0 259,0 C259,45.25579833984375 222.25579833984375,82 177,82 C177,82 -177,82 -177,82 C-222.25579833984375,82 -259,45.25579833984375 -259,0 C-259,0 -259,0 -259,0 C-259,-45.25579833984375 -222.25579833984375,-82 -177,-82 C-177,-82 177,-82 177,-82 C222.25579833984375,-82 259,-45.25579833984375 259,0z"/></g><g opacity="1" transform="matrix(1,0,0,1,-194,-156)"><path fill="rgb(237,237,237)" fill-opacity="1" d=" M0,-108 C59.605201721191406,-108 108,-59.605201721191406 108,0 C108,59.605201721191406 59.605201721191406,108 0,108 C-59.605201721191406,108 -108,59.605201721191406 -108,0 C-108,-59.605201721191406 -59.605201721191406,-108 0,-108z"/></g><g opacity="1" transform="matrix(1,0,0,1,-44,-154)"><path fill="rgb(237,237,237)" fill-opacity="1" d=" M0,-108 C59.605201721191406,-108 108,-59.605201721191406 108,0 C108,59.605201721191406 59.605201721191406,108 0,108 C-59.605201721191406,108 -108,59.605201721191406 -108,0 C-108,-59.605201721191406 -59.605201721191406,-108 0,-108z"/></g><g opacity="1" transform="matrix(0.7254899740219116,0,0,0.7254899740219116,-82,-252)"><path fill="rgb(237,237,237)" fill-opacity="1" d=" M0,-108 C59.605201721191406,-108 108,-59.605201721191406 108,0 C108,59.605201721191406 59.605201721191406,108 0,108 C-59.605201721191406,108 -108,59.605201721191406 -108,0 C-108,-59.605201721191406 -59.605201721191406,-108 0,-108z"/></g></g><g transform="matrix(0.7105299830436707,0,0,0.7105299830436707,775.9918212890625,264.9125061035156)" opacity="1" style="display: block;"><g opacity="1" transform="matrix(1,0,0,1,-91,-84)"><path fill="rgb(237,237,237)" fill-opacity="1" d=" M259,0 C259,0 259,0 259,0 C259,45.25579833984375 222.25579833984375,82 177,82 C177,82 -177,82 -177,82 C-222.25579833984375,82 -259,45.25579833984375 -259,0 C-259,0 -259,0 -259,0 C-259,-45.25579833984375 -222.25579833984375,-82 -177,-82 C-177,-82 177,-82 177,-82 C222.25579833984375,-82 259,-45.25579833984375 259,0z"/></g><g opacity="1" transform="matrix(1,0,0,1,-194,-156)"><path fill="rgb(237,237,237)" fill-opacity="1" d=" M0,-108 C59.605201721191406,-108 108,-59.605201721191406 108,0 C108,59.605201721191406 59.605201721191406,108 0,108 C-59.605201721191406,108 -108,59.605201721191406 -108,0 C-108,-59.605201721191406 -59.605201721191406,-108 0,-108z"/></g><g opacity="1" transform="matrix(1,0,0,1,-44,-154)"><path fill="rgb(237,237,237)" fill-opacity="1" d=" M0,-108 C59.605201721191406,-108 108,-59.605201721191406 108,0 C108,59.605201721191406 59.605201721191406,108 0,108 C-59.605201721191406,108 -108,59.605201721191406 -108,0 C-108,-59.605201721191406 -59.605201721191406,-108 0,-108z"/></g><g opacity="1" transform="matrix(0.7254899740219116,0,0,0.7254899740219116,-82,-252)"><path fill="rgb(237,237,237)" fill-opacity="1" d=" M0,-108 C59.605201721191406,-108 108,-59.605201721191406 108,0 C108,59.605201721191406 59.605201721191406,108 0,108 C-59.605201721191406,108 -108,59.605201721191406 -108,0 C-108,-59.605201721191406 -59.605201721191406,-108 0,-108z"/></g></g><g transform="matrix(0.33590999245643616,0,0,0.33590999245643616,1409.31787109375,404.0914001464844)" opacity="0.5" style="display: block;"><g opacity="1" transform="matrix(1,0,0,1,-91,-84)"><path fill="rgb(237,237,237)" fill-opacity="1" d=" M259,0 C259,0 259,0 259,0 C259,45.25579833984375 222.25579833984375,82 177,82 C177,82 -177,82 -177,82 C-222.25579833984375,82 -259,45.25579833984375 -259,0 C-259,0 -259,0 -259,0 C-259,-45.25579833984375 -222.25579833984375,-82 -177,-82 C-177,-82 177,-82 177,-82 C222.25579833984375,-82 259,-45.25579833984375 259,0z"/></g><g opacity="1" transform="matrix(1,0,0,1,-194,-156)"><path fill="rgb(237,237,237)" fill-opacity="1" d=" M0,-108 C59.605201721191406,-108 108,-59.605201721191406 108,0 C108,59.605201721191406 59.605201721191406,108 0,108 C-59.605201721191406,108 -108,59.605201721191406 -108,0 C-108,-59.605201721191406 -59.605201721191406,-108 0,-108z"/></g><g opacity="1" transform="matrix(1,0,0,1,-44,-154)"><path fill="rgb(237,237,237)" fill-opacity="1" d=" M0,-108 C59.605201721191406,-108 108,-59.605201721191406 108,0 C108,59.605201721191406 59.605201721191406,108 0,108 C-59.605201721191406,108 -108,59.605201721191406 -108,0 C-108,-59.605201721191406 -59.605201721191406,-108 0,-108z"/></g><g opacity="1" transform="matrix(0.7254899740219116,0,0,0.7254899740219116,-82,-252)"><path fill="rgb(237,237,237)" fill-opacity="1" d=" M0,-108 C59.605201721191406,-108 108,-59.605201721191406 108,0 C108,59.605201721191406 59.605201721191406,108 0,108 C-59.605201721191406,108 -108,59.605201721191406 -108,0 C-108,-59.605201721191406 -59.605201721191406,-108 0,-108z"/></g></g></g><g transform="matrix(1,0,0,1,885,540)" opacity="1" style="display: block;"><g opacity="1" transform="matrix(1,0,0,1,0,0)"><path stroke-linecap="round" stroke-linejoin="miter" fill-opacity="0" stroke-miterlimit="4" stroke="rgb(51,204,102)" stroke-opacity="1" stroke-width="10" d="M0 0"/></g><g opacity="1" transform="matrix(1,0,0,1,0,0)"><path stroke-linecap="round" stroke-linejoin="miter" fill-opacity="0" stroke-miterlimit="4" stroke="rgb(51,204,102)" stroke-opacity="1" stroke-width="10" d="M0 0"/></g></g><g transform="matrix(1,0,0,1,1097,252.6300048828125)" opacity="1" style="display: none;"><g opacity="1" transform="matrix(1,0,0,1,0,0)"><path stroke-linecap="round" stroke-linejoin="miter" fill-opacity="0" stroke-miterlimit="4" stroke="rgb(51,204,102)" stroke-opacity="1" stroke-width="10" d="M0 0"/></g><g opacity="1" transform="matrix(1,0,0,1,0,0)"><path stroke-linecap="round" stroke-linejoin="miter" fill-opacity="0" stroke-miterlimit="4" stroke="rgb(51,204,102)" stroke-opacity="1" stroke-width="10" d="M0 0"/></g></g><g transform="matrix(1,0,0,1,1304.4730224609375,542.052001953125)" opacity="1" style="display: none;"><g opacity="1" transform="matrix(1,0,0,1,0,0)"><path stroke-linecap="round" stroke-linejoin="miter" fill-opacity="0" stroke-miterlimit="4" stroke="rgb(51,204,102)" stroke-opacity="1" stroke-width="10" d="M0 0"/></g><g opacity="1" transform="matrix(1,0,0,1,0,0)"><path stroke-linecap="round" stroke-linejoin="miter" fill-opacity="0" stroke-miterlimit="4" stroke="rgb(51,204,102)" stroke-opacity="1" stroke-width="10" d="M0 0"/></g></g><g transform="matrix(1,0,0,1,739,540)" opacity="1" style="display: block;"><path stroke-linecap="round" stroke-linejoin="round" fill-opacity="0" stroke="rgb(52,52,52)" stroke-opacity="1" stroke-width="15" d="M0 0"/><g opacity="1" transform="matrix(1,0,0,1,0,0)"><path stroke-linecap="round" stroke-linejoin="miter" fill-opacity="0" stroke-miterlimit="4" stroke="rgb(45,183,91)" stroke-opacity="1" stroke-width="8" d="M0 0"/></g></g><g transform="matrix(1,0,0,1,1139,540)" opacity="1" style="display: block;"><g opacity="1" transform="matrix(1,0,0,1,376.5,247)"><path fill="rgb(51,51,51)" fill-opacity="1" d=" M61.5,-150 C61.5,-150 61.5,150 61.5,150 C61.5,150 -61.5,150 -61.5,150 C-61.5,150 -61.5,-150 -61.5,-150 C-61.5,-150 61.5,-150 61.5,-150z"/><path stroke-linecap="butt" stroke-linejoin="miter" fill-opacity="0" stroke-miterlimit="4" stroke="rgb(0,0,0)" stroke-opacity="1" stroke-width="0" d=" M61.5,-150 C61.5,-150 61.5,150 61.5,150 C61.5,150 -61.5,150 -61.5,150 C-61.5,150 -61.5,-150 -61.5,-150 C-61.5,-150 61.5,-150 61.5,-150z"/></g><g opacity="1" transform="matrix(1,0,0,1,343.75,123.25)"><path fill="rgb(229,183,0)" fill-opacity="1" d=" M25.75,-9.75 C25.75,-9.75 25.75,9.75 25.75,9.75 C25.75,9.75 -25.75,9.75 -25.75,9.75 C-25.75,9.75 -25.75,-9.75 -25.75,-9.75 C-25.75,-9.75 25.75,-9.75 25.75,-9.75z"/><path stroke-linecap="butt" stroke-linejoin="miter" fill-opacity="0" stroke-miterlimit="4" stroke="rgb(0,0,0)" stroke-opacity="1" stroke-width="0" d=" M25.75,-9.75 C25.75,-9.75 25.75,9.75 25.75,9.75 C25.75,9.75 -25.75,9.75 -25.75,9.75 C-25.75,9.75 -25.75,-9.75 -25.75,-9.75 C-25.75,-9.75 25.75,-9.75 25.75,-9.75z"/></g><g opacity="1" transform="matrix(1,0,0,1,402.5,123)"><path fill="rgb(229,183,0)" fill-opacity="1" d=" M27.5,-9.5 C27.5,-9.5 27.5,9.5 27.5,9.5 C27.5,9.5 -27.5,9.5 -27.5,9.5 C-27.5,9.5 -27.5,-9.5 -27.5,-9.5 C-27.5,-9.5 27.5,-9.5 27.5,-9.5z"/><path stroke-linecap="butt" stroke-linejoin="miter" fill-opacity="0" stroke-miterlimit="4" stroke="rgb(0,0,0)" stroke-opacity="1" stroke-width="0" d=" M27.5,-9.5 C27.5,-9.5 27.5,9.5 27.5,9.5 C27.5,9.5 -27.5,9.5 -27.5,9.5 C-27.5,9.5 -27.5,-9.5 -27.5,-9.5 C-27.5,-9.5 27.5,-9.5 27.5,-9.5z"/></g><g opacity="1" transform="matrix(1,0,0,1,335.25,147)"><path fill="rgb(229,183,0)" fill-opacity="1" d=" M17.25,-6.5 C17.25,-6.5 17.25,6.5 17.25,6.5 C17.25,6.5 -17.25,6.5 -17.25,6.5 C-17.25,6.5 -17.25,-6.5 -17.25,-6.5 C-17.25,-6.5 17.25,-6.5 17.25,-6.5z"/><path stroke-linecap="butt" stroke-linejoin="miter" fill-opacity="0" stroke-miterlimit="4" stroke="rgb(0,0,0)" stroke-opacity="1" stroke-width="0" d=" M17.25,-6.5 C17.25,-6.5 17.25,6.5 17.25,6.5 C17.25,6.5 -17.25,6.5 -17.25,6.5 C-17.25,6.5 -17.25,-6.5 -17.25,-6.5 C-17.25,-6.5 17.25,-6.5 17.25,-6.5z"/></g><g opacity="1" transform="matrix(1,0,0,1,394,148.75)"><path fill="rgb(229,183,0)" fill-opacity="1" d=" M35.5,-6.25 C35.5,-6.25 35.5,6.25 35.5,6.25 C35.5,6.25 -35.5,6.25 -35.5,6.25 C-35.5,6.25 -35.5,-6.25 -35.5,-6.25 C-35.5,-6.25 35.5,-6.25 35.5,-6.25z"/><path stroke-linecap="butt" stroke-linejoin="miter" fill-opacity="0" stroke-miterlimit="4" stroke="rgb(0,0,0)" stroke-opacity="1" stroke-width="0" d=" M35.5,-6.25 C35.5,-6.25 35.5,6.25 35.5,6.25 C35.5,6.25 -35.5,6.25 -35.5,6.25 C-35.5,6.25 -35.5,-6.25 -35.5,-6.25 C-35.5,-6.25 35.5,-6.25 35.5,-6.25z"/></g><g opacity="1" transform="matrix(1,0,0,1,404.25,255)"><path fill="rgb(229,183,0)" fill-opacity="1" d=" M30.25,-6.5 C30.25,-6.5 30.25,6.5 30.25,6.5 C30.25,6.5 -30.25,6.5 -30.25,6.5 C-30.25,6.5 -30.25,-6.5 -30.25,-6.5 C-30.25,-6.5 30.25,-6.5 30.25,-6.5z"/><path stroke-linecap="butt" stroke-linejoin="miter" fill-opacity="0" stroke-miterlimit="4" stroke="rgb(0,0,0)" stroke-opacity="1" stroke-width="0" d=" M30.25,-6.5 C30.25,-6.5 30.25,6.5 30.25,6.5 C30.25,6.5 -30.25,6.5 -30.25,6.5 C-30.25,6.5 -30.25,-6.5 -30.25,-6.5 C-30.25,-6.5 30.25,-6.5 30.25,-6.5z"/></g><g opacity="1" transform="matrix(1,0,0,1,404.25,329)"><path fill="rgb(229,183,0)" fill-opacity="1" d=" M30.25,-6.5 C30.25,-6.5 30.25,6.5 30.25,6.5 C30.25,6.5 -30.25,6.5 -30.25,6.5 C-30.25,6.5 -30.25,-6.5 -30.25,-6.5 C-30.25,-6.5 30.25,-6.5 30.25,-6.5z"/><path stroke-linecap="butt" stroke-linejoin="miter" fill-opacity="0" stroke-miterlimit="4" stroke="rgb(0,0,0)" stroke-opacity="1" stroke-width="0" d=" M30.25,-6.5 C30.25,-6.5 30.25,6.5 30.25,6.5 C30.25,6.5 -30.25,6.5 -30.25,6.5 C-30.25,6.5 -30.25,-6.5 -30.25,-6.5 C-30.25,-6.5 30.25,-6.5 30.25,-6.5z"/></g><g opacity="1" transform="matrix(1,0,0,1,404.25,294)"><path fill="rgb(229,183,0)" fill-opacity="1" d=" M30.25,-6.5 C30.25,-6.5 30.25,6.5 30.25,6.5 C30.25,6.5 -30.25,6.5 -30.25,6.5 C-30.25,6.5 -30.25,-6.5 -30.25,-6.5 C-30.25,-6.5 30.25,-6.5 30.25,-6.5z"/><path stroke-linecap="butt" stroke-linejoin="miter" fill-opacity="0" stroke-miterlimit="4" stroke="rgb(0,0,0)" stroke-opacity="1" stroke-width="0" d=" M30.25,-6.5 C30.25,-6.5 30.25,6.5 30.25,6.5 C30.25,6.5 -30.25,6.5 -30.25,6.5 C-30.25,6.5 -30.25,-6.5 -30.25,-6.5 C-30.25,-6.5 30.25,-6.5 30.25,-6.5z"/></g><g opacity="1" transform="matrix(1,0,0,1,404.25,368)"><path fill="rgb(229,183,0)" fill-opacity="1" d=" M30.25,-6.5 C30.25,-6.5 30.25,6.5 30.25,6.5 C30.25,6.5 -30.25,6.5 -30.25,6.5 C-30.25,6.5 -30.25,-6.5 -30.25,-6.5 C-30.25,-6.5 30.25,-6.5 30.25,-6.5z"/><path stroke-linecap="butt" stroke-linejoin="miter" fill-opacity="0" stroke-miterlimit="4" stroke="rgb(0,0,0)" stroke-opacity="1" stroke-width="0" d=" M30.25,-6.5 C30.25,-6.5 30.25,6.5 30.25,6.5 C30.25,6.5 -30.25,6.5 -30.25,6.5 C-30.25,6.5 -30.25,-6.5 -30.25,-6.5 C-30.25,-6.5 30.25,-6.5 30.25,-6.5z"/></g><g opacity="1" transform="matrix(1,0,0,1,401.75,167.5)"><path fill="rgb(229,183,0)" fill-opacity="1" d=" M30.25,-6.5 C30.25,-6.5 30.25,6.5 30.25,6.5 C30.25,6.5 -30.25,6.5 -30.25,6.5 C-30.25,6.5 -30.25,-6.5 -30.25,-6.5 C-30.25,-6.5 30.25,-6.5 30.25,-6.5z"/><path stroke-linecap="butt" stroke-linejoin="miter" fill-opacity="0" stroke-miterlimit="4" stroke="rgb(0,0,0)" stroke-opacity="1" stroke-width="0" d=" M30.25,-6.5 C30.25,-6.5 30.25,6.5 30.25,6.5 C30.25,6.5 -30.25,6.5 -30.25,6.5 C-30.25,6.5 -30.25,-6.5 -30.25,-6.5 C-30.25,-6.5 30.25,-6.5 30.25,-6.5z"/></g><g opacity="1" transform="matrix(1,0,0,1,401.75,208.5)"><path fill="rgb(229,183,0)" fill-opacity="1" d=" M30.25,-6.5 C30.25,-6.5 30.25,6.5 30.25,6.5 C30.25,6.5 -30.25,6.5 -30.25,6.5 C-30.25,6.5 -30.25,-6.5 -30.25,-6.5 C-30.25,-6.5 30.25,-6.5 30.25,-6.5z"/><path stroke-linecap="butt" stroke-linejoin="miter" fill-opacity="0" stroke-miterlimit="4" stroke="rgb(0,0,0)" stroke-opacity="1" stroke-width="0" d=" M30.25,-6.5 C30.25,-6.5 30.25,6.5 30.25,6.5 C30.25,6.5 -30.25,6.5 -30.25,6.5 C-30.25,6.5 -30.25,-6.5 -30.25,-6.5 C-30.25,-6.5 30.25,-6.5 30.25,-6.5z"/></g><g opacity="1" transform="matrix(1,0,0,1,346.5,257.5)"><path fill="rgb(229,183,0)" fill-opacity="1" d=" M24,-6 C24,-6 24,6 24,6 C24,6 -24,6 -24,6 C-24,6 -24,-6 -24,-6 C-24,-6 24,-6 24,-6z"/><path stroke-linecap="butt" stroke-linejoin="miter" fill-opacity="0" stroke-miterlimit="4" stroke="rgb(0,0,0)" stroke-opacity="1" stroke-width="0" d=" M24,-6 C24,-6 24,6 24,6 C24,6 -24,6 -24,6 C-24,6 -24,-6 -24,-6 C-24,-6 24,-6 24,-6z"/></g><g opacity="1" transform="matrix(1,0,0,1,346.5,331.5)"><path fill="rgb(229,183,0)" fill-opacity="1" d=" M24,-6 C24,-6 24,6 24,6 C24,6 -24,6 -24,6 C-24,6 -24,-6 -24,-6 C-24,-6 24,-6 24,-6z"/><path stroke-linecap="butt" stroke-linejoin="miter" fill-opacity="0" stroke-miterlimit="4" stroke="rgb(0,0,0)" stroke-opacity="1" stroke-width="0" d=" M24,-6 C24,-6 24,6 24,6 C24,6 -24,6 -24,6 C-24,6 -24,-6 -24,-6 C-24,-6 24,-6 24,-6z"/></g><g opacity="1" transform="matrix(1,0,0,1,346.5,296.5)"><path fill="rgb(229,183,0)" fill-opacity="1" d=" M24,-6 C24,-6 24,6 24,6 C24,6 -24,6 -24,6 C-24,6 -24,-6 -24,-6 C-24,-6 24,-6 24,-6z"/><path stroke-linecap="butt" stroke-linejoin="miter" fill-opacity="0" stroke-miterlimit="4" stroke="rgb(0,0,0)" stroke-opacity="1" stroke-width="0" d=" M24,-6 C24,-6 24,6 24,6 C24,6 -24,6 -24,6 C-24,6 -24,-6 -24,-6 C-24,-6 24,-6 24,-6z"/></g><g opacity="1" transform="matrix(1,0,0,1,346.5,370.5)"><path fill="rgb(229,183,0)" fill-opacity="1" d=" M24,-6 C24,-6 24,6 24,6 C24,6 -24,6 -24,6 C-24,6 -24,-6 -24,-6 C-24,-6 24,-6 24,-6z"/><path stroke-linecap="butt" stroke-linejoin="miter" fill-opacity="0" stroke-miterlimit="4" stroke="rgb(0,0,0)" stroke-opacity="1" stroke-width="0" d=" M24,-6 C24,-6 24,6 24,6 C24,6 -24,6 -24,6 C-24,6 -24,-6 -24,-6 C-24,-6 24,-6 24,-6z"/></g><g opacity="1" transform="matrix(1,0,0,1,344,170)"><path fill="rgb(229,183,0)" fill-opacity="1" d=" M24,-6 C24,-6 24,6 24,6 C24,6 -24,6 -24,6 C-24,6 -24,-6 -24,-6 C-24,-6 24,-6 24,-6z"/><path stroke-linecap="butt" stroke-linejoin="miter" fill-opacity="0" stroke-miterlimit="4" stroke="rgb(0,0,0)" stroke-opacity="1" stroke-width="0" d=" M24,-6 C24,-6 24,6 24,6 C24,6 -24,6 -24,6 C-24,6 -24,-6 -24,-6 C-24,-6 24,-6 24,-6z"/></g><g opacity="1" transform="matrix(1,0,0,1,344,211)"><path fill="rgb(229,183,0)" fill-opacity="1" d=" M24,-6 C24,-6 24,6 24,6 C24,6 -24,6 -24,6 C-24,6 -24,-6 -24,-6 C-24,-6 24,-6 24,-6z"/><path stroke-linecap="butt" stroke-linejoin="miter" fill-opacity="0" stroke-miterlimit="4" stroke="rgb(0,0,0)" stroke-opacity="1" stroke-width="0" d=" M24,-6 C24,-6 24,6 24,6 C24,6 -24,6 -24,6 C-24,6 -24,-6 -24,-6 C-24,-6 24,-6 24,-6z"/></g><g opacity="1" transform="matrix(1,0,0,1,380.25,275.75)"><path fill="rgb(229,183,0)" fill-opacity="1" d=" M29.25,-5.75 C29.25,-5.75 29.25,5.75 29.25,5.75 C29.25,5.75 -29.25,5.75 -29.25,5.75 C-29.25,5.75 -29.25,-5.75 -29.25,-5.75 C-29.25,-5.75 29.25,-5.75 29.25,-5.75z"/><path stroke-linecap="butt" stroke-linejoin="miter" fill-opacity="0" stroke-miterlimit="4" stroke="rgb(0,0,0)" stroke-opacity="1" stroke-width="0" d=" M29.25,-5.75 C29.25,-5.75 29.25,5.75 29.25,5.75 C29.25,5.75 -29.25,5.75 -29.25,5.75 C-29.25,5.75 -29.25,-5.75 -29.25,-5.75 C-29.25,-5.75 29.25,-5.75 29.25,-5.75z"/></g><g opacity="1" transform="matrix(1,0,0,1,380.25,349.75)"><path fill="rgb(229,183,0)" fill-opacity="1" d=" M29.25,-5.75 C29.25,-5.75 29.25,5.75 29.25,5.75 C29.25,5.75 -29.25,5.75 -29.25,5.75 C-29.25,5.75 -29.25,-5.75 -29.25,-5.75 C-29.25,-5.75 29.25,-5.75 29.25,-5.75z"/><path stroke-linecap="butt" stroke-linejoin="miter" fill-opacity="0" stroke-miterlimit="4" stroke="rgb(0,0,0)" stroke-opacity="1" stroke-width="0" d=" M29.25,-5.75 C29.25,-5.75 29.25,5.75 29.25,5.75 C29.25,5.75 -29.25,5.75 -29.25,5.75 C-29.25,5.75 -29.25,-5.75 -29.25,-5.75 C-29.25,-5.75 29.25,-5.75 29.25,-5.75z"/></g><g opacity="1" transform="matrix(1,0,0,1,380.25,314.75)"><path fill="rgb(229,183,0)" fill-opacity="1" d=" M29.25,-5.75 C29.25,-5.75 29.25,5.75 29.25,5.75 C29.25,5.75 -29.25,5.75 -29.25,5.75 C-29.25,5.75 -29.25,-5.75 -29.25,-5.75 C-29.25,-5.75 29.25,-5.75 29.25,-5.75z"/><path stroke-linecap="butt" stroke-linejoin="miter" fill-opacity="0" stroke-miterlimit="4" stroke="rgb(0,0,0)" stroke-opacity="1" stroke-width="0" d=" M29.25,-5.75 C29.25,-5.75 29.25,5.75 29.25,5.75 C29.25,5.75 -29.25,5.75 -29.25,5.75 C-29.25,5.75 -29.25,-5.75 -29.25,-5.75 C-29.25,-5.75 29.25,-5.75 29.25,-5.75z"/></g><g opacity="1" transform="matrix(1,0,0,1,380.25,388.75)"><path fill="rgb(229,183,0)" fill-opacity="1" d=" M29.25,-5.75 C29.25,-5.75 29.25,5.75 29.25,5.75 C29.25,5.75 -29.25,5.75 -29.25,5.75 C-29.25,5.75 -29.25,-5.75 -29.25,-5.75 C-29.25,-5.75 29.25,-5.75 29.25,-5.75z"/><path stroke-linecap="butt" stroke-linejoin="miter" fill-opacity="0" stroke-miterlimit="4" stroke="rgb(0,0,0)" stroke-opacity="1" stroke-width="0" d=" M29.25,-5.75 C29.25,-5.75 29.25,5.75 29.25,5.75 C29.25,5.75 -29.25,5.75 -29.25,5.75 C-29.25,5.75 -29.25,-5.75 -29.25,-5.75 C-29.25,-5.75 29.25,-5.75 29.25,-5.75z"/></g><g opacity="1" transform="matrix(1,0,0,1,377.75,188.25)"><path fill="rgb(229,183,0)" fill-opacity="1" d=" M29.25,-5.75 C29.25,-5.75 29.25,5.75 29.25,5.75 C29.25,5.75 -29.25,5.75 -29.25,5.75 C-29.25,5.75 -29.25,-5.75 -29.25,-5.75 C-29.25,-5.75 29.25,-5.75 29.25,-5.75z"/><path stroke-linecap="butt" stroke-linejoin="miter" fill-opacity="0" stroke-miterlimit="4" stroke="rgb(0,0,0)" stroke-opacity="1" stroke-width="0" d=" M29.25,-5.75 C29.25,-5.75 29.25,5.75 29.25,5.75 C29.25,5.75 -29.25,5.75 -29.25,5.75 C-29.25,5.75 -29.25,-5.75 -29.25,-5.75 C-29.25,-5.75 29.25,-5.75 29.25,-5.75z"/></g><g opacity="1" transform="matrix(1,0,0,1,377.75,229.25)"><path fill="rgb(229,183,0)" fill-opacity="1" d=" M29.25,-5.75 C29.25,-5.75 29.25,5.75 29.25,5.75 C29.25,5.75 -29.25,5.75 -29.25,5.75 C-29.25,5.75 -29.25,-5.75 -29.25,-5.75 C-29.25,-5.75 29.25,-5.75 29.25,-5.75z"/><path stroke-linecap="butt" stroke-linejoin="miter" fill-opacity="0" stroke-miterlimit="4" stroke="rgb(0,0,0)" stroke-opacity="1" stroke-width="0" d=" M29.25,-5.75 C29.25,-5.75 29.25,5.75 29.25,5.75 C29.25,5.75 -29.25,5.75 -29.25,5.75 C-29.25,5.75 -29.25,-5.75 -29.25,-5.75 C-29.25,-5.75 29.25,-5.75 29.25,-5.75z"/></g><g opacity="1" transform="matrix(1,0,0,1,333.75,275.5)"><path fill="rgb(229,183,0)" fill-opacity="1" d=" M11.75,-5 C11.75,-5 11.75,5 11.75,5 C11.75,5 -11.75,5 -11.75,5 C-11.75,5 -11.75,-5 -11.75,-5 C-11.75,-5 11.75,-5 11.75,-5z"/><path stroke-linecap="butt" stroke-linejoin="miter" fill-opacity="0" stroke-miterlimit="4" stroke="rgb(0,0,0)" stroke-opacity="1" stroke-width="0" d=" M11.75,-5 C11.75,-5 11.75,5 11.75,5 C11.75,5 -11.75,5 -11.75,5 C-11.75,5 -11.75,-5 -11.75,-5 C-11.75,-5 11.75,-5 11.75,-5z"/></g><g opacity="1" transform="matrix(1,0,0,1,333.75,349.5)"><path fill="rgb(229,183,0)" fill-opacity="1" d=" M11.75,-5 C11.75,-5 11.75,5 11.75,5 C11.75,5 -11.75,5 -11.75,5 C-11.75,5 -11.75,-5 -11.75,-5 C-11.75,-5 11.75,-5 11.75,-5z"/><path stroke-linecap="butt" stroke-linejoin="miter" fill-opacity="0" stroke-miterlimit="4" stroke="rgb(0,0,0)" stroke-opacity="1" stroke-width="0" d=" M11.75,-5 C11.75,-5 11.75,5 11.75,5 C11.75,5 -11.75,5 -11.75,5 C-11.75,5 -11.75,-5 -11.75,-5 C-11.75,-5 11.75,-5 11.75,-5z"/></g><g opacity="1" transform="matrix(1,0,0,1,333.75,314.5)"><path fill="rgb(229,183,0)" fill-opacity="1" d=" M11.75,-5 C11.75,-5 11.75,5 11.75,5 C11.75,5 -11.75,5 -11.75,5 C-11.75,5 -11.75,-5 -11.75,-5 C-11.75,-5 11.75,-5 11.75,-5z"/><path stroke-linecap="butt" stroke-linejoin="miter" fill-opacity="0" stroke-miterlimit="4" stroke="rgb(0,0,0)" stroke-opacity="1" stroke-width="0" d=" M11.75,-5 C11.75,-5 11.75,5 11.75,5 C11.75,5 -11.75,5 -11.75,5 C-11.75,5 -11.75,-5 -11.75,-5 C-11.75,-5 11.75,-5 11.75,-5z"/></g><g opacity="1" transform="matrix(1,0,0,1,333.75,388.5)"><path fill="rgb(229,183,0)" fill-opacity="1" d=" M11.75,-5 C11.75,-5 11.75,5 11.75,5 C11.75,5 -11.75,5 -11.75,5 C-11.75,5 -11.75,-5 -11.75,-5 C-11.75,-5 11.75,-5 11.75,-5z"/><path stroke-linecap="butt" stroke-linejoin="miter" fill-opacity="0" stroke-miterlimit="4" stroke="rgb(0,0,0)" stroke-opacity="1" stroke-width="0" d=" M11.75,-5 C11.75,-5 11.75,5 11.75,5 C11.75,5 -11.75,5 -11.75,5 C-11.75,5 -11.75,-5 -11.75,-5 C-11.75,-5 11.75,-5 11.75,-5z"/></g><g opacity="1" transform="matrix(1,0,0,1,331.25,188)"><path fill="rgb(229,183,0)" fill-opacity="1" d=" M11.75,-5 C11.75,-5 11.75,5 11.75,5 C11.75,5 -11.75,5 -11.75,5 C-11.75,5 -11.75,-5 -11.75,-5 C-11.75,-5 11.75,-5 11.75,-5z"/><path stroke-linecap="butt" stroke-linejoin="miter" fill-opacity="0" stroke-miterlimit="4" stroke="rgb(0,0,0)" stroke-opacity="1" stroke-width="0" d=" M11.75,-5 C11.75,-5 11.75,5 11.75,5 C11.75,5 -11.75,5 -11.75,5 C-11.75,5 -11.75,-5 -11.75,-5 C-11.75,-5 11.75,-5 11.75,-5z"/></g><g opacity="1" transform="matrix(1,0,0,1,331.25,229)"><path fill="rgb(229,183,0)" fill-opacity="1" d=" M11.75,-5 C11.75,-5 11.75,5 11.75,5 C11.75,5 -11.75,5 -11.75,5 C-11.75,5 -11.75,-5 -11.75,-5 C-11.75,-5 11.75,-5 11.75,-5z"/><path stroke-linecap="butt" stroke-linejoin="miter" fill-opacity="0" stroke-miterlimit="4" stroke="rgb(0,0,0)" stroke-opacity="1" stroke-width="0" d=" M11.75,-5 C11.75,-5 11.75,5 11.75,5 C11.75,5 -11.75,5 -11.75,5 C-11.75,5 -11.75,-5 -11.75,-5 C-11.75,-5 11.75,-5 11.75,-5z"/></g><g opacity="1" transform="matrix(1,0,0,1,423.5,277)"><path fill="rgb(229,183,0)" fill-opacity="1" d=" M9,-4.5 C9,-4.5 9,4.5 9,4.5 C9,4.5 -9,4.5 -9,4.5 C-9,4.5 -9,-4.5 -9,-4.5 C-9,-4.5 9,-4.5 9,-4.5z"/><path stroke-linecap="butt" stroke-linejoin="miter" fill-opacity="0" stroke-miterlimit="4" stroke="rgb(0,0,0)" stroke-opacity="1" stroke-width="0" d=" M9,-4.5 C9,-4.5 9,4.5 9,4.5 C9,4.5 -9,4.5 -9,4.5 C-9,4.5 -9,-4.5 -9,-4.5 C-9,-4.5 9,-4.5 9,-4.5z"/></g><g opacity="1" transform="matrix(1,0,0,1,423.5,351)"><path fill="rgb(229,183,0)" fill-opacity="1" d=" M9,-4.5 C9,-4.5 9,4.5 9,4.5 C9,4.5 -9,4.5 -9,4.5 C-9,4.5 -9,-4.5 -9,-4.5 C-9,-4.5 9,-4.5 9,-4.5z"/><path stroke-linecap="butt" stroke-linejoin="miter" fill-opacity="0" stroke-miterlimit="4" stroke="rgb(0,0,0)" stroke-opacity="1" stroke-width="0" d=" M9,-4.5 C9,-4.5 9,4.5 9,4.5 C9,4.5 -9,4.5 -9,4.5 C-9,4.5 -9,-4.5 -9,-4.5 C-9,-4.5 9,-4.5 9,-4.5z"/></g><g opacity="1" transform="matrix(1,0,0,1,423.5,316)"><path fill="rgb(229,183,0)" fill-opacity="1" d=" M9,-4.5 C9,-4.5 9,4.5 9,4.5 C9,4.5 -9,4.5 -9,4.5 C-9,4.5 -9,-4.5 -9,-4.5 C-9,-4.5 9,-4.5 9,-4.5z"/><path stroke-linecap="butt" stroke-linejoin="miter" fill-opacity="0" stroke-miterlimit="4" stroke="rgb(0,0,0)" stroke-opacity="1" stroke-width="0" d=" M9,-4.5 C9,-4.5 9,4.5 9,4.5 C9,4.5 -9,4.5 -9,4.5 C-9,4.5 -9,-4.5 -9,-4.5 C-9,-4.5 9,-4.5 9,-4.5z"/></g><g opacity="1" transform="matrix(1,0,0,1,423.5,390)"><path fill="rgb(229,183,0)" fill-opacity="1" d=" M9,-4.5 C9,-4.5 9,4.5 9,4.5 C9,4.5 -9,4.5 -9,4.5 C-9,4.5 -9,-4.5 -9,-4.5 C-9,-4.5 9,-4.5 9,-4.5z"/><path stroke-linecap="butt" stroke-linejoin="miter" fill-opacity="0" stroke-miterlimit="4" stroke="rgb(0,0,0)" stroke-opacity="1" stroke-width="0" d=" M9,-4.5 C9,-4.5 9,4.5 9,4.5 C9,4.5 -9,4.5 -9,4.5 C-9,4.5 -9,-4.5 -9,-4.5 C-9,-4.5 9,-4.5 9,-4.5z"/></g><g opacity="1" transform="matrix(1,0,0,1,421,189.5)"><path fill="rgb(229,183,0)" fill-opacity="1" d=" M9,-4.5 C9,-4.5 9,4.5 9,4.5 C9,4.5 -9,4.5 -9,4.5 C-9,4.5 -9,-4.5 -9,-4.5 C-9,-4.5 9,-4.5 9,-4.5z"/><path stroke-linecap="butt" stroke-linejoin="miter" fill-opacity="0" stroke-miterlimit="4" stroke="rgb(0,0,0)" stroke-opacity="1" stroke-width="0" d=" M9,-4.5 C9,-4.5 9,4.5 9,4.5 C9,4.5 -9,4.5 -9,4.5 C-9,4.5 -9,-4.5 -9,-4.5 C-9,-4.5 9,-4.5 9,-4.5z"/></g><g opacity="1" transform="matrix(1,0,0,1,421,230.5)"><path fill="rgb(229,183,0)" fill-opacity="1" d=" M9,-4.5 C9,-4.5 9,4.5 9,4.5 C9,4.5 -9,4.5 -9,4.5 C-9,4.5 -9,-4.5 -9,-4.5 C-9,-4.5 9,-4.5 9,-4.5z"/><path stroke-linecap="butt" stroke-linejoin="miter" fill-opacity="0" stroke-miterlimit="4" stroke="rgb(0,0,0)" stroke-opacity="1" stroke-width="0" d=" M9,-4.5 C9,-4.5 9,4.5 9,4.5 C9,4.5 -9,4.5 -9,4.5 C-9,4.5 -9,-4.5 -9,-4.5 C-9,-4.5 9,-4.5 9,-4.5z"/></g></g><g transform="matrix(1,0,0,1,1250,540)" opacity="1" style="display: block;"><g opacity="1" transform="matrix(1,0,0,1.612239956855774,376.5,161)"><path fill="rgb(51,51,51)" fill-opacity="1" d=" M61.5,-150 C61.5,-150 61.5,150 61.5,150 C61.5,150 -61.5,150 -61.5,150 C-61.5,150 -61.5,-150 -61.5,-150 C-61.5,-150 61.5,-150 61.5,-150z"/><path stroke-linecap="butt" stroke-linejoin="miter" fill-opacity="0" stroke-miterlimit="4" stroke="rgb(0,0,0)" stroke-opacity="1" stroke-width="0" d=" M61.5,-150 C61.5,-150 61.5,150 61.5,150 C61.5,150 -61.5,150 -61.5,150 C-61.5,150 -61.5,-150 -61.5,-150 C-61.5,-150 61.5,-150 61.5,-150z"/></g><g opacity="1" transform="matrix(1,0,0,1,343.75,124.25)"><path fill="rgb(229,183,0)" fill-opacity="1" d=" M25.75,-9.75 C25.75,-9.75 25.75,9.75 25.75,9.75 C25.75,9.75 -25.75,9.75 -25.75,9.75 C-25.75,9.75 -25.75,-9.75 -25.75,-9.75 C-25.75,-9.75 25.75,-9.75 25.75,-9.75z"/><path stroke-linecap="butt" stroke-linejoin="miter" fill-opacity="0" stroke-miterlimit="4" stroke="rgb(0,0,0)" stroke-opacity="1" stroke-width="0" d=" M25.75,-9.75 C25.75,-9.75 25.75,9.75 25.75,9.75 C25.75,9.75 -25.75,9.75 -25.75,9.75 C-25.75,9.75 -25.75,-9.75 -25.75,-9.75 C-25.75,-9.75 25.75,-9.75 25.75,-9.75z"/></g><g opacity="1" transform="matrix(1,0,0,1,344.25,-6.75)"><path fill="rgb(229,183,0)" fill-opacity="1" d=" M25.75,-9.75 C25.75,-9.75 25.75,9.75 25.75,9.75 C25.75,9.75 -25.75,9.75 -25.75,9.75 C-25.75,9.75 -25.75,-9.75 -25.75,-9.75 C-25.75,-9.75 25.75,-9.75 25.75,-9.75z"/><path stroke-linecap="butt" stroke-linejoin="miter" fill-opacity="0" stroke-miterlimit="4" stroke="rgb(0,0,0)" stroke-opacity="1" stroke-width="0" d=" M25.75,-9.75 C25.75,-9.75 25.75,9.75 25.75,9.75 C25.75,9.75 -25.75,9.75 -25.75,9.75 C-25.75,9.75 -25.75,-9.75 -25.75,-9.75 C-25.75,-9.75 25.75,-9.75 25.75,-9.75z"/></g><g opacity="1" transform="matrix(1,0,0,1,344.25,-54.75)"><path fill="rgb(229,183,0)" fill-opacity="1" d=" M25.75,-9.75 C25.75,-9.75 25.75,9.75 25.75,9.75 C25.75,9.75 -25.75,9.75 -25.75,9.75 C-25.75,9.75 -25.75,-9.75 -25.75,-9.75 C-25.75,-9.75 25.75,-9.75 25.75,-9.75z"/><path stroke-linecap="butt" stroke-linejoin="miter" fill-opacity="0" stroke-miterlimit="4" stroke="rgb(0,0,0)" stroke-opacity="1" stroke-width="0" d=" M25.75,-9.75 C25.75,-9.75 25.75,9.75 25.75,9.75 C25.75,9.75 -25.75,9.75 -25.75,9.75 C-25.75,9.75 -25.75,-9.75 -25.75,-9.75 C-25.75,-9.75 25.75,-9.75 25.75,-9.75z"/></g><g opacity="1" transform="matrix(1,0,0,1,402.5,124)"><path fill="rgb(229,183,0)" fill-opacity="1" d=" M27.5,-9.5 C27.5,-9.5 27.5,9.5 27.5,9.5 C27.5,9.5 -27.5,9.5 -27.5,9.5 C-27.5,9.5 -27.5,-9.5 -27.5,-9.5 C-27.5,-9.5 27.5,-9.5 27.5,-9.5z"/><path stroke-linecap="butt" stroke-linejoin="miter" fill-opacity="0" stroke-miterlimit="4" stroke="rgb(0,0,0)" stroke-opacity="1" stroke-width="0" d=" M27.5,-9.5 C27.5,-9.5 27.5,9.5 27.5,9.5 C27.5,9.5 -27.5,9.5 -27.5,9.5 C-27.5,9.5 -27.5,-9.5 -27.5,-9.5 C-27.5,-9.5 27.5,-9.5 27.5,-9.5z"/></g><g opacity="1" transform="matrix(1,0,0,1,402.5,-7)"><path fill="rgb(229,183,0)" fill-opacity="1" d=" M27.5,-9.5 C27.5,-9.5 27.5,9.5 27.5,9.5 C27.5,9.5 -27.5,9.5 -27.5,9.5 C-27.5,9.5 -27.5,-9.5 -27.5,-9.5 C-27.5,-9.5 27.5,-9.5 27.5,-9.5z"/><path stroke-linecap="butt" stroke-linejoin="miter" fill-opacity="0" stroke-miterlimit="4" stroke="rgb(0,0,0)" stroke-opacity="1" stroke-width="0" d=" M27.5,-9.5 C27.5,-9.5 27.5,9.5 27.5,9.5 C27.5,9.5 -27.5,9.5 -27.5,9.5 C-27.5,9.5 -27.5,-9.5 -27.5,-9.5 C-27.5,-9.5 27.5,-9.5 27.5,-9.5z"/></g><g opacity="1" transform="matrix(1,0,0,1,402.5,-55)"><path fill="rgb(229,183,0)" fill-opacity="1" d=" M27.5,-9.5 C27.5,-9.5 27.5,9.5 27.5,9.5 C27.5,9.5 -27.5,9.5 -27.5,9.5 C-27.5,9.5 -27.5,-9.5 -27.5,-9.5 C-27.5,-9.5 27.5,-9.5 27.5,-9.5z"/><path stroke-linecap="butt" stroke-linejoin="miter" fill-opacity="0" stroke-miterlimit="4" stroke="rgb(0,0,0)" stroke-opacity="1" stroke-width="0" d=" M27.5,-9.5 C27.5,-9.5 27.5,9.5 27.5,9.5 C27.5,9.5 -27.5,9.5 -27.5,9.5 C-27.5,9.5 -27.5,-9.5 -27.5,-9.5 C-27.5,-9.5 27.5,-9.5 27.5,-9.5z"/></g><g opacity="1" transform="matrix(1,0,0,1,335.25,147)"><path fill="rgb(229,183,0)" fill-opacity="1" d=" M17.25,-6.5 C17.25,-6.5 17.25,6.5 17.25,6.5 C17.25,6.5 -17.25,6.5 -17.25,6.5 C-17.25,6.5 -17.25,-6.5 -17.25,-6.5 C-17.25,-6.5 17.25,-6.5 17.25,-6.5z"/><path stroke-linecap="butt" stroke-linejoin="miter" fill-opacity="0" stroke-miterlimit="4" stroke="rgb(0,0,0)" stroke-opacity="1" stroke-width="0" d=" M17.25,-6.5 C17.25,-6.5 17.25,6.5 17.25,6.5 C17.25,6.5 -17.25,6.5 -17.25,6.5 C-17.25,6.5 -17.25,-6.5 -17.25,-6.5 C-17.25,-6.5 17.25,-6.5 17.25,-6.5z"/></g><g opacity="1" transform="matrix(1,0,0,1,335.75,16)"><path fill="rgb(229,183,0)" fill-opacity="1" d=" M17.25,-6.5 C17.25,-6.5 17.25,6.5 17.25,6.5 C17.25,6.5 -17.25,6.5 -17.25,6.5 C-17.25,6.5 -17.25,-6.5 -17.25,-6.5 C-17.25,-6.5 17.25,-6.5 17.25,-6.5z"/><path stroke-linecap="butt" stroke-linejoin="miter" fill-opacity="0" stroke-miterlimit="4" stroke="rgb(0,0,0)" stroke-opacity="1" stroke-width="0" d=" M17.25,-6.5 C17.25,-6.5 17.25,6.5 17.25,6.5 C17.25,6.5 -17.25,6.5 -17.25,6.5 C-17.25,6.5 -17.25,-6.5 -17.25,-6.5 C-17.25,-6.5 17.25,-6.5 17.25,-6.5z"/></g><g opacity="1" transform="matrix(1,0,0,1,335.75,-32)"><path fill="rgb(229,183,0)" fill-opacity="1" d=" M17.25,-6.5 C17.25,-6.5 17.25,6.5 17.25,6.5 C17.25,6.5 -17.25,6.5 -17.25,6.5 C-17.25,6.5 -17.25,-6.5 -17.25,-6.5 C-17.25,-6.5 17.25,-6.5 17.25,-6.5z"/><path stroke-linecap="butt" stroke-linejoin="miter" fill-opacity="0" stroke-miterlimit="4" stroke="rgb(0,0,0)" stroke-opacity="1" stroke-width="0" d=" M17.25,-6.5 C17.25,-6.5 17.25,6.5 17.25,6.5 C17.25,6.5 -17.25,6.5 -17.25,6.5 C-17.25,6.5 -17.25,-6.5 -17.25,-6.5 C-17.25,-6.5 17.25,-6.5 17.25,-6.5z"/></g><g opacity="1" transform="matrix(1,0,0,1,394,149.75)"><path fill="rgb(229,183,0)" fill-opacity="1" d=" M35.5,-6.25 C35.5,-6.25 35.5,6.25 35.5,6.25 C35.5,6.25 -35.5,6.25 -35.5,6.25 C-35.5,6.25 -35.5,-6.25 -35.5,-6.25 C-35.5,-6.25 35.5,-6.25 35.5,-6.25z"/><path stroke-linecap="butt" stroke-linejoin="miter" fill-opacity="0" stroke-miterlimit="4" stroke="rgb(0,0,0)" stroke-opacity="1" stroke-width="0" d=" M35.5,-6.25 C35.5,-6.25 35.5,6.25 35.5,6.25 C35.5,6.25 -35.5,6.25 -35.5,6.25 C-35.5,6.25 -35.5,-6.25 -35.5,-6.25 C-35.5,-6.25 35.5,-6.25 35.5,-6.25z"/></g><g opacity="1" transform="matrix(1,0,0,1,394.5,18.75)"><path fill="rgb(229,183,0)" fill-opacity="1" d=" M35.5,-6.25 C35.5,-6.25 35.5,6.25 35.5,6.25 C35.5,6.25 -35.5,6.25 -35.5,6.25 C-35.5,6.25 -35.5,-6.25 -35.5,-6.25 C-35.5,-6.25 35.5,-6.25 35.5,-6.25z"/><path stroke-linecap="butt" stroke-linejoin="miter" fill-opacity="0" stroke-miterlimit="4" stroke="rgb(0,0,0)" stroke-opacity="1" stroke-width="0" d=" M35.5,-6.25 C35.5,-6.25 35.5,6.25 35.5,6.25 C35.5,6.25 -35.5,6.25 -35.5,6.25 C-35.5,6.25 -35.5,-6.25 -35.5,-6.25 C-35.5,-6.25 35.5,-6.25 35.5,-6.25z"/></g><g opacity="1" transform="matrix(1,0,0,1,394.5,-29.25)"><path fill="rgb(229,183,0)" fill-opacity="1" d=" M35.5,-6.25 C35.5,-6.25 35.5,6.25 35.5,6.25 C35.5,6.25 -35.5,6.25 -35.5,6.25 C-35.5,6.25 -35.5,-6.25 -35.5,-6.25 C-35.5,-6.25 35.5,-6.25 35.5,-6.25z"/><path stroke-linecap="butt" stroke-linejoin="miter" fill-opacity="0" stroke-miterlimit="4" stroke="rgb(0,0,0)" stroke-opacity="1" stroke-width="0" d=" M35.5,-6.25 C35.5,-6.25 35.5,6.25 35.5,6.25 C35.5,6.25 -35.5,6.25 -35.5,6.25 C-35.5,6.25 -35.5,-6.25 -35.5,-6.25 C-35.5,-6.25 35.5,-6.25 35.5,-6.25z"/></g><g opacity="1" transform="matrix(1,0,0,1,404.25,255)"><path fill="rgb(229,183,0)" fill-opacity="1" d=" M30.25,-6.5 C30.25,-6.5 30.25,6.5 30.25,6.5 C30.25,6.5 -30.25,6.5 -30.25,6.5 C-30.25,6.5 -30.25,-6.5 -30.25,-6.5 C-30.25,-6.5 30.25,-6.5 30.25,-6.5z"/><path stroke-linecap="butt" stroke-linejoin="miter" fill-opacity="0" stroke-miterlimit="4" stroke="rgb(0,0,0)" stroke-opacity="1" stroke-width="0" d=" M30.25,-6.5 C30.25,-6.5 30.25,6.5 30.25,6.5 C30.25,6.5 -30.25,6.5 -30.25,6.5 C-30.25,6.5 -30.25,-6.5 -30.25,-6.5 C-30.25,-6.5 30.25,-6.5 30.25,-6.5z"/></g><g opacity="1" transform="matrix(1,0,0,1,404.25,329)"><path fill="rgb(229,183,0)" fill-opacity="1" d=" M30.25,-6.5 C30.25,-6.5 30.25,6.5 30.25,6.5 C30.25,6.5 -30.25,6.5 -30.25,6.5 C-30.25,6.5 -30.25,-6.5 -30.25,-6.5 C-30.25,-6.5 30.25,-6.5 30.25,-6.5z"/><path stroke-linecap="butt" stroke-linejoin="miter" fill-opacity="0" stroke-miterlimit="4" stroke="rgb(0,0,0)" stroke-opacity="1" stroke-width="0" d=" M30.25,-6.5 C30.25,-6.5 30.25,6.5 30.25,6.5 C30.25,6.5 -30.25,6.5 -30.25,6.5 C-30.25,6.5 -30.25,-6.5 -30.25,-6.5 C-30.25,-6.5 30.25,-6.5 30.25,-6.5z"/></g><g opacity="1" transform="matrix(1,0,0,1,404.25,294)"><path fill="rgb(229,183,0)" fill-opacity="1" d=" M30.25,-6.5 C30.25,-6.5 30.25,6.5 30.25,6.5 C30.25,6.5 -30.25,6.5 -30.25,6.5 C-30.25,6.5 -30.25,-6.5 -30.25,-6.5 C-30.25,-6.5 30.25,-6.5 30.25,-6.5z"/><path stroke-linecap="butt" stroke-linejoin="miter" fill-opacity="0" stroke-miterlimit="4" stroke="rgb(0,0,0)" stroke-opacity="1" stroke-width="0" d=" M30.25,-6.5 C30.25,-6.5 30.25,6.5 30.25,6.5 C30.25,6.5 -30.25,6.5 -30.25,6.5 C-30.25,6.5 -30.25,-6.5 -30.25,-6.5 C-30.25,-6.5 30.25,-6.5 30.25,-6.5z"/></g><g opacity="1" transform="matrix(1,0,0,1,404.25,368)"><path fill="rgb(229,183,0)" fill-opacity="1" d=" M30.25,-6.5 C30.25,-6.5 30.25,6.5 30.25,6.5 C30.25,6.5 -30.25,6.5 -30.25,6.5 C-30.25,6.5 -30.25,-6.5 -30.25,-6.5 C-30.25,-6.5 30.25,-6.5 30.25,-6.5z"/><path stroke-linecap="butt" stroke-linejoin="miter" fill-opacity="0" stroke-miterlimit="4" stroke="rgb(0,0,0)" stroke-opacity="1" stroke-width="0" d=" M30.25,-6.5 C30.25,-6.5 30.25,6.5 30.25,6.5 C30.25,6.5 -30.25,6.5 -30.25,6.5 C-30.25,6.5 -30.25,-6.5 -30.25,-6.5 C-30.25,-6.5 30.25,-6.5 30.25,-6.5z"/></g><g opacity="1" transform="matrix(1,0,0,1,401.75,168.5)"><path fill="rgb(229,183,0)" fill-opacity="1" d=" M30.25,-6.5 C30.25,-6.5 30.25,6.5 30.25,6.5 C30.25,6.5 -30.25,6.5 -30.25,6.5 C-30.25,6.5 -30.25,-6.5 -30.25,-6.5 C-30.25,-6.5 30.25,-6.5 30.25,-6.5z"/><path stroke-linecap="butt" stroke-linejoin="miter" fill-opacity="0" stroke-miterlimit="4" stroke="rgb(0,0,0)" stroke-opacity="1" stroke-width="0" d=" M30.25,-6.5 C30.25,-6.5 30.25,6.5 30.25,6.5 C30.25,6.5 -30.25,6.5 -30.25,6.5 C-30.25,6.5 -30.25,-6.5 -30.25,-6.5 C-30.25,-6.5 30.25,-6.5 30.25,-6.5z"/></g><g opacity="1" transform="matrix(1,0,0,1,401.75,37.5)"><path fill="rgb(229,183,0)" fill-opacity="1" d=" M30.25,-6.5 C30.25,-6.5 30.25,6.5 30.25,6.5 C30.25,6.5 -30.25,6.5 -30.25,6.5 C-30.25,6.5 -30.25,-6.5 -30.25,-6.5 C-30.25,-6.5 30.25,-6.5 30.25,-6.5z"/><path stroke-linecap="butt" stroke-linejoin="miter" fill-opacity="0" stroke-miterlimit="4" stroke="rgb(0,0,0)" stroke-opacity="1" stroke-width="0" d=" M30.25,-6.5 C30.25,-6.5 30.25,6.5 30.25,6.5 C30.25,6.5 -30.25,6.5 -30.25,6.5 C-30.25,6.5 -30.25,-6.5 -30.25,-6.5 C-30.25,-6.5 30.25,-6.5 30.25,-6.5z"/></g><g opacity="1" transform="matrix(1,0,0,1,401.75,208.5)"><path fill="rgb(229,183,0)" fill-opacity="1" d=" M30.25,-6.5 C30.25,-6.5 30.25,6.5 30.25,6.5 C30.25,6.5 -30.25,6.5 -30.25,6.5 C-30.25,6.5 -30.25,-6.5 -30.25,-6.5 C-30.25,-6.5 30.25,-6.5 30.25,-6.5z"/><path stroke-linecap="butt" stroke-linejoin="miter" fill-opacity="0" stroke-miterlimit="4" stroke="rgb(0,0,0)" stroke-opacity="1" stroke-width="0" d=" M30.25,-6.5 C30.25,-6.5 30.25,6.5 30.25,6.5 C30.25,6.5 -30.25,6.5 -30.25,6.5 C-30.25,6.5 -30.25,-6.5 -30.25,-6.5 C-30.25,-6.5 30.25,-6.5 30.25,-6.5z"/></g><g opacity="1" transform="matrix(1,0,0,1,401.75,77.5)"><path fill="rgb(229,183,0)" fill-opacity="1" d=" M30.25,-6.5 C30.25,-6.5 30.25,6.5 30.25,6.5 C30.25,6.5 -30.25,6.5 -30.25,6.5 C-30.25,6.5 -30.25,-6.5 -30.25,-6.5 C-30.25,-6.5 30.25,-6.5 30.25,-6.5z"/><path stroke-linecap="butt" stroke-linejoin="miter" fill-opacity="0" stroke-miterlimit="4" stroke="rgb(0,0,0)" stroke-opacity="1" stroke-width="0" d=" M30.25,-6.5 C30.25,-6.5 30.25,6.5 30.25,6.5 C30.25,6.5 -30.25,6.5 -30.25,6.5 C-30.25,6.5 -30.25,-6.5 -30.25,-6.5 C-30.25,-6.5 30.25,-6.5 30.25,-6.5z"/></g><g opacity="1" transform="matrix(1,0,0,1,346.5,257.5)"><path fill="rgb(229,183,0)" fill-opacity="1" d=" M24,-6 C24,-6 24,6 24,6 C24,6 -24,6 -24,6 C-24,6 -24,-6 -24,-6 C-24,-6 24,-6 24,-6z"/><path stroke-linecap="butt" stroke-linejoin="miter" fill-opacity="0" stroke-miterlimit="4" stroke="rgb(0,0,0)" stroke-opacity="1" stroke-width="0" d=" M24,-6 C24,-6 24,6 24,6 C24,6 -24,6 -24,6 C-24,6 -24,-6 -24,-6 C-24,-6 24,-6 24,-6z"/></g><g opacity="1" transform="matrix(1,0,0,1,346.5,331.5)"><path fill="rgb(229,183,0)" fill-opacity="1" d=" M24,-6 C24,-6 24,6 24,6 C24,6 -24,6 -24,6 C-24,6 -24,-6 -24,-6 C-24,-6 24,-6 24,-6z"/><path stroke-linecap="butt" stroke-linejoin="miter" fill-opacity="0" stroke-miterlimit="4" stroke="rgb(0,0,0)" stroke-opacity="1" stroke-width="0" d=" M24,-6 C24,-6 24,6 24,6 C24,6 -24,6 -24,6 C-24,6 -24,-6 -24,-6 C-24,-6 24,-6 24,-6z"/></g><g opacity="1" transform="matrix(1,0,0,1,346.5,296.5)"><path fill="rgb(229,183,0)" fill-opacity="1" d=" M24,-6 C24,-6 24,6 24,6 C24,6 -24,6 -24,6 C-24,6 -24,-6 -24,-6 C-24,-6 24,-6 24,-6z"/><path stroke-linecap="butt" stroke-linejoin="miter" fill-opacity="0" stroke-miterlimit="4" stroke="rgb(0,0,0)" stroke-opacity="1" stroke-width="0" d=" M24,-6 C24,-6 24,6 24,6 C24,6 -24,6 -24,6 C-24,6 -24,-6 -24,-6 C-24,-6 24,-6 24,-6z"/></g><g opacity="1" transform="matrix(1,0,0,1,346.5,370.5)"><path fill="rgb(229,183,0)" fill-opacity="1" d=" M24,-6 C24,-6 24,6 24,6 C24,6 -24,6 -24,6 C-24,6 -24,-6 -24,-6 C-24,-6 24,-6 24,-6z"/><path stroke-linecap="butt" stroke-linejoin="miter" fill-opacity="0" stroke-miterlimit="4" stroke="rgb(0,0,0)" stroke-opacity="1" stroke-width="0" d=" M24,-6 C24,-6 24,6 24,6 C24,6 -24,6 -24,6 C-24,6 -24,-6 -24,-6 C-24,-6 24,-6 24,-6z"/></g><g opacity="1" transform="matrix(1,0,0,1,344,170)"><path fill="rgb(229,183,0)" fill-opacity="1" d=" M24,-6 C24,-6 24,6 24,6 C24,6 -24,6 -24,6 C-24,6 -24,-6 -24,-6 C-24,-6 24,-6 24,-6z"/><path stroke-linecap="butt" stroke-linejoin="miter" fill-opacity="0" stroke-miterlimit="4" stroke="rgb(0,0,0)" stroke-opacity="1" stroke-width="0" d=" M24,-6 C24,-6 24,6 24,6 C24,6 -24,6 -24,6 C-24,6 -24,-6 -24,-6 C-24,-6 24,-6 24,-6z"/></g><g opacity="1" transform="matrix(1,0,0,1,344,39)"><path fill="rgb(229,183,0)" fill-opacity="1" d=" M24,-6 C24,-6 24,6 24,6 C24,6 -24,6 -24,6 C-24,6 -24,-6 -24,-6 C-24,-6 24,-6 24,-6z"/><path stroke-linecap="butt" stroke-linejoin="miter" fill-opacity="0" stroke-miterlimit="4" stroke="rgb(0,0,0)" stroke-opacity="1" stroke-width="0" d=" M24,-6 C24,-6 24,6 24,6 C24,6 -24,6 -24,6 C-24,6 -24,-6 -24,-6 C-24,-6 24,-6 24,-6z"/></g><g opacity="1" transform="matrix(1,0,0,1,344,211)"><path fill="rgb(229,183,0)" fill-opacity="1" d=" M24,-6 C24,-6 24,6 24,6 C24,6 -24,6 -24,6 C-24,6 -24,-6 -24,-6 C-24,-6 24,-6 24,-6z"/><path stroke-linecap="butt" stroke-linejoin="miter" fill-opacity="0" stroke-miterlimit="4" stroke="rgb(0,0,0)" stroke-opacity="1" stroke-width="0" d=" M24,-6 C24,-6 24,6 24,6 C24,6 -24,6 -24,6 C-24,6 -24,-6 -24,-6 C-24,-6 24,-6 24,-6z"/></g><g opacity="1" transform="matrix(1,0,0,1,344,80)"><path fill="rgb(229,183,0)" fill-opacity="1" d=" M24,-6 C24,-6 24,6 24,6 C24,6 -24,6 -24,6 C-24,6 -24,-6 -24,-6 C-24,-6 24,-6 24,-6z"/><path stroke-linecap="butt" stroke-linejoin="miter" fill-opacity="0" stroke-miterlimit="4" stroke="rgb(0,0,0)" stroke-opacity="1" stroke-width="0" d=" M24,-6 C24,-6 24,6 24,6 C24,6 -24,6 -24,6 C-24,6 -24,-6 -24,-6 C-24,-6 24,-6 24,-6z"/></g><g opacity="1" transform="matrix(1,0,0,1,380.25,275.75)"><path fill="rgb(229,183,0)" fill-opacity="1" d=" M29.25,-5.75 C29.25,-5.75 29.25,5.75 29.25,5.75 C29.25,5.75 -29.25,5.75 -29.25,5.75 C-29.25,5.75 -29.25,-5.75 -29.25,-5.75 C-29.25,-5.75 29.25,-5.75 29.25,-5.75z"/><path stroke-linecap="butt" stroke-linejoin="miter" fill-opacity="0" stroke-miterlimit="4" stroke="rgb(0,0,0)" stroke-opacity="1" stroke-width="0" d=" M29.25,-5.75 C29.25,-5.75 29.25,5.75 29.25,5.75 C29.25,5.75 -29.25,5.75 -29.25,5.75 C-29.25,5.75 -29.25,-5.75 -29.25,-5.75 C-29.25,-5.75 29.25,-5.75 29.25,-5.75z"/></g><g opacity="1" transform="matrix(1,0,0,1,380.25,349.75)"><path fill="rgb(229,183,0)" fill-opacity="1" d=" M29.25,-5.75 C29.25,-5.75 29.25,5.75 29.25,5.75 C29.25,5.75 -29.25,5.75 -29.25,5.75 C-29.25,5.75 -29.25,-5.75 -29.25,-5.75 C-29.25,-5.75 29.25,-5.75 29.25,-5.75z"/><path stroke-linecap="butt" stroke-linejoin="miter" fill-opacity="0" stroke-miterlimit="4" stroke="rgb(0,0,0)" stroke-opacity="1" stroke-width="0" d=" M29.25,-5.75 C29.25,-5.75 29.25,5.75 29.25,5.75 C29.25,5.75 -29.25,5.75 -29.25,5.75 C-29.25,5.75 -29.25,-5.75 -29.25,-5.75 C-29.25,-5.75 29.25,-5.75 29.25,-5.75z"/></g><g opacity="1" transform="matrix(1,0,0,1,380.25,314.75)"><path fill="rgb(229,183,0)" fill-opacity="1" d=" M29.25,-5.75 C29.25,-5.75 29.25,5.75 29.25,5.75 C29.25,5.75 -29.25,5.75 -29.25,5.75 C-29.25,5.75 -29.25,-5.75 -29.25,-5.75 C-29.25,-5.75 29.25,-5.75 29.25,-5.75z"/><path stroke-linecap="butt" stroke-linejoin="miter" fill-opacity="0" stroke-miterlimit="4" stroke="rgb(0,0,0)" stroke-opacity="1" stroke-width="0" d=" M29.25,-5.75 C29.25,-5.75 29.25,5.75 29.25,5.75 C29.25,5.75 -29.25,5.75 -29.25,5.75 C-29.25,5.75 -29.25,-5.75 -29.25,-5.75 C-29.25,-5.75 29.25,-5.75 29.25,-5.75z"/></g><g opacity="1" transform="matrix(1,0,0,1,380.25,388.75)"><path fill="rgb(229,183,0)" fill-opacity="1" d=" M29.25,-5.75 C29.25,-5.75 29.25,5.75 29.25,5.75 C29.25,5.75 -29.25,5.75 -29.25,5.75 C-29.25,5.75 -29.25,-5.75 -29.25,-5.75 C-29.25,-5.75 29.25,-5.75 29.25,-5.75z"/><path stroke-linecap="butt" stroke-linejoin="miter" fill-opacity="0" stroke-miterlimit="4" stroke="rgb(0,0,0)" stroke-opacity="1" stroke-width="0" d=" M29.25,-5.75 C29.25,-5.75 29.25,5.75 29.25,5.75 C29.25,5.75 -29.25,5.75 -29.25,5.75 C-29.25,5.75 -29.25,-5.75 -29.25,-5.75 C-29.25,-5.75 29.25,-5.75 29.25,-5.75z"/></g><g opacity="1" transform="matrix(1,0,0,1,377.75,188.25)"><path fill="rgb(229,183,0)" fill-opacity="1" d=" M29.25,-5.75 C29.25,-5.75 29.25,5.75 29.25,5.75 C29.25,5.75 -29.25,5.75 -29.25,5.75 C-29.25,5.75 -29.25,-5.75 -29.25,-5.75 C-29.25,-5.75 29.25,-5.75 29.25,-5.75z"/><path stroke-linecap="butt" stroke-linejoin="miter" fill-opacity="0" stroke-miterlimit="4" stroke="rgb(0,0,0)" stroke-opacity="1" stroke-width="0" d=" M29.25,-5.75 C29.25,-5.75 29.25,5.75 29.25,5.75 C29.25,5.75 -29.25,5.75 -29.25,5.75 C-29.25,5.75 -29.25,-5.75 -29.25,-5.75 C-29.25,-5.75 29.25,-5.75 29.25,-5.75z"/></g><g opacity="1" transform="matrix(1,0,0,1,377.75,57.25)"><path fill="rgb(229,183,0)" fill-opacity="1" d=" M29.25,-5.75 C29.25,-5.75 29.25,5.75 29.25,5.75 C29.25,5.75 -29.25,5.75 -29.25,5.75 C-29.25,5.75 -29.25,-5.75 -29.25,-5.75 C-29.25,-5.75 29.25,-5.75 29.25,-5.75z"/><path stroke-linecap="butt" stroke-linejoin="miter" fill-opacity="0" stroke-miterlimit="4" stroke="rgb(0,0,0)" stroke-opacity="1" stroke-width="0" d=" M29.25,-5.75 C29.25,-5.75 29.25,5.75 29.25,5.75 C29.25,5.75 -29.25,5.75 -29.25,5.75 C-29.25,5.75 -29.25,-5.75 -29.25,-5.75 C-29.25,-5.75 29.25,-5.75 29.25,-5.75z"/></g><g opacity="1" transform="matrix(1,0,0,1,377.75,229.25)"><path fill="rgb(229,183,0)" fill-opacity="1" d=" M29.25,-5.75 C29.25,-5.75 29.25,5.75 29.25,5.75 C29.25,5.75 -29.25,5.75 -29.25,5.75 C-29.25,5.75 -29.25,-5.75 -29.25,-5.75 C-29.25,-5.75 29.25,-5.75 29.25,-5.75z"/><path stroke-linecap="butt" stroke-linejoin="miter" fill-opacity="0" stroke-miterlimit="4" stroke="rgb(0,0,0)" stroke-opacity="1" stroke-width="0" d=" M29.25,-5.75 C29.25,-5.75 29.25,5.75 29.25,5.75 C29.25,5.75 -29.25,5.75 -29.25,5.75 C-29.25,5.75 -29.25,-5.75 -29.25,-5.75 C-29.25,-5.75 29.25,-5.75 29.25,-5.75z"/></g><g opacity="1" transform="matrix(1,0,0,1,377.75,98.25)"><path fill="rgb(229,183,0)" fill-opacity="1" d=" M29.25,-5.75 C29.25,-5.75 29.25,5.75 29.25,5.75 C29.25,5.75 -29.25,5.75 -29.25,5.75 C-29.25,5.75 -29.25,-5.75 -29.25,-5.75 C-29.25,-5.75 29.25,-5.75 29.25,-5.75z"/><path stroke-linecap="butt" stroke-linejoin="miter" fill-opacity="0" stroke-miterlimit="4" stroke="rgb(0,0,0)" stroke-opacity="1" stroke-width="0" d=" M29.25,-5.75 C29.25,-5.75 29.25,5.75 29.25,5.75 C29.25,5.75 -29.25,5.75 -29.25,5.75 C-29.25,5.75 -29.25,-5.75 -29.25,-5.75 C-29.25,-5.75 29.25,-5.75 29.25,-5.75z"/></g><g opacity="1" transform="matrix(1,0,0,1,333.75,275.5)"><path fill="rgb(229,183,0)" fill-opacity="1" d=" M11.75,-5 C11.75,-5 11.75,5 11.75,5 C11.75,5 -11.75,5 -11.75,5 C-11.75,5 -11.75,-5 -11.75,-5 C-11.75,-5 11.75,-5 11.75,-5z"/><path stroke-linecap="butt" stroke-linejoin="miter" fill-opacity="0" stroke-miterlimit="4" stroke="rgb(0,0,0)" stroke-opacity="1" stroke-width="0" d=" M11.75,-5 C11.75,-5 11.75,5 11.75,5 C11.75,5 -11.75,5 -11.75,5 C-11.75,5 -11.75,-5 -11.75,-5 C-11.75,-5 11.75,-5 11.75,-5z"/></g><g opacity="1" transform="matrix(1,0,0,1,333.75,349.5)"><path fill="rgb(229,183,0)" fill-opacity="1" d=" M11.75,-5 C11.75,-5 11.75,5 11.75,5 C11.75,5 -11.75,5 -11.75,5 C-11.75,5 -11.75,-5 -11.75,-5 C-11.75,-5 11.75,-5 11.75,-5z"/><path stroke-linecap="butt" stroke-linejoin="miter" fill-opacity="0" stroke-miterlimit="4" stroke="rgb(0,0,0)" stroke-opacity="1" stroke-width="0" d=" M11.75,-5 C11.75,-5 11.75,5 11.75,5 C11.75,5 -11.75,5 -11.75,5 C-11.75,5 -11.75,-5 -11.75,-5 C-11.75,-5 11.75,-5 11.75,-5z"/></g><g opacity="1" transform="matrix(1,0,0,1,333.75,314.5)"><path fill="rgb(229,183,0)" fill-opacity="1" d=" M11.75,-5 C11.75,-5 11.75,5 11.75,5 C11.75,5 -11.75,5 -11.75,5 C-11.75,5 -11.75,-5 -11.75,-5 C-11.75,-5 11.75,-5 11.75,-5z"/><path stroke-linecap="butt" stroke-linejoin="miter" fill-opacity="0" stroke-miterlimit="4" stroke="rgb(0,0,0)" stroke-opacity="1" stroke-width="0" d=" M11.75,-5 C11.75,-5 11.75,5 11.75,5 C11.75,5 -11.75,5 -11.75,5 C-11.75,5 -11.75,-5 -11.75,-5 C-11.75,-5 11.75,-5 11.75,-5z"/></g><g opacity="1" transform="matrix(1,0,0,1,333.75,388.5)"><path fill="rgb(229,183,0)" fill-opacity="1" d=" M11.75,-5 C11.75,-5 11.75,5 11.75,5 C11.75,5 -11.75,5 -11.75,5 C-11.75,5 -11.75,-5 -11.75,-5 C-11.75,-5 11.75,-5 11.75,-5z"/><path stroke-linecap="butt" stroke-linejoin="miter" fill-opacity="0" stroke-miterlimit="4" stroke="rgb(0,0,0)" stroke-opacity="1" stroke-width="0" d=" M11.75,-5 C11.75,-5 11.75,5 11.75,5 C11.75,5 -11.75,5 -11.75,5 C-11.75,5 -11.75,-5 -11.75,-5 C-11.75,-5 11.75,-5 11.75,-5z"/></g><g opacity="1" transform="matrix(1,0,0,1,331.25,188)"><path fill="rgb(229,183,0)" fill-opacity="1" d=" M11.75,-5 C11.75,-5 11.75,5 11.75,5 C11.75,5 -11.75,5 -11.75,5 C-11.75,5 -11.75,-5 -11.75,-5 C-11.75,-5 11.75,-5 11.75,-5z"/><path stroke-linecap="butt" stroke-linejoin="miter" fill-opacity="0" stroke-miterlimit="4" stroke="rgb(0,0,0)" stroke-opacity="1" stroke-width="0" d=" M11.75,-5 C11.75,-5 11.75,5 11.75,5 C11.75,5 -11.75,5 -11.75,5 C-11.75,5 -11.75,-5 -11.75,-5 C-11.75,-5 11.75,-5 11.75,-5z"/></g><g opacity="1" transform="matrix(1,0,0,1,331.25,57)"><path fill="rgb(229,183,0)" fill-opacity="1" d=" M11.75,-5 C11.75,-5 11.75,5 11.75,5 C11.75,5 -11.75,5 -11.75,5 C-11.75,5 -11.75,-5 -11.75,-5 C-11.75,-5 11.75,-5 11.75,-5z"/><path stroke-linecap="butt" stroke-linejoin="miter" fill-opacity="0" stroke-miterlimit="4" stroke="rgb(0,0,0)" stroke-opacity="1" stroke-width="0" d=" M11.75,-5 C11.75,-5 11.75,5 11.75,5 C11.75,5 -11.75,5 -11.75,5 C-11.75,5 -11.75,-5 -11.75,-5 C-11.75,-5 11.75,-5 11.75,-5z"/></g><g opacity="1" transform="matrix(1,0,0,1,331.25,229)"><path fill="rgb(229,183,0)" fill-opacity="1" d=" M11.75,-5 C11.75,-5 11.75,5 11.75,5 C11.75,5 -11.75,5 -11.75,5 C-11.75,5 -11.75,-5 -11.75,-5 C-11.75,-5 11.75,-5 11.75,-5z"/><path stroke-linecap="butt" stroke-linejoin="miter" fill-opacity="0" stroke-miterlimit="4" stroke="rgb(0,0,0)" stroke-opacity="1" stroke-width="0" d=" M11.75,-5 C11.75,-5 11.75,5 11.75,5 C11.75,5 -11.75,5 -11.75,5 C-11.75,5 -11.75,-5 -11.75,-5 C-11.75,-5 11.75,-5 11.75,-5z"/></g><g opacity="1" transform="matrix(1,0,0,1,331.25,98)"><path fill="rgb(229,183,0)" fill-opacity="1" d=" M11.75,-5 C11.75,-5 11.75,5 11.75,5 C11.75,5 -11.75,5 -11.75,5 C-11.75,5 -11.75,-5 -11.75,-5 C-11.75,-5 11.75,-5 11.75,-5z"/><path stroke-linecap="butt" stroke-linejoin="miter" fill-opacity="0" stroke-miterlimit="4" stroke="rgb(0,0,0)" stroke-opacity="1" stroke-width="0" d=" M11.75,-5 C11.75,-5 11.75,5 11.75,5 C11.75,5 -11.75,5 -11.75,5 C-11.75,5 -11.75,-5 -11.75,-5 C-11.75,-5 11.75,-5 11.75,-5z"/></g><g opacity="1" transform="matrix(1,0,0,1,423.5,277)"><path fill="rgb(229,183,0)" fill-opacity="1" d=" M9,-4.5 C9,-4.5 9,4.5 9,4.5 C9,4.5 -9,4.5 -9,4.5 C-9,4.5 -9,-4.5 -9,-4.5 C-9,-4.5 9,-4.5 9,-4.5z"/><path stroke-linecap="butt" stroke-linejoin="miter" fill-opacity="0" stroke-miterlimit="4" stroke="rgb(0,0,0)" stroke-opacity="1" stroke-width="0" d=" M9,-4.5 C9,-4.5 9,4.5 9,4.5 C9,4.5 -9,4.5 -9,4.5 C-9,4.5 -9,-4.5 -9,-4.5 C-9,-4.5 9,-4.5 9,-4.5z"/></g><g opacity="1" transform="matrix(1,0,0,1,423.5,351)"><path fill="rgb(229,183,0)" fill-opacity="1" d=" M9,-4.5 C9,-4.5 9,4.5 9,4.5 C9,4.5 -9,4.5 -9,4.5 C-9,4.5 -9,-4.5 -9,-4.5 C-9,-4.5 9,-4.5 9,-4.5z"/><path stroke-linecap="butt" stroke-linejoin="miter" fill-opacity="0" stroke-miterlimit="4" stroke="rgb(0,0,0)" stroke-opacity="1" stroke-width="0" d=" M9,-4.5 C9,-4.5 9,4.5 9,4.5 C9,4.5 -9,4.5 -9,4.5 C-9,4.5 -9,-4.5 -9,-4.5 C-9,-4.5 9,-4.5 9,-4.5z"/></g><g opacity="1" transform="matrix(1,0,0,1,423.5,316)"><path fill="rgb(229,183,0)" fill-opacity="1" d=" M9,-4.5 C9,-4.5 9,4.5 9,4.5 C9,4.5 -9,4.5 -9,4.5 C-9,4.5 -9,-4.5 -9,-4.5 C-9,-4.5 9,-4.5 9,-4.5z"/><path stroke-linecap="butt" stroke-linejoin="miter" fill-opacity="0" stroke-miterlimit="4" stroke="rgb(0,0,0)" stroke-opacity="1" stroke-width="0" d=" M9,-4.5 C9,-4.5 9,4.5 9,4.5 C9,4.5 -9,4.5 -9,4.5 C-9,4.5 -9,-4.5 -9,-4.5 C-9,-4.5 9,-4.5 9,-4.5z"/></g><g opacity="1" transform="matrix(1,0,0,1,423.5,390)"><path fill="rgb(229,183,0)" fill-opacity="1" d=" M9,-4.5 C9,-4.5 9,4.5 9,4.5 C9,4.5 -9,4.5 -9,4.5 C-9,4.5 -9,-4.5 -9,-4.5 C-9,-4.5 9,-4.5 9,-4.5z"/><path stroke-linecap="butt" stroke-linejoin="miter" fill-opacity="0" stroke-miterlimit="4" stroke="rgb(0,0,0)" stroke-opacity="1" stroke-width="0" d=" M9,-4.5 C9,-4.5 9,4.5 9,4.5 C9,4.5 -9,4.5 -9,4.5 C-9,4.5 -9,-4.5 -9,-4.5 C-9,-4.5 9,-4.5 9,-4.5z"/></g><g opacity="1" transform="matrix(1,0,0,1,421,189.5)"><path fill="rgb(229,183,0)" fill-opacity="1" d=" M9,-4.5 C9,-4.5 9,4.5 9,4.5 C9,4.5 -9,4.5 -9,4.5 C-9,4.5 -9,-4.5 -9,-4.5 C-9,-4.5 9,-4.5 9,-4.5z"/><path stroke-linecap="butt" stroke-linejoin="miter" fill-opacity="0" stroke-miterlimit="4" stroke="rgb(0,0,0)" stroke-opacity="1" stroke-width="0" d=" M9,-4.5 C9,-4.5 9,4.5 9,4.5 C9,4.5 -9,4.5 -9,4.5 C-9,4.5 -9,-4.5 -9,-4.5 C-9,-4.5 9,-4.5 9,-4.5z"/></g><g opacity="1" transform="matrix(1,0,0,1,421,58.5)"><path fill="rgb(229,183,0)" fill-opacity="1" d=" M9,-4.5 C9,-4.5 9,4.5 9,4.5 C9,4.5 -9,4.5 -9,4.5 C-9,4.5 -9,-4.5 -9,-4.5 C-9,-4.5 9,-4.5 9,-4.5z"/><path stroke-linecap="butt" stroke-linejoin="miter" fill-opacity="0" stroke-miterlimit="4" stroke="rgb(0,0,0)" stroke-opacity="1" stroke-width="0" d=" M9,-4.5 C9,-4.5 9,4.5 9,4.5 C9,4.5 -9,4.5 -9,4.5 C-9,4.5 -9,-4.5 -9,-4.5 C-9,-4.5 9,-4.5 9,-4.5z"/></g><g opacity="1" transform="matrix(1,0,0,1,421,230.5)"><path fill="rgb(229,183,0)" fill-opacity="1" d=" M9,-4.5 C9,-4.5 9,4.5 9,4.5 C9,4.5 -9,4.5 -9,4.5 C-9,4.5 -9,-4.5 -9,-4.5 C-9,-4.5 9,-4.5 9,-4.5z"/><path stroke-linecap="butt" stroke-linejoin="miter" fill-opacity="0" stroke-miterlimit="4" stroke="rgb(0,0,0)" stroke-opacity="1" stroke-width="0" d=" M9,-4.5 C9,-4.5 9,4.5 9,4.5 C9,4.5 -9,4.5 -9,4.5 C-9,4.5 -9,-4.5 -9,-4.5 C-9,-4.5 9,-4.5 9,-4.5z"/></g><g opacity="1" transform="matrix(1,0,0,1,421,99.5)"><path fill="rgb(229,183,0)" fill-opacity="1" d=" M9,-4.5 C9,-4.5 9,4.5 9,4.5 C9,4.5 -9,4.5 -9,4.5 C-9,4.5 -9,-4.5 -9,-4.5 C-9,-4.5 9,-4.5 9,-4.5z"/><path stroke-linecap="butt" stroke-linejoin="miter" fill-opacity="0" stroke-miterlimit="4" stroke="rgb(0,0,0)" stroke-opacity="1" stroke-width="0" d=" M9,-4.5 C9,-4.5 9,4.5 9,4.5 C9,4.5 -9,4.5 -9,4.5 C-9,4.5 -9,-4.5 -9,-4.5 C-9,-4.5 9,-4.5 9,-4.5z"/></g></g><g transform="matrix(1,0,0,1,751,540)" opacity="1" style="display: block;"><path stroke-linecap="round" stroke-linejoin="round" fill-opacity="0" stroke="rgb(52,52,52)" stroke-opacity="1" stroke-width="15" d="M0 0"/><g opacity="1" transform="matrix(1,0,0,1,0,0)"><path stroke-linecap="round" stroke-linejoin="round" fill-opacity="0" stroke="rgb(51,204,102)" stroke-opacity="1" stroke-width="8" d="M0 0"/></g></g><g transform="matrix(0.670661449432373,-0.7417635917663574,1.1126453876495361,1.0059921741485596,545.9205322265625,-106.6365966796875)" opacity="1" style="display: block;"><g opacity="1" transform="matrix(1,0,0,1,-261,152)"><path fill="rgb(51,204,102)" fill-opacity="1" d=" M47,-18 C47,-18 47,18 47,18 C47,34.00510025024414 34.00510025024414,47 18,47 C18,47 -18,47 -18,47 C-34.00510025024414,47 -47,34.00510025024414 -47,18 C-47,18 -47,-18 -47,-18 C-47,-34.00510025024414 -34.00510025024414,-47 -18,-47 C-18,-47 18,-47 18,-47 C34.00510025024414,-47 47,-34.00510025024414 47,-18z"/><path stroke-linecap="round" stroke-linejoin="round" fill-opacity="0" stroke-dasharray=" 65 28" stroke-dashoffset="799" stroke="rgb(51,51,51)" stroke-opacity="1" stroke-width="5" d=" M47,-18 C47,-18 47,18 47,18 C47,34.00510025024414 34.00510025024414,47 18,47 C18,47 -18,47 -18,47 C-34.00510025024414,47 -47,34.00510025024414 -47,18 C-47,18 -47,-18 -47,-18 C-47,-34.00510025024414 -34.00510025024414,-47 -18,-47 C-18,-47 18,-47 18,-47 C34.00510025024414,-47 47,-34.00510025024414 47,-18z"/></g></g><g transform="matrix(1,0,0,0.3185200095176697,0,936.9992065429688)" opacity="1" style="display: block;"><rect width="1080" height="1080" fill="#ffffff"/></g><g transform="matrix(0.670661449432373,-0.7417635917663574,1.1126453876495361,1.0059921741485596,536.2730712890625,-109.2427978515625)" opacity="1" style="display: block;"><g opacity="1" transform="matrix(1,0,0,1,-247.5,145.75)"><path fill="rgb(51,51,51)" fill-opacity="1" d=" M6,-4.25 C6,-4.25 6,4.25 6,4.25 C6,7.561399936676025 3.3113999366760254,10.25 0,10.25 C0,10.25 0,10.25 0,10.25 C-3.3113999366760254,10.25 -6,7.561399936676025 -6,4.25 C-6,4.25 -6,-4.25 -6,-4.25 C-6,-7.561399936676025 -3.3113999366760254,-10.25 0,-10.25 C0,-10.25 0,-10.25 0,-10.25 C3.3113999366760254,-10.25 6,-7.561399936676025 6,-4.25z"/></g><g opacity="1" transform="matrix(1,0,0,1,-228.25,145.75)"><path fill="rgb(51,51,51)" fill-opacity="1" d=" M6,-4.25 C6,-4.25 6,4.25 6,4.25 C6,7.561399936676025 3.3113999366760254,10.25 0,10.25 C0,10.25 0,10.25 0,10.25 C-3.3113999366760254,10.25 -6,7.561399936676025 -6,4.25 C-6,4.25 -6,-4.25 -6,-4.25 C-6,-7.561399936676025 -3.3113999366760254,-10.25 0,-10.25 C0,-10.25 0,-10.25 0,-10.25 C3.3113999366760254,-10.25 6,-7.561399936676025 6,-4.25z"/></g></g><g transform="matrix(1,0,0,1,540,540)" opacity="1" style="display: block;"><g opacity="1" transform="matrix(1,0,0,1,0,0)"><path stroke-linecap="round" stroke-linejoin="miter" fill-opacity="0" stroke-miterlimit="4" stroke-dasharray=" 217 26" stroke-dashoffset="784" stroke="rgb(0,0,0)" stroke-opacity="1" stroke-width="10" d=" M-540,399 C-540,399 542,400 542,400"/></g></g><g transform="matrix(0.000006517740985145792,-0.0000011492535350043909,0.0000011492535350043909,0.000006517740985145792,582.06640625,849.8920288085938)" opacity="1" style="display: block;"><g opacity="1" transform="matrix(1,0,0,1,0,0)"><path fill="rgb(255,0,0)" fill-opacity="1" d=" M-214.5780029296875,-11 C-214.5780029296875,-11 -205.29100036621094,-11 -205.29100036621094,-11 C-205.29100036621094,-11 -205.29100036621094,-20.28700065612793 -205.29100036621094,-20.28700065612793 C-205.29100036621094,-20.28700065612793 -214.5780029296875,-20.28700065612793 -214.5780029296875,-20.28700065612793 C-214.5780029296875,-20.28700065612793 -214.5780029296875,-11 -214.5780029296875,-11z M-213.52699279785156,-27.208999633789062 C-213.52699279785156,-27.208999633789062 -206.34300231933594,-27.208999633789062 -206.34300231933594,-27.208999633789062 C-206.34300231933594,-27.208999633789062 -205.11599731445312,-46.74700164794922 -205.11599731445312,-46.74700164794922 C-205.11599731445312,-46.74700164794922 -205.11599731445312,-72.33100128173828 -205.11599731445312,-72.33100128173828 C-205.11599731445312,-72.33100128173828 -214.75399780273438,-72.33100128173828 -214.75399780273438,-72.33100128173828 C-214.75399780273438,-72.33100128173828 -214.75399780273438,-46.74700164794922 -214.75399780273438,-46.74700164794922 C-214.75399780273438,-46.74700164794922 -213.52699279785156,-27.208999633789062 -213.52699279785156,-27.208999633789062z"/></g></g><g transform="matrix(1,0,0,1,885,540)" opacity="1" style="display: block;"><g opacity="1" transform="matrix(1,0,0,1,0,0)"><path stroke-linecap="round" stroke-linejoin="miter" fill-opacity="0" stroke-miterlimit="4" stroke="rgb(51,204,102)" stroke-opacity="1" stroke-width="8" d="M0 0"/></g></g><g transform="matrix(1,0,0,1,885,247)" opacity="1" style="display: block;"><g opacity="1" transform="matrix(1,0,0,1,0,0)"><path stroke-linecap="round" stroke-linejoin="miter" fill-opacity="0" stroke-miterlimit="4" stroke="rgb(51,204,102)" stroke-opacity="1" stroke-width="8" d=" M-401.79901123046875,-88.75299835205078 C-401.8630065917969,-105.11000061035156 -401.9150085449219,-118.26699829101562 -401.95001220703125,-127.15299987792969"/></g></g><g transform="matrix(1,0,0,1,989,247)" opacity="1" style="display: block;"><g opacity="1" transform="matrix(1,0,0,1,0,0)"><path stroke-linecap="round" stroke-linejoin="miter" fill-opacity="0" stroke-miterlimit="4" stroke="rgb(51,204,102)" stroke-opacity="1" stroke-width="8" d=" M-401.95001220703125,-127.15299987792969 C-401.97601318359375,-133.9340057373047 -401.9930114746094,-138.2270050048828 -401.99798583984375,-139.5570068359375"/></g></g><g transform="matrix(1,0,0,1,559,-426)" opacity="0.5" style="display: block;"><g opacity="1" transform="matrix(1,0,0,1,0,0)"><path fill="rgb(255,230,128)" fill-opacity="1" d=" M6,-780 C6,-780 -5,400.5 -5,400.5 C-5,400.5 -2,398 -2,398 C-2,398 4,-786 4,-786 C4,-786 6,-780 6,-780z"/></g></g><g transform="matrix(1,0,0,1,544,540)" opacity="0.5" style="display: block;"><g opacity="1" transform="matrix(1,0,0,1,0,0)"><path fill="rgb(255,230,128)" fill-opacity="1" d=" M-40,-556 C-40,-556 -168.35899353027344,405.6860046386719 -168.35899353027344,405.6860046386719 C-168.35899353027344,405.6860046386719 136.96400451660156,404.9880065917969 136.96400451660156,404.9880065917969 C136.96400451660156,404.9880065917969 42,-556 42,-556 C42,-556 -40,-556 -40,-556z"/></g></g><g transform="matrix(1,0,0,1,905,540)" opacity="1" style="display: block;"><g opacity="1" transform="matrix(1,0,0,1,0,0)"><path stroke-linecap="round" stroke-linejoin="miter" fill-opacity="0" stroke-miterlimit="4" stroke="rgb(51,204,102)" stroke-opacity="1" stroke-width="8" d="M0 0"/></g></g><g transform="matrix(1,0,0,1,962,540)" opacity="1" style="display: block;"><g opacity="1" transform="matrix(1,0,0,1,0,0)"><path stroke-linecap="round" stroke-linejoin="miter" fill-opacity="0" stroke-miterlimit="4" stroke="rgb(51,204,102)" stroke-opacity="1" stroke-width="8" d="M0 0"/></g></g><g transform="matrix(1,0,0,1,539,832)" opacity="1" style="display: block;"><g opacity="1" transform="matrix(1,0,0,1,0,0)"><path stroke-linecap="round" stroke-linejoin="miter" fill-opacity="0" stroke-miterlimit="4" stroke="rgb(51,204,102)" stroke-opacity="1" stroke-width="8" d="M0 0"/></g></g><g transform="matrix(1,0,0,1,885,540)" opacity="1" style="display: block;"><g opacity="1" transform="matrix(1,0,0,1,-136,-221)"><path stroke-linecap="butt" stroke-linejoin="miter" fill-opacity="0" stroke-miterlimit="4" stroke="rgb(51,204,102)" stroke-opacity="1" stroke-width="8" d="M0 0"/></g></g><g style="display: none;"><g><path/></g><g><path/></g><g><path/></g><g><path/></g><g><path/></g></g></g></svg>