<svg xmlns="http://www.w3.org/2000/svg" xmlns:xlink="http://www.w3.org/1999/xlink" viewBox="0 0 1080 1080" width="980" height="300" preserveAspectRatio="xMidYMid meet" style="width: 100%; height: 100%; transform: translate3d(0px, 0px, 0px); content-visibility: visible;" id="Slime Jump Mini Games"><defs><clipPath id="__lottie_element_634" values="0;5;0" dur="10s" repeatCount="indefinite" ><rect width="1080" height="1080" x="0" y="0"/></clipPath><clipPath id="__lottie_element_649"><path d="M0,0 L2080,0 L2080,1080 L0,1080z"/></clipPath></defs><g clip-path="url(#__lottie_element_634)"><g clip-path="url(#__lottie_element_649)" transform="matrix(1,0,0,1,-443.5828857421875,10.810546875)" opacity="1" style="display: block;"><g transform="matrix(0.44402000308036804,0,0,0.44402000308036804,1305.7640380859375,275.1212158203125)" opacity="0.7000000000000001" style="display: block;"><g opacity="1" transform="matrix(1,0,0,1,-91,-84)"><path fill="rgb(237,237,237)" fill-opacity="1" d=" M259,0 C259,0 259,0 259,0 C259,45.25579833984375 222.25579833984375,82 177,82 C177,82 -177,82 -177,82 C-222.25579833984375,82 -259,45.25579833984375 -259,0 C-259,0 -259,0 -259,0 C-259,-45.25579833984375 -222.25579833984375,-82 -177,-82 C-177,-82 177,-82 177,-82 C222.25579833984375,-82 259,-45.25579833984375 259,0z"/></g><g opacity="1" transform="matrix(1,0,0,1,-194,-156)"><path fill="rgb(237,237,237)" fill-opacity="1" d=" M0,-108 C59.605201721191406,-108 108,-59.605201721191406 108,0 C108,59.605201721191406 59.605201721191406,108 0,108 C-59.605201721191406,108 -108,59.605201721191406 -108,0 C-108,-59.605201721191406 -59.605201721191406,-108 0,-108z"/></g><g opacity="1" transform="matrix(1,0,0,1,-44,-154)"><path fill="rgb(237,237,237)" fill-opacity="1" d=" M0,-108 C59.605201721191406,-108 108,-59.605201721191406 108,0 C108,59.605201721191406 59.605201721191406,108 0,108 C-59.605201721191406,108 -108,59.605201721191406 -108,0 C-108,-59.605201721191406 -59.605201721191406,-108 0,-108z"/></g><g opacity="1" transform="matrix(0.7254899740219116,0,0,0.7254899740219116,-82,-252)"><path fill="rgb(237,237,237)" fill-opacity="1" d=" M0,-108 C59.605201721191406,-108 108,-59.605201721191406 108,0 C108,59.605201721191406 59.605201721191406,108 0,108 C-59.605201721191406,108 -108,59.605201721191406 -108,0 C-108,-59.605201721191406 -59.605201721191406,-108 0,-108z"/></g></g><g transform="matrix(1,0,0,1,1253.30908203125,460.5628356933594)" opacity="1" style="display: block;"><g opacity="1" transform="matrix(1,0,0,1,-91,-84)"><path fill="rgb(237,237,237)" fill-opacity="1" d=" M259,0 C259,0 259,0 259,0 C259,45.25579833984375 222.25579833984375,82 177,82 C177,82 -177,82 -177,82 C-222.25579833984375,82 -259,45.25579833984375 -259,0 C-259,0 -259,0 -259,0 C-259,-45.25579833984375 -222.25579833984375,-82 -177,-82 C-177,-82 177,-82 177,-82 C222.25579833984375,-82 259,-45.25579833984375 259,0z"/></g><g opacity="1" transform="matrix(1,0,0,1,-194,-156)"><path fill="rgb(237,237,237)" fill-opacity="1" d=" M0,-108 C59.605201721191406,-108 108,-59.605201721191406 108,0 C108,59.605201721191406 59.605201721191406,108 0,108 C-59.605201721191406,108 -108,59.605201721191406 -108,0 C-108,-59.605201721191406 -59.605201721191406,-108 0,-108z"/></g><g opacity="1" transform="matrix(1,0,0,1,-44,-154)"><path fill="rgb(237,237,237)" fill-opacity="1" d=" M0,-108 C59.605201721191406,-108 108,-59.605201721191406 108,0 C108,59.605201721191406 59.605201721191406,108 0,108 C-59.605201721191406,108 -108,59.605201721191406 -108,0 C-108,-59.605201721191406 -59.605201721191406,-108 0,-108z"/></g><g opacity="1" transform="matrix(0.7254899740219116,0,0,0.7254899740219116,-82,-252)"><path fill="rgb(237,237,237)" fill-opacity="1" d=" M0,-108 C59.605201721191406,-108 108,-59.605201721191406 108,0 C108,59.605201721191406 59.605201721191406,108 0,108 C-59.605201721191406,108 -108,59.605201721191406 -108,0 C-108,-59.605201721191406 -59.605201721191406,-108 0,-108z"/></g></g><g transform="matrix(0.6293399930000305,0,0,0.6293399930000305,448.954833984375,566.1063232421875)" opacity="1" style="display: block;"><g opacity="1" transform="matrix(1,0,0,1,-91,-84)"><path fill="rgb(237,237,237)" fill-opacity="1" d=" M259,0 C259,0 259,0 259,0 C259,45.25579833984375 222.25579833984375,82 177,82 C177,82 -177,82 -177,82 C-222.25579833984375,82 -259,45.25579833984375 -259,0 C-259,0 -259,0 -259,0 C-259,-45.25579833984375 -222.25579833984375,-82 -177,-82 C-177,-82 177,-82 177,-82 C222.25579833984375,-82 259,-45.25579833984375 259,0z"/></g><g opacity="1" transform="matrix(1,0,0,1,-194,-156)"><path fill="rgb(237,237,237)" fill-opacity="1" d=" M0,-108 C59.605201721191406,-108 108,-59.605201721191406 108,0 C108,59.605201721191406 59.605201721191406,108 0,108 C-59.605201721191406,108 -108,59.605201721191406 -108,0 C-108,-59.605201721191406 -59.605201721191406,-108 0,-108z"/></g><g opacity="1" transform="matrix(1,0,0,1,-44,-154)"><path fill="rgb(237,237,237)" fill-opacity="1" d=" M0,-108 C59.605201721191406,-108 108,-59.605201721191406 108,0 C108,59.605201721191406 59.605201721191406,108 0,108 C-59.605201721191406,108 -108,59.605201721191406 -108,0 C-108,-59.605201721191406 -59.605201721191406,-108 0,-108z"/></g><g opacity="1" transform="matrix(0.7254899740219116,0,0,0.7254899740219116,-82,-252)"><path fill="rgb(237,237,237)" fill-opacity="1" d=" M0,-108 C59.605201721191406,-108 108,-59.605201721191406 108,0 C108,59.605201721191406 59.605201721191406,108 0,108 C-59.605201721191406,108 -108,59.605201721191406 -108,0 C-108,-59.605201721191406 -59.605201721191406,-108 0,-108z"/></g></g><g transform="matrix(0.6293399930000305,0,0,0.6293399930000305,448.9548645019531,566.1063842773438)" opacity="1" style="display: block;"><g opacity="1" transform="matrix(1,0,0,1,-91,-84)"><path fill="rgb(237,237,237)" fill-opacity="1" d=" M259,0 C259,0 259,0 259,0 C259,45.25579833984375 222.25579833984375,82 177,82 C177,82 -177,82 -177,82 C-222.25579833984375,82 -259,45.25579833984375 -259,0 C-259,0 -259,0 -259,0 C-259,-45.25579833984375 -222.25579833984375,-82 -177,-82 C-177,-82 177,-82 177,-82 C222.25579833984375,-82 259,-45.25579833984375 259,0z"/></g><g opacity="1" transform="matrix(1,0,0,1,-194,-156)"><path fill="rgb(237,237,237)" fill-opacity="1" d=" M0,-108 C59.605201721191406,-108 108,-59.605201721191406 108,0 C108,59.605201721191406 59.605201721191406,108 0,108 C-59.605201721191406,108 -108,59.605201721191406 -108,0 C-108,-59.605201721191406 -59.605201721191406,-108 0,-108z"/></g><g opacity="1" transform="matrix(1,0,0,1,-44,-154)"><path fill="rgb(237,237,237)" fill-opacity="1" d=" M0,-108 C59.605201721191406,-108 108,-59.605201721191406 108,0 C108,59.605201721191406 59.605201721191406,108 0,108 C-59.605201721191406,108 -108,59.605201721191406 -108,0 C-108,-59.605201721191406 -59.605201721191406,-108 0,-108z"/></g><g opacity="1" transform="matrix(0.7254899740219116,0,0,0.7254899740219116,-82,-252)"><path fill="rgb(237,237,237)" fill-opacity="1" d=" M0,-108 C59.605201721191406,-108 108,-59.605201721191406 108,0 C108,59.605201721191406 59.605201721191406,108 0,108 C-59.605201721191406,108 -108,59.605201721191406 -108,0 C-108,-59.605201721191406 -59.605201721191406,-108 0,-108z"/></g></g><g transform="matrix(0.7105299830436707,0,0,0.7105299830436707,864.2377319335938,264.9125061035156)" opacity="1" style="display: block;"><g opacity="1" transform="matrix(1,0,0,1,-91,-84)"><path fill="rgb(237,237,237)" fill-opacity="1" d=" M259,0 C259,0 259,0 259,0 C259,45.25579833984375 222.25579833984375,82 177,82 C177,82 -177,82 -177,82 C-222.25579833984375,82 -259,45.25579833984375 -259,0 C-259,0 -259,0 -259,0 C-259,-45.25579833984375 -222.25579833984375,-82 -177,-82 C-177,-82 177,-82 177,-82 C222.25579833984375,-82 259,-45.25579833984375 259,0z"/></g><g opacity="1" transform="matrix(1,0,0,1,-194,-156)"><path fill="rgb(237,237,237)" fill-opacity="1" d=" M0,-108 C59.605201721191406,-108 108,-59.605201721191406 108,0 C108,59.605201721191406 59.605201721191406,108 0,108 C-59.605201721191406,108 -108,59.605201721191406 -108,0 C-108,-59.605201721191406 -59.605201721191406,-108 0,-108z"/></g><g opacity="1" transform="matrix(1,0,0,1,-44,-154)"><path fill="rgb(237,237,237)" fill-opacity="1" d=" M0,-108 C59.605201721191406,-108 108,-59.605201721191406 108,0 C108,59.605201721191406 59.605201721191406,108 0,108 C-59.605201721191406,108 -108,59.605201721191406 -108,0 C-108,-59.605201721191406 -59.605201721191406,-108 0,-108z"/></g><g opacity="1" transform="matrix(0.7254899740219116,0,0,0.7254899740219116,-82,-252)"><path fill="rgb(237,237,237)" fill-opacity="1" d=" M0,-108 C59.605201721191406,-108 108,-59.605201721191406 108,0 C108,59.605201721191406 59.605201721191406,108 0,108 C-59.605201721191406,108 -108,59.605201721191406 -108,0 C-108,-59.605201721191406 -59.605201721191406,-108 0,-108z"/></g></g><g transform="matrix(0.33590999245643616,0,0,0.33590999245643616,1511.139892578125,455.00250244140625)" opacity="0.5" style="display: block;"><g opacity="1" transform="matrix(1,0,0,1,-91,-84)"><path fill="rgb(237,237,237)" fill-opacity="1" d=" M259,0 C259,0 259,0 259,0 C259,45.25579833984375 222.25579833984375,82 177,82 C177,82 -177,82 -177,82 C-222.25579833984375,82 -259,45.25579833984375 -259,0 C-259,0 -259,0 -259,0 C-259,-45.25579833984375 -222.25579833984375,-82 -177,-82 C-177,-82 177,-82 177,-82 C222.25579833984375,-82 259,-45.25579833984375 259,0z"/></g><g opacity="1" transform="matrix(1,0,0,1,-194,-156)"><path fill="rgb(237,237,237)" fill-opacity="1" d=" M0,-108 C59.605201721191406,-108 108,-59.605201721191406 108,0 C108,59.605201721191406 59.605201721191406,108 0,108 C-59.605201721191406,108 -108,59.605201721191406 -108,0 C-108,-59.605201721191406 -59.605201721191406,-108 0,-108z"/></g><g opacity="1" transform="matrix(1,0,0,1,-44,-154)"><path fill="rgb(237,237,237)" fill-opacity="1" d=" M0,-108 C59.605201721191406,-108 108,-59.605201721191406 108,0 C108,59.605201721191406 59.605201721191406,108 0,108 C-59.605201721191406,108 -108,59.605201721191406 -108,0 C-108,-59.605201721191406 -59.605201721191406,-108 0,-108z"/></g><g opacity="1" transform="matrix(0.7254899740219116,0,0,0.7254899740219116,-82,-252)"><path fill="rgb(237,237,237)" fill-opacity="1" d=" M0,-108 C59.605201721191406,-108 108,-59.605201721191406 108,0 C108,59.605201721191406 59.605201721191406,108 0,108 C-59.605201721191406,108 -108,59.605201721191406 -108,0 C-108,-59.605201721191406 -59.605201721191406,-108 0,-108z"/></g></g></g><g transform="matrix(1,0,0,1,885,540)" opacity="1" style="display: block;"><g opacity="1" transform="matrix(1,0,0,1,0,0)"><path stroke-linecap="round" stroke-linejoin="miter" fill-opacity="0" stroke-miterlimit="4" stroke="rgb(51,204,102)" stroke-opacity="1" stroke-width="10" d="M0 0"/></g><g opacity="1" transform="matrix(1,0,0,1,0,0)"><path stroke-linecap="round" stroke-linejoin="miter" fill-opacity="0" stroke-miterlimit="4" stroke="rgb(51,204,102)" stroke-opacity="1" stroke-width="10" d="M0 0"/></g></g><g transform="matrix(1,0,0,1,1097,252.6300048828125)" opacity="1" style="display: block;"><g opacity="1" transform="matrix(1,0,0,1,0,0)"><path stroke-linecap="round" stroke-linejoin="miter" fill-opacity="0" stroke-miterlimit="4" stroke="rgb(51,204,102)" stroke-opacity="1" stroke-width="10" d="M0 0"/></g><g opacity="1" transform="matrix(1,0,0,1,0,0)"><path stroke-linecap="round" stroke-linejoin="miter" fill-opacity="0" stroke-miterlimit="4" stroke="rgb(51,204,102)" stroke-opacity="1" stroke-width="10" d="M0 0"/></g></g><g transform="matrix(1,0,0,1,1304.4730224609375,542.052001953125)" opacity="1" style="display: block;"><g opacity="1" transform="matrix(1,0,0,1,0,0)"><path stroke-linecap="round" stroke-linejoin="miter" fill-opacity="0" stroke-miterlimit="4" stroke="rgb(51,204,102)" stroke-opacity="1" stroke-width="10" d="M0 0"/></g><g opacity="1" transform="matrix(1,0,0,1,0,0)"><path stroke-linecap="round" stroke-linejoin="miter" fill-opacity="0" stroke-miterlimit="4" stroke="rgb(51,204,102)" stroke-opacity="1" stroke-width="10" d="M0 0"/></g></g><g transform="matrix(1,0,0,1,739,540)" opacity="1" style="display: block;"><path stroke-linecap="round" stroke-linejoin="round" fill-opacity="0" stroke="rgb(52,52,52)" stroke-opacity="1" stroke-width="15" d="M0 0"/><g opacity="1" transform="matrix(1,0,0,1,0,0)"><path stroke-linecap="round" stroke-linejoin="miter" fill-opacity="0" stroke-miterlimit="4" stroke="rgb(45,183,91)" stroke-opacity="1" stroke-width="8" d="M0 0"/></g></g><g transform="matrix(1,0,0,1,-457,540)" opacity="1" style="display: block;"><g opacity="1" transform="matrix(1,0,0,1,376.5,247)"><path fill="rgb(51,51,51)" fill-opacity="1" d=" M61.5,-150 C61.5,-150 61.5,150 61.5,150 C61.5,150 -61.5,150 -61.5,150 C-61.5,150 -61.5,-150 -61.5,-150 C-61.5,-150 61.5,-150 61.5,-150z"/><path stroke-linecap="butt" stroke-linejoin="miter" fill-opacity="0" stroke-miterlimit="4" stroke="rgb(0,0,0)" stroke-opacity="1" stroke-width="0" d=" M61.5,-150 C61.5,-150 61.5,150 61.5,150 C61.5,150 -61.5,150 -61.5,150 C-61.5,150 -61.5,-150 -61.5,-150 C-61.5,-150 61.5,-150 61.5,-150z"/></g><g opacity="1" transform="matrix(1,0,0,1,343.75,123.25)"><path fill="rgb(229,183,0)" fill-opacity="1" d=" M25.75,-9.75 C25.75,-9.75 25.75,9.75 25.75,9.75 C25.75,9.75 -25.75,9.75 -25.75,9.75 C-25.75,9.75 -25.75,-9.75 -25.75,-9.75 C-25.75,-9.75 25.75,-9.75 25.75,-9.75z"/><path stroke-linecap="butt" stroke-linejoin="miter" fill-opacity="0" stroke-miterlimit="4" stroke="rgb(0,0,0)" stroke-opacity="1" stroke-width="0" d=" M25.75,-9.75 C25.75,-9.75 25.75,9.75 25.75,9.75 C25.75,9.75 -25.75,9.75 -25.75,9.75 C-25.75,9.75 -25.75,-9.75 -25.75,-9.75 C-25.75,-9.75 25.75,-9.75 25.75,-9.75z"/></g><g opacity="1" transform="matrix(1,0,0,1,402.5,123)"><path fill="rgb(229,183,0)" fill-opacity="1" d=" M27.5,-9.5 C27.5,-9.5 27.5,9.5 27.5,9.5 C27.5,9.5 -27.5,9.5 -27.5,9.5 C-27.5,9.5 -27.5,-9.5 -27.5,-9.5 C-27.5,-9.5 27.5,-9.5 27.5,-9.5z"/><path stroke-linecap="butt" stroke-linejoin="miter" fill-opacity="0" stroke-miterlimit="4" stroke="rgb(0,0,0)" stroke-opacity="1" stroke-width="0" d=" M27.5,-9.5 C27.5,-9.5 27.5,9.5 27.5,9.5 C27.5,9.5 -27.5,9.5 -27.5,9.5 C-27.5,9.5 -27.5,-9.5 -27.5,-9.5 C-27.5,-9.5 27.5,-9.5 27.5,-9.5z"/></g><g opacity="1" transform="matrix(1,0,0,1,335.25,147)"><path fill="rgb(229,183,0)" fill-opacity="1" d=" M17.25,-6.5 C17.25,-6.5 17.25,6.5 17.25,6.5 C17.25,6.5 -17.25,6.5 -17.25,6.5 C-17.25,6.5 -17.25,-6.5 -17.25,-6.5 C-17.25,-6.5 17.25,-6.5 17.25,-6.5z"/><path stroke-linecap="butt" stroke-linejoin="miter" fill-opacity="0" stroke-miterlimit="4" stroke="rgb(0,0,0)" stroke-opacity="1" stroke-width="0" d=" M17.25,-6.5 C17.25,-6.5 17.25,6.5 17.25,6.5 C17.25,6.5 -17.25,6.5 -17.25,6.5 C-17.25,6.5 -17.25,-6.5 -17.25,-6.5 C-17.25,-6.5 17.25,-6.5 17.25,-6.5z"/></g><g opacity="1" transform="matrix(1,0,0,1,394,148.75)"><path fill="rgb(229,183,0)" fill-opacity="1" d=" M35.5,-6.25 C35.5,-6.25 35.5,6.25 35.5,6.25 C35.5,6.25 -35.5,6.25 -35.5,6.25 C-35.5,6.25 -35.5,-6.25 -35.5,-6.25 C-35.5,-6.25 35.5,-6.25 35.5,-6.25z"/><path stroke-linecap="butt" stroke-linejoin="miter" fill-opacity="0" stroke-miterlimit="4" stroke="rgb(0,0,0)" stroke-opacity="1" stroke-width="0" d=" M35.5,-6.25 C35.5,-6.25 35.5,6.25 35.5,6.25 C35.5,6.25 -35.5,6.25 -35.5,6.25 C-35.5,6.25 -35.5,-6.25 -35.5,-6.25 C-35.5,-6.25 35.5,-6.25 35.5,-6.25z"/></g><g opacity="1" transform="matrix(1,0,0,1,404.25,255)"><path fill="rgb(229,183,0)" fill-opacity="1" d=" M30.25,-6.5 C30.25,-6.5 30.25,6.5 30.25,6.5 C30.25,6.5 -30.25,6.5 -30.25,6.5 C-30.25,6.5 -30.25,-6.5 -30.25,-6.5 C-30.25,-6.5 30.25,-6.5 30.25,-6.5z"/><path stroke-linecap="butt" stroke-linejoin="miter" fill-opacity="0" stroke-miterlimit="4" stroke="rgb(0,0,0)" stroke-opacity="1" stroke-width="0" d=" M30.25,-6.5 C30.25,-6.5 30.25,6.5 30.25,6.5 C30.25,6.5 -30.25,6.5 -30.25,6.5 C-30.25,6.5 -30.25,-6.5 -30.25,-6.5 C-30.25,-6.5 30.25,-6.5 30.25,-6.5z"/></g><g opacity="1" transform="matrix(1,0,0,1,404.25,329)"><path fill="rgb(229,183,0)" fill-opacity="1" d=" M30.25,-6.5 C30.25,-6.5 30.25,6.5 30.25,6.5 C30.25,6.5 -30.25,6.5 -30.25,6.5 C-30.25,6.5 -30.25,-6.5 -30.25,-6.5 C-30.25,-6.5 30.25,-6.5 30.25,-6.5z"/><path stroke-linecap="butt" stroke-linejoin="miter" fill-opacity="0" stroke-miterlimit="4" stroke="rgb(0,0,0)" stroke-opacity="1" stroke-width="0" d=" M30.25,-6.5 C30.25,-6.5 30.25,6.5 30.25,6.5 C30.25,6.5 -30.25,6.5 -30.25,6.5 C-30.25,6.5 -30.25,-6.5 -30.25,-6.5 C-30.25,-6.5 30.25,-6.5 30.25,-6.5z"/></g><g opacity="1" transform="matrix(1,0,0,1,404.25,294)"><path fill="rgb(229,183,0)" fill-opacity="1" d=" M30.25,-6.5 C30.25,-6.5 30.25,6.5 30.25,6.5 C30.25,6.5 -30.25,6.5 -30.25,6.5 C-30.25,6.5 -30.25,-6.5 -30.25,-6.5 C-30.25,-6.5 30.25,-6.5 30.25,-6.5z"/><path stroke-linecap="butt" stroke-linejoin="miter" fill-opacity="0" stroke-miterlimit="4" stroke="rgb(0,0,0)" stroke-opacity="1" stroke-width="0" d=" M30.25,-6.5 C30.25,-6.5 30.25,6.5 30.25,6.5 C30.25,6.5 -30.25,6.5 -30.25,6.5 C-30.25,6.5 -30.25,-6.5 -30.25,-6.5 C-30.25,-6.5 30.25,-6.5 30.25,-6.5z"/></g><g opacity="1" transform="matrix(1,0,0,1,404.25,368)"><path fill="rgb(229,183,0)" fill-opacity="1" d=" M30.25,-6.5 C30.25,-6.5 30.25,6.5 30.25,6.5 C30.25,6.5 -30.25,6.5 -30.25,6.5 C-30.25,6.5 -30.25,-6.5 -30.25,-6.5 C-30.25,-6.5 30.25,-6.5 30.25,-6.5z"/><path stroke-linecap="butt" stroke-linejoin="miter" fill-opacity="0" stroke-miterlimit="4" stroke="rgb(0,0,0)" stroke-opacity="1" stroke-width="0" d=" M30.25,-6.5 C30.25,-6.5 30.25,6.5 30.25,6.5 C30.25,6.5 -30.25,6.5 -30.25,6.5 C-30.25,6.5 -30.25,-6.5 -30.25,-6.5 C-30.25,-6.5 30.25,-6.5 30.25,-6.5z"/></g><g opacity="1" transform="matrix(1,0,0,1,401.75,167.5)"><path fill="rgb(229,183,0)" fill-opacity="1" d=" M30.25,-6.5 C30.25,-6.5 30.25,6.5 30.25,6.5 C30.25,6.5 -30.25,6.5 -30.25,6.5 C-30.25,6.5 -30.25,-6.5 -30.25,-6.5 C-30.25,-6.5 30.25,-6.5 30.25,-6.5z"/><path stroke-linecap="butt" stroke-linejoin="miter" fill-opacity="0" stroke-miterlimit="4" stroke="rgb(0,0,0)" stroke-opacity="1" stroke-width="0" d=" M30.25,-6.5 C30.25,-6.5 30.25,6.5 30.25,6.5 C30.25,6.5 -30.25,6.5 -30.25,6.5 C-30.25,6.5 -30.25,-6.5 -30.25,-6.5 C-30.25,-6.5 30.25,-6.5 30.25,-6.5z"/></g><g opacity="1" transform="matrix(1,0,0,1,401.75,208.5)"><path fill="rgb(229,183,0)" fill-opacity="1" d=" M30.25,-6.5 C30.25,-6.5 30.25,6.5 30.25,6.5 C30.25,6.5 -30.25,6.5 -30.25,6.5 C-30.25,6.5 -30.25,-6.5 -30.25,-6.5 C-30.25,-6.5 30.25,-6.5 30.25,-6.5z"/><path stroke-linecap="butt" stroke-linejoin="miter" fill-opacity="0" stroke-miterlimit="4" stroke="rgb(0,0,0)" stroke-opacity="1" stroke-width="0" d=" M30.25,-6.5 C30.25,-6.5 30.25,6.5 30.25,6.5 C30.25,6.5 -30.25,6.5 -30.25,6.5 C-30.25,6.5 -30.25,-6.5 -30.25,-6.5 C-30.25,-6.5 30.25,-6.5 30.25,-6.5z"/></g><g opacity="1" transform="matrix(1,0,0,1,346.5,257.5)"><path fill="rgb(229,183,0)" fill-opacity="1" d=" M24,-6 C24,-6 24,6 24,6 C24,6 -24,6 -24,6 C-24,6 -24,-6 -24,-6 C-24,-6 24,-6 24,-6z"/><path stroke-linecap="butt" stroke-linejoin="miter" fill-opacity="0" stroke-miterlimit="4" stroke="rgb(0,0,0)" stroke-opacity="1" stroke-width="0" d=" M24,-6 C24,-6 24,6 24,6 C24,6 -24,6 -24,6 C-24,6 -24,-6 -24,-6 C-24,-6 24,-6 24,-6z"/></g><g opacity="1" transform="matrix(1,0,0,1,346.5,331.5)"><path fill="rgb(229,183,0)" fill-opacity="1" d=" M24,-6 C24,-6 24,6 24,6 C24,6 -24,6 -24,6 C-24,6 -24,-6 -24,-6 C-24,-6 24,-6 24,-6z"/><path stroke-linecap="butt" stroke-linejoin="miter" fill-opacity="0" stroke-miterlimit="4" stroke="rgb(0,0,0)" stroke-opacity="1" stroke-width="0" d=" M24,-6 C24,-6 24,6 24,6 C24,6 -24,6 -24,6 C-24,6 -24,-6 -24,-6 C-24,-6 24,-6 24,-6z"/></g><g opacity="1" transform="matrix(1,0,0,1,346.5,296.5)"><path fill="rgb(229,183,0)" fill-opacity="1" d=" M24,-6 C24,-6 24,6 24,6 C24,6 -24,6 -24,6 C-24,6 -24,-6 -24,-6 C-24,-6 24,-6 24,-6z"/><path stroke-linecap="butt" stroke-linejoin="miter" fill-opacity="0" stroke-miterlimit="4" stroke="rgb(0,0,0)" stroke-opacity="1" stroke-width="0" d=" M24,-6 C24,-6 24,6 24,6 C24,6 -24,6 -24,6 C-24,6 -24,-6 -24,-6 C-24,-6 24,-6 24,-6z"/></g><g opacity="1" transform="matrix(1,0,0,1,346.5,370.5)"><path fill="rgb(229,183,0)" fill-opacity="1" d=" M24,-6 C24,-6 24,6 24,6 C24,6 -24,6 -24,6 C-24,6 -24,-6 -24,-6 C-24,-6 24,-6 24,-6z"/><path stroke-linecap="butt" stroke-linejoin="miter" fill-opacity="0" stroke-miterlimit="4" stroke="rgb(0,0,0)" stroke-opacity="1" stroke-width="0" d=" M24,-6 C24,-6 24,6 24,6 C24,6 -24,6 -24,6 C-24,6 -24,-6 -24,-6 C-24,-6 24,-6 24,-6z"/></g><g opacity="1" transform="matrix(1,0,0,1,344,170)"><path fill="rgb(229,183,0)" fill-opacity="1" d=" M24,-6 C24,-6 24,6 24,6 C24,6 -24,6 -24,6 C-24,6 -24,-6 -24,-6 C-24,-6 24,-6 24,-6z"/><path stroke-linecap="butt" stroke-linejoin="miter" fill-opacity="0" stroke-miterlimit="4" stroke="rgb(0,0,0)" stroke-opacity="1" stroke-width="0" d=" M24,-6 C24,-6 24,6 24,6 C24,6 -24,6 -24,6 C-24,6 -24,-6 -24,-6 C-24,-6 24,-6 24,-6z"/></g><g opacity="1" transform="matrix(1,0,0,1,344,211)"><path fill="rgb(229,183,0)" fill-opacity="1" d=" M24,-6 C24,-6 24,6 24,6 C24,6 -24,6 -24,6 C-24,6 -24,-6 -24,-6 C-24,-6 24,-6 24,-6z"/><path stroke-linecap="butt" stroke-linejoin="miter" fill-opacity="0" stroke-miterlimit="4" stroke="rgb(0,0,0)" stroke-opacity="1" stroke-width="0" d=" M24,-6 C24,-6 24,6 24,6 C24,6 -24,6 -24,6 C-24,6 -24,-6 -24,-6 C-24,-6 24,-6 24,-6z"/></g><g opacity="1" transform="matrix(1,0,0,1,380.25,275.75)"><path fill="rgb(229,183,0)" fill-opacity="1" d=" M29.25,-5.75 C29.25,-5.75 29.25,5.75 29.25,5.75 C29.25,5.75 -29.25,5.75 -29.25,5.75 C-29.25,5.75 -29.25,-5.75 -29.25,-5.75 C-29.25,-5.75 29.25,-5.75 29.25,-5.75z"/><path stroke-linecap="butt" stroke-linejoin="miter" fill-opacity="0" stroke-miterlimit="4" stroke="rgb(0,0,0)" stroke-opacity="1" stroke-width="0" d=" M29.25,-5.75 C29.25,-5.75 29.25,5.75 29.25,5.75 C29.25,5.75 -29.25,5.75 -29.25,5.75 C-29.25,5.75 -29.25,-5.75 -29.25,-5.75 C-29.25,-5.75 29.25,-5.75 29.25,-5.75z"/></g><g opacity="1" transform="matrix(1,0,0,1,380.25,349.75)"><path fill="rgb(229,183,0)" fill-opacity="1" d=" M29.25,-5.75 C29.25,-5.75 29.25,5.75 29.25,5.75 C29.25,5.75 -29.25,5.75 -29.25,5.75 C-29.25,5.75 -29.25,-5.75 -29.25,-5.75 C-29.25,-5.75 29.25,-5.75 29.25,-5.75z"/><path stroke-linecap="butt" stroke-linejoin="miter" fill-opacity="0" stroke-miterlimit="4" stroke="rgb(0,0,0)" stroke-opacity="1" stroke-width="0" d=" M29.25,-5.75 C29.25,-5.75 29.25,5.75 29.25,5.75 C29.25,5.75 -29.25,5.75 -29.25,5.75 C-29.25,5.75 -29.25,-5.75 -29.25,-5.75 C-29.25,-5.75 29.25,-5.75 29.25,-5.75z"/></g><g opacity="1" transform="matrix(1,0,0,1,380.25,314.75)"><path fill="rgb(229,183,0)" fill-opacity="1" d=" M29.25,-5.75 C29.25,-5.75 29.25,5.75 29.25,5.75 C29.25,5.75 -29.25,5.75 -29.25,5.75 C-29.25,5.75 -29.25,-5.75 -29.25,-5.75 C-29.25,-5.75 29.25,-5.75 29.25,-5.75z"/><path stroke-linecap="butt" stroke-linejoin="miter" fill-opacity="0" stroke-miterlimit="4" stroke="rgb(0,0,0)" stroke-opacity="1" stroke-width="0" d=" M29.25,-5.75 C29.25,-5.75 29.25,5.75 29.25,5.75 C29.25,5.75 -29.25,5.75 -29.25,5.75 C-29.25,5.75 -29.25,-5.75 -29.25,-5.75 C-29.25,-5.75 29.25,-5.75 29.25,-5.75z"/></g><g opacity="1" transform="matrix(1,0,0,1,380.25,388.75)"><path fill="rgb(229,183,0)" fill-opacity="1" d=" M29.25,-5.75 C29.25,-5.75 29.25,5.75 29.25,5.75 C29.25,5.75 -29.25,5.75 -29.25,5.75 C-29.25,5.75 -29.25,-5.75 -29.25,-5.75 C-29.25,-5.75 29.25,-5.75 29.25,-5.75z"/><path stroke-linecap="butt" stroke-linejoin="miter" fill-opacity="0" stroke-miterlimit="4" stroke="rgb(0,0,0)" stroke-opacity="1" stroke-width="0" d=" M29.25,-5.75 C29.25,-5.75 29.25,5.75 29.25,5.75 C29.25,5.75 -29.25,5.75 -29.25,5.75 C-29.25,5.75 -29.25,-5.75 -29.25,-5.75 C-29.25,-5.75 29.25,-5.75 29.25,-5.75z"/></g><g opacity="1" transform="matrix(1,0,0,1,377.75,188.25)"><path fill="rgb(229,183,0)" fill-opacity="1" d=" M29.25,-5.75 C29.25,-5.75 29.25,5.75 29.25,5.75 C29.25,5.75 -29.25,5.75 -29.25,5.75 C-29.25,5.75 -29.25,-5.75 -29.25,-5.75 C-29.25,-5.75 29.25,-5.75 29.25,-5.75z"/><path stroke-linecap="butt" stroke-linejoin="miter" fill-opacity="0" stroke-miterlimit="4" stroke="rgb(0,0,0)" stroke-opacity="1" stroke-width="0" d=" M29.25,-5.75 C29.25,-5.75 29.25,5.75 29.25,5.75 C29.25,5.75 -29.25,5.75 -29.25,5.75 C-29.25,5.75 -29.25,-5.75 -29.25,-5.75 C-29.25,-5.75 29.25,-5.75 29.25,-5.75z"/></g><g opacity="1" transform="matrix(1,0,0,1,377.75,229.25)"><path fill="rgb(229,183,0)" fill-opacity="1" d=" M29.25,-5.75 C29.25,-5.75 29.25,5.75 29.25,5.75 C29.25,5.75 -29.25,5.75 -29.25,5.75 C-29.25,5.75 -29.25,-5.75 -29.25,-5.75 C-29.25,-5.75 29.25,-5.75 29.25,-5.75z"/><path stroke-linecap="butt" stroke-linejoin="miter" fill-opacity="0" stroke-miterlimit="4" stroke="rgb(0,0,0)" stroke-opacity="1" stroke-width="0" d=" M29.25,-5.75 C29.25,-5.75 29.25,5.75 29.25,5.75 C29.25,5.75 -29.25,5.75 -29.25,5.75 C-29.25,5.75 -29.25,-5.75 -29.25,-5.75 C-29.25,-5.75 29.25,-5.75 29.25,-5.75z"/></g><g opacity="1" transform="matrix(1,0,0,1,333.75,275.5)"><path fill="rgb(229,183,0)" fill-opacity="1" d=" M11.75,-5 C11.75,-5 11.75,5 11.75,5 C11.75,5 -11.75,5 -11.75,5 C-11.75,5 -11.75,-5 -11.75,-5 C-11.75,-5 11.75,-5 11.75,-5z"/><path stroke-linecap="butt" stroke-linejoin="miter" fill-opacity="0" stroke-miterlimit="4" stroke="rgb(0,0,0)" stroke-opacity="1" stroke-width="0" d=" M11.75,-5 C11.75,-5 11.75,5 11.75,5 C11.75,5 -11.75,5 -11.75,5 C-11.75,5 -11.75,-5 -11.75,-5 C-11.75,-5 11.75,-5 11.75,-5z"/></g><g opacity="1" transform="matrix(1,0,0,1,333.75,349.5)"><path fill="rgb(229,183,0)" fill-opacity="1" d=" M11.75,-5 C11.75,-5 11.75,5 11.75,5 C11.75,5 -11.75,5 -11.75,5 C-11.75,5 -11.75,-5 -11.75,-5 C-11.75,-5 11.75,-5 11.75,-5z"/><path stroke-linecap="butt" stroke-linejoin="miter" fill-opacity="0" stroke-miterlimit="4" stroke="rgb(0,0,0)" stroke-opacity="1" stroke-width="0" d=" M11.75,-5 C11.75,-5 11.75,5 11.75,5 C11.75,5 -11.75,5 -11.75,5 C-11.75,5 -11.75,-5 -11.75,-5 C-11.75,-5 11.75,-5 11.75,-5z"/></g><g opacity="1" transform="matrix(1,0,0,1,333.75,314.5)"><path fill="rgb(229,183,0)" fill-opacity="1" d=" M11.75,-5 C11.75,-5 11.75,5 11.75,5 C11.75,5 -11.75,5 -11.75,5 C-11.75,5 -11.75,-5 -11.75,-5 C-11.75,-5 11.75,-5 11.75,-5z"/><path stroke-linecap="butt" stroke-linejoin="miter" fill-opacity="0" stroke-miterlimit="4" stroke="rgb(0,0,0)" stroke-opacity="1" stroke-width="0" d=" M11.75,-5 C11.75,-5 11.75,5 11.75,5 C11.75,5 -11.75,5 -11.75,5 C-11.75,5 -11.75,-5 -11.75,-5 C-11.75,-5 11.75,-5 11.75,-5z"/></g><g opacity="1" transform="matrix(1,0,0,1,333.75,388.5)"><path fill="rgb(229,183,0)" fill-opacity="1" d=" M11.75,-5 C11.75,-5 11.75,5 11.75,5 C11.75,5 -11.75,5 -11.75,5 C-11.75,5 -11.75,-5 -11.75,-5 C-11.75,-5 11.75,-5 11.75,-5z"/><path stroke-linecap="butt" stroke-linejoin="miter" fill-opacity="0" stroke-miterlimit="4" stroke="rgb(0,0,0)" stroke-opacity="1" stroke-width="0" d=" M11.75,-5 C11.75,-5 11.75,5 11.75,5 C11.75,5 -11.75,5 -11.75,5 C-11.75,5 -11.75,-5 -11.75,-5 C-11.75,-5 11.75,-5 11.75,-5z"/></g><g opacity="1" transform="matrix(1,0,0,1,331.25,188)"><path fill="rgb(229,183,0)" fill-opacity="1" d=" M11.75,-5 C11.75,-5 11.75,5 11.75,5 C11.75,5 -11.75,5 -11.75,5 C-11.75,5 -11.75,-5 -11.75,-5 C-11.75,-5 11.75,-5 11.75,-5z"/><path stroke-linecap="butt" stroke-linejoin="miter" fill-opacity="0" stroke-miterlimit="4" stroke="rgb(0,0,0)" stroke-opacity="1" stroke-width="0" d=" M11.75,-5 C11.75,-5 11.75,5 11.75,5 C11.75,5 -11.75,5 -11.75,5 C-11.75,5 -11.75,-5 -11.75,-5 C-11.75,-5 11.75,-5 11.75,-5z"/></g><g opacity="1" transform="matrix(1,0,0,1,331.25,229)"><path fill="rgb(229,183,0)" fill-opacity="1" d=" M11.75,-5 C11.75,-5 11.75,5 11.75,5 C11.75,5 -11.75,5 -11.75,5 C-11.75,5 -11.75,-5 -11.75,-5 C-11.75,-5 11.75,-5 11.75,-5z"/><path stroke-linecap="butt" stroke-linejoin="miter" fill-opacity="0" stroke-miterlimit="4" stroke="rgb(0,0,0)" stroke-opacity="1" stroke-width="0" d=" M11.75,-5 C11.75,-5 11.75,5 11.75,5 C11.75,5 -11.75,5 -11.75,5 C-11.75,5 -11.75,-5 -11.75,-5 C-11.75,-5 11.75,-5 11.75,-5z"/></g><g opacity="1" transform="matrix(1,0,0,1,423.5,277)"><path fill="rgb(229,183,0)" fill-opacity="1" d=" M9,-4.5 C9,-4.5 9,4.5 9,4.5 C9,4.5 -9,4.5 -9,4.5 C-9,4.5 -9,-4.5 -9,-4.5 C-9,-4.5 9,-4.5 9,-4.5z"/><path stroke-linecap="butt" stroke-linejoin="miter" fill-opacity="0" stroke-miterlimit="4" stroke="rgb(0,0,0)" stroke-opacity="1" stroke-width="0" d=" M9,-4.5 C9,-4.5 9,4.5 9,4.5 C9,4.5 -9,4.5 -9,4.5 C-9,4.5 -9,-4.5 -9,-4.5 C-9,-4.5 9,-4.5 9,-4.5z"/></g><g opacity="1" transform="matrix(1,0,0,1,423.5,351)"><path fill="rgb(229,183,0)" fill-opacity="1" d=" M9,-4.5 C9,-4.5 9,4.5 9,4.5 C9,4.5 -9,4.5 -9,4.5 C-9,4.5 -9,-4.5 -9,-4.5 C-9,-4.5 9,-4.5 9,-4.5z"/><path stroke-linecap="butt" stroke-linejoin="miter" fill-opacity="0" stroke-miterlimit="4" stroke="rgb(0,0,0)" stroke-opacity="1" stroke-width="0" d=" M9,-4.5 C9,-4.5 9,4.5 9,4.5 C9,4.5 -9,4.5 -9,4.5 C-9,4.5 -9,-4.5 -9,-4.5 C-9,-4.5 9,-4.5 9,-4.5z"/></g><g opacity="1" transform="matrix(1,0,0,1,423.5,316)"><path fill="rgb(229,183,0)" fill-opacity="1" d=" M9,-4.5 C9,-4.5 9,4.5 9,4.5 C9,4.5 -9,4.5 -9,4.5 C-9,4.5 -9,-4.5 -9,-4.5 C-9,-4.5 9,-4.5 9,-4.5z"/><path stroke-linecap="butt" stroke-linejoin="miter" fill-opacity="0" stroke-miterlimit="4" stroke="rgb(0,0,0)" stroke-opacity="1" stroke-width="0" d=" M9,-4.5 C9,-4.5 9,4.5 9,4.5 C9,4.5 -9,4.5 -9,4.5 C-9,4.5 -9,-4.5 -9,-4.5 C-9,-4.5 9,-4.5 9,-4.5z"/></g><g opacity="1" transform="matrix(1,0,0,1,423.5,390)"><path fill="rgb(229,183,0)" fill-opacity="1" d=" M9,-4.5 C9,-4.5 9,4.5 9,4.5 C9,4.5 -9,4.5 -9,4.5 C-9,4.5 -9,-4.5 -9,-4.5 C-9,-4.5 9,-4.5 9,-4.5z"/><path stroke-linecap="butt" stroke-linejoin="miter" fill-opacity="0" stroke-miterlimit="4" stroke="rgb(0,0,0)" stroke-opacity="1" stroke-width="0" d=" M9,-4.5 C9,-4.5 9,4.5 9,4.5 C9,4.5 -9,4.5 -9,4.5 C-9,4.5 -9,-4.5 -9,-4.5 C-9,-4.5 9,-4.5 9,-4.5z"/></g><g opacity="1" transform="matrix(1,0,0,1,421,189.5)"><path fill="rgb(229,183,0)" fill-opacity="1" d=" M9,-4.5 C9,-4.5 9,4.5 9,4.5 C9,4.5 -9,4.5 -9,4.5 C-9,4.5 -9,-4.5 -9,-4.5 C-9,-4.5 9,-4.5 9,-4.5z"/><path stroke-linecap="butt" stroke-linejoin="miter" fill-opacity="0" stroke-miterlimit="4" stroke="rgb(0,0,0)" stroke-opacity="1" stroke-width="0" d=" M9,-4.5 C9,-4.5 9,4.5 9,4.5 C9,4.5 -9,4.5 -9,4.5 C-9,4.5 -9,-4.5 -9,-4.5 C-9,-4.5 9,-4.5 9,-4.5z"/></g><g opacity="1" transform="matrix(1,0,0,1,421,230.5)"><path fill="rgb(229,183,0)" fill-opacity="1" d=" M9,-4.5 C9,-4.5 9,4.5 9,4.5 C9,4.5 -9,4.5 -9,4.5 C-9,4.5 -9,-4.5 -9,-4.5 C-9,-4.5 9,-4.5 9,-4.5z"/><path stroke-linecap="butt" stroke-linejoin="miter" fill-opacity="0" stroke-miterlimit="4" stroke="rgb(0,0,0)" stroke-opacity="1" stroke-width="0" d=" M9,-4.5 C9,-4.5 9,4.5 9,4.5 C9,4.5 -9,4.5 -9,4.5 C-9,4.5 -9,-4.5 -9,-4.5 C-9,-4.5 9,-4.5 9,-4.5z"/></g></g><g transform="matrix(1,0,0,1,979.251708984375,540)" opacity="1" style="display: block;"><g opacity="1" transform="matrix(1,0,0,1.612239956855774,376.5,161)"><path fill="rgb(51,51,51)" fill-opacity="1" d=" M61.5,-150 C61.5,-150 61.5,150 61.5,150 C61.5,150 -61.5,150 -61.5,150 C-61.5,150 -61.5,-150 -61.5,-150 C-61.5,-150 61.5,-150 61.5,-150z"/><path stroke-linecap="butt" stroke-linejoin="miter" fill-opacity="0" stroke-miterlimit="4" stroke="rgb(0,0,0)" stroke-opacity="1" stroke-width="0" d=" M61.5,-150 C61.5,-150 61.5,150 61.5,150 C61.5,150 -61.5,150 -61.5,150 C-61.5,150 -61.5,-150 -61.5,-150 C-61.5,-150 61.5,-150 61.5,-150z"/></g><g opacity="1" transform="matrix(1,0,0,1,343.75,124.25)"><path fill="rgb(229,183,0)" fill-opacity="1" d=" M25.75,-9.75 C25.75,-9.75 25.75,9.75 25.75,9.75 C25.75,9.75 -25.75,9.75 -25.75,9.75 C-25.75,9.75 -25.75,-9.75 -25.75,-9.75 C-25.75,-9.75 25.75,-9.75 25.75,-9.75z"/><path stroke-linecap="butt" stroke-linejoin="miter" fill-opacity="0" stroke-miterlimit="4" stroke="rgb(0,0,0)" stroke-opacity="1" stroke-width="0" d=" M25.75,-9.75 C25.75,-9.75 25.75,9.75 25.75,9.75 C25.75,9.75 -25.75,9.75 -25.75,9.75 C-25.75,9.75 -25.75,-9.75 -25.75,-9.75 C-25.75,-9.75 25.75,-9.75 25.75,-9.75z"/></g><g opacity="1" transform="matrix(1,0,0,1,344.25,-6.75)"><path fill="rgb(229,183,0)" fill-opacity="1" d=" M25.75,-9.75 C25.75,-9.75 25.75,9.75 25.75,9.75 C25.75,9.75 -25.75,9.75 -25.75,9.75 C-25.75,9.75 -25.75,-9.75 -25.75,-9.75 C-25.75,-9.75 25.75,-9.75 25.75,-9.75z"/><path stroke-linecap="butt" stroke-linejoin="miter" fill-opacity="0" stroke-miterlimit="4" stroke="rgb(0,0,0)" stroke-opacity="1" stroke-width="0" d=" M25.75,-9.75 C25.75,-9.75 25.75,9.75 25.75,9.75 C25.75,9.75 -25.75,9.75 -25.75,9.75 C-25.75,9.75 -25.75,-9.75 -25.75,-9.75 C-25.75,-9.75 25.75,-9.75 25.75,-9.75z"/></g><g opacity="1" transform="matrix(1,0,0,1,344.25,-54.75)"><path fill="rgb(229,183,0)" fill-opacity="1" d=" M25.75,-9.75 C25.75,-9.75 25.75,9.75 25.75,9.75 C25.75,9.75 -25.75,9.75 -25.75,9.75 C-25.75,9.75 -25.75,-9.75 -25.75,-9.75 C-25.75,-9.75 25.75,-9.75 25.75,-9.75z"/><path stroke-linecap="butt" stroke-linejoin="miter" fill-opacity="0" stroke-miterlimit="4" stroke="rgb(0,0,0)" stroke-opacity="1" stroke-width="0" d=" M25.75,-9.75 C25.75,-9.75 25.75,9.75 25.75,9.75 C25.75,9.75 -25.75,9.75 -25.75,9.75 C-25.75,9.75 -25.75,-9.75 -25.75,-9.75 C-25.75,-9.75 25.75,-9.75 25.75,-9.75z"/></g><g opacity="1" transform="matrix(1,0,0,1,402.5,124)"><path fill="rgb(229,183,0)" fill-opacity="1" d=" M27.5,-9.5 C27.5,-9.5 27.5,9.5 27.5,9.5 C27.5,9.5 -27.5,9.5 -27.5,9.5 C-27.5,9.5 -27.5,-9.5 -27.5,-9.5 C-27.5,-9.5 27.5,-9.5 27.5,-9.5z"/><path stroke-linecap="butt" stroke-linejoin="miter" fill-opacity="0" stroke-miterlimit="4" stroke="rgb(0,0,0)" stroke-opacity="1" stroke-width="0" d=" M27.5,-9.5 C27.5,-9.5 27.5,9.5 27.5,9.5 C27.5,9.5 -27.5,9.5 -27.5,9.5 C-27.5,9.5 -27.5,-9.5 -27.5,-9.5 C-27.5,-9.5 27.5,-9.5 27.5,-9.5z"/></g><g opacity="1" transform="matrix(1,0,0,1,402.5,-7)"><path fill="rgb(229,183,0)" fill-opacity="1" d=" M27.5,-9.5 C27.5,-9.5 27.5,9.5 27.5,9.5 C27.5,9.5 -27.5,9.5 -27.5,9.5 C-27.5,9.5 -27.5,-9.5 -27.5,-9.5 C-27.5,-9.5 27.5,-9.5 27.5,-9.5z"/><path stroke-linecap="butt" stroke-linejoin="miter" fill-opacity="0" stroke-miterlimit="4" stroke="rgb(0,0,0)" stroke-opacity="1" stroke-width="0" d=" M27.5,-9.5 C27.5,-9.5 27.5,9.5 27.5,9.5 C27.5,9.5 -27.5,9.5 -27.5,9.5 C-27.5,9.5 -27.5,-9.5 -27.5,-9.5 C-27.5,-9.5 27.5,-9.5 27.5,-9.5z"/></g><g opacity="1" transform="matrix(1,0,0,1,402.5,-55)"><path fill="rgb(229,183,0)" fill-opacity="1" d=" M27.5,-9.5 C27.5,-9.5 27.5,9.5 27.5,9.5 C27.5,9.5 -27.5,9.5 -27.5,9.5 C-27.5,9.5 -27.5,-9.5 -27.5,-9.5 C-27.5,-9.5 27.5,-9.5 27.5,-9.5z"/><path stroke-linecap="butt" stroke-linejoin="miter" fill-opacity="0" stroke-miterlimit="4" stroke="rgb(0,0,0)" stroke-opacity="1" stroke-width="0" d=" M27.5,-9.5 C27.5,-9.5 27.5,9.5 27.5,9.5 C27.5,9.5 -27.5,9.5 -27.5,9.5 C-27.5,9.5 -27.5,-9.5 -27.5,-9.5 C-27.5,-9.5 27.5,-9.5 27.5,-9.5z"/></g><g opacity="1" transform="matrix(1,0,0,1,335.25,147)"><path fill="rgb(229,183,0)" fill-opacity="1" d=" M17.25,-6.5 C17.25,-6.5 17.25,6.5 17.25,6.5 C17.25,6.5 -17.25,6.5 -17.25,6.5 C-17.25,6.5 -17.25,-6.5 -17.25,-6.5 C-17.25,-6.5 17.25,-6.5 17.25,-6.5z"/><path stroke-linecap="butt" stroke-linejoin="miter" fill-opacity="0" stroke-miterlimit="4" stroke="rgb(0,0,0)" stroke-opacity="1" stroke-width="0" d=" M17.25,-6.5 C17.25,-6.5 17.25,6.5 17.25,6.5 C17.25,6.5 -17.25,6.5 -17.25,6.5 C-17.25,6.5 -17.25,-6.5 -17.25,-6.5 C-17.25,-6.5 17.25,-6.5 17.25,-6.5z"/></g><g opacity="1" transform="matrix(1,0,0,1,335.75,16)"><path fill="rgb(229,183,0)" fill-opacity="1" d=" M17.25,-6.5 C17.25,-6.5 17.25,6.5 17.25,6.5 C17.25,6.5 -17.25,6.5 -17.25,6.5 C-17.25,6.5 -17.25,-6.5 -17.25,-6.5 C-17.25,-6.5 17.25,-6.5 17.25,-6.5z"/><path stroke-linecap="butt" stroke-linejoin="miter" fill-opacity="0" stroke-miterlimit="4" stroke="rgb(0,0,0)" stroke-opacity="1" stroke-width="0" d=" M17.25,-6.5 C17.25,-6.5 17.25,6.5 17.25,6.5 C17.25,6.5 -17.25,6.5 -17.25,6.5 C-17.25,6.5 -17.25,-6.5 -17.25,-6.5 C-17.25,-6.5 17.25,-6.5 17.25,-6.5z"/></g><g opacity="1" transform="matrix(1,0,0,1,335.75,-32)"><path fill="rgb(229,183,0)" fill-opacity="1" d=" M17.25,-6.5 C17.25,-6.5 17.25,6.5 17.25,6.5 C17.25,6.5 -17.25,6.5 -17.25,6.5 C-17.25,6.5 -17.25,-6.5 -17.25,-6.5 C-17.25,-6.5 17.25,-6.5 17.25,-6.5z"/><path stroke-linecap="butt" stroke-linejoin="miter" fill-opacity="0" stroke-miterlimit="4" stroke="rgb(0,0,0)" stroke-opacity="1" stroke-width="0" d=" M17.25,-6.5 C17.25,-6.5 17.25,6.5 17.25,6.5 C17.25,6.5 -17.25,6.5 -17.25,6.5 C-17.25,6.5 -17.25,-6.5 -17.25,-6.5 C-17.25,-6.5 17.25,-6.5 17.25,-6.5z"/></g><g opacity="1" transform="matrix(1,0,0,1,394,149.75)"><path fill="rgb(229,183,0)" fill-opacity="1" d=" M35.5,-6.25 C35.5,-6.25 35.5,6.25 35.5,6.25 C35.5,6.25 -35.5,6.25 -35.5,6.25 C-35.5,6.25 -35.5,-6.25 -35.5,-6.25 C-35.5,-6.25 35.5,-6.25 35.5,-6.25z"/><path stroke-linecap="butt" stroke-linejoin="miter" fill-opacity="0" stroke-miterlimit="4" stroke="rgb(0,0,0)" stroke-opacity="1" stroke-width="0" d=" M35.5,-6.25 C35.5,-6.25 35.5,6.25 35.5,6.25 C35.5,6.25 -35.5,6.25 -35.5,6.25 C-35.5,6.25 -35.5,-6.25 -35.5,-6.25 C-35.5,-6.25 35.5,-6.25 35.5,-6.25z"/></g><g opacity="1" transform="matrix(1,0,0,1,394.5,18.75)"><path fill="rgb(229,183,0)" fill-opacity="1" d=" M35.5,-6.25 C35.5,-6.25 35.5,6.25 35.5,6.25 C35.5,6.25 -35.5,6.25 -35.5,6.25 C-35.5,6.25 -35.5,-6.25 -35.5,-6.25 C-35.5,-6.25 35.5,-6.25 35.5,-6.25z"/><path stroke-linecap="butt" stroke-linejoin="miter" fill-opacity="0" stroke-miterlimit="4" stroke="rgb(0,0,0)" stroke-opacity="1" stroke-width="0" d=" M35.5,-6.25 C35.5,-6.25 35.5,6.25 35.5,6.25 C35.5,6.25 -35.5,6.25 -35.5,6.25 C-35.5,6.25 -35.5,-6.25 -35.5,-6.25 C-35.5,-6.25 35.5,-6.25 35.5,-6.25z"/></g><g opacity="1" transform="matrix(1,0,0,1,394.5,-29.25)"><path fill="rgb(229,183,0)" fill-opacity="1" d=" M35.5,-6.25 C35.5,-6.25 35.5,6.25 35.5,6.25 C35.5,6.25 -35.5,6.25 -35.5,6.25 C-35.5,6.25 -35.5,-6.25 -35.5,-6.25 C-35.5,-6.25 35.5,-6.25 35.5,-6.25z"/><path stroke-linecap="butt" stroke-linejoin="miter" fill-opacity="0" stroke-miterlimit="4" stroke="rgb(0,0,0)" stroke-opacity="1" stroke-width="0" d=" M35.5,-6.25 C35.5,-6.25 35.5,6.25 35.5,6.25 C35.5,6.25 -35.5,6.25 -35.5,6.25 C-35.5,6.25 -35.5,-6.25 -35.5,-6.25 C-35.5,-6.25 35.5,-6.25 35.5,-6.25z"/></g><g opacity="1" transform="matrix(1,0,0,1,404.25,255)"><path fill="rgb(229,183,0)" fill-opacity="1" d=" M30.25,-6.5 C30.25,-6.5 30.25,6.5 30.25,6.5 C30.25,6.5 -30.25,6.5 -30.25,6.5 C-30.25,6.5 -30.25,-6.5 -30.25,-6.5 C-30.25,-6.5 30.25,-6.5 30.25,-6.5z"/><path stroke-linecap="butt" stroke-linejoin="miter" fill-opacity="0" stroke-miterlimit="4" stroke="rgb(0,0,0)" stroke-opacity="1" stroke-width="0" d=" M30.25,-6.5 C30.25,-6.5 30.25,6.5 30.25,6.5 C30.25,6.5 -30.25,6.5 -30.25,6.5 C-30.25,6.5 -30.25,-6.5 -30.25,-6.5 C-30.25,-6.5 30.25,-6.5 30.25,-6.5z"/></g><g opacity="1" transform="matrix(1,0,0,1,404.25,329)"><path fill="rgb(229,183,0)" fill-opacity="1" d=" M30.25,-6.5 C30.25,-6.5 30.25,6.5 30.25,6.5 C30.25,6.5 -30.25,6.5 -30.25,6.5 C-30.25,6.5 -30.25,-6.5 -30.25,-6.5 C-30.25,-6.5 30.25,-6.5 30.25,-6.5z"/><path stroke-linecap="butt" stroke-linejoin="miter" fill-opacity="0" stroke-miterlimit="4" stroke="rgb(0,0,0)" stroke-opacity="1" stroke-width="0" d=" M30.25,-6.5 C30.25,-6.5 30.25,6.5 30.25,6.5 C30.25,6.5 -30.25,6.5 -30.25,6.5 C-30.25,6.5 -30.25,-6.5 -30.25,-6.5 C-30.25,-6.5 30.25,-6.5 30.25,-6.5z"/></g><g opacity="1" transform="matrix(1,0,0,1,404.25,294)"><path fill="rgb(229,183,0)" fill-opacity="1" d=" M30.25,-6.5 C30.25,-6.5 30.25,6.5 30.25,6.5 C30.25,6.5 -30.25,6.5 -30.25,6.5 C-30.25,6.5 -30.25,-6.5 -30.25,-6.5 C-30.25,-6.5 30.25,-6.5 30.25,-6.5z"/><path stroke-linecap="butt" stroke-linejoin="miter" fill-opacity="0" stroke-miterlimit="4" stroke="rgb(0,0,0)" stroke-opacity="1" stroke-width="0" d=" M30.25,-6.5 C30.25,-6.5 30.25,6.5 30.25,6.5 C30.25,6.5 -30.25,6.5 -30.25,6.5 C-30.25,6.5 -30.25,-6.5 -30.25,-6.5 C-30.25,-6.5 30.25,-6.5 30.25,-6.5z"/></g><g opacity="1" transform="matrix(1,0,0,1,404.25,368)"><path fill="rgb(229,183,0)" fill-opacity="1" d=" M30.25,-6.5 C30.25,-6.5 30.25,6.5 30.25,6.5 C30.25,6.5 -30.25,6.5 -30.25,6.5 C-30.25,6.5 -30.25,-6.5 -30.25,-6.5 C-30.25,-6.5 30.25,-6.5 30.25,-6.5z"/><path stroke-linecap="butt" stroke-linejoin="miter" fill-opacity="0" stroke-miterlimit="4" stroke="rgb(0,0,0)" stroke-opacity="1" stroke-width="0" d=" M30.25,-6.5 C30.25,-6.5 30.25,6.5 30.25,6.5 C30.25,6.5 -30.25,6.5 -30.25,6.5 C-30.25,6.5 -30.25,-6.5 -30.25,-6.5 C-30.25,-6.5 30.25,-6.5 30.25,-6.5z"/></g><g opacity="1" transform="matrix(1,0,0,1,401.75,168.5)"><path fill="rgb(229,183,0)" fill-opacity="1" d=" M30.25,-6.5 C30.25,-6.5 30.25,6.5 30.25,6.5 C30.25,6.5 -30.25,6.5 -30.25,6.5 C-30.25,6.5 -30.25,-6.5 -30.25,-6.5 C-30.25,-6.5 30.25,-6.5 30.25,-6.5z"/><path stroke-linecap="butt" stroke-linejoin="miter" fill-opacity="0" stroke-miterlimit="4" stroke="rgb(0,0,0)" stroke-opacity="1" stroke-width="0" d=" M30.25,-6.5 C30.25,-6.5 30.25,6.5 30.25,6.5 C30.25,6.5 -30.25,6.5 -30.25,6.5 C-30.25,6.5 -30.25,-6.5 -30.25,-6.5 C-30.25,-6.5 30.25,-6.5 30.25,-6.5z"/></g><g opacity="1" transform="matrix(1,0,0,1,401.75,37.5)"><path fill="rgb(229,183,0)" fill-opacity="1" d=" M30.25,-6.5 C30.25,-6.5 30.25,6.5 30.25,6.5 C30.25,6.5 -30.25,6.5 -30.25,6.5 C-30.25,6.5 -30.25,-6.5 -30.25,-6.5 C-30.25,-6.5 30.25,-6.5 30.25,-6.5z"/><path stroke-linecap="butt" stroke-linejoin="miter" fill-opacity="0" stroke-miterlimit="4" stroke="rgb(0,0,0)" stroke-opacity="1" stroke-width="0" d=" M30.25,-6.5 C30.25,-6.5 30.25,6.5 30.25,6.5 C30.25,6.5 -30.25,6.5 -30.25,6.5 C-30.25,6.5 -30.25,-6.5 -30.25,-6.5 C-30.25,-6.5 30.25,-6.5 30.25,-6.5z"/></g><g opacity="1" transform="matrix(1,0,0,1,401.75,208.5)"><path fill="rgb(229,183,0)" fill-opacity="1" d=" M30.25,-6.5 C30.25,-6.5 30.25,6.5 30.25,6.5 C30.25,6.5 -30.25,6.5 -30.25,6.5 C-30.25,6.5 -30.25,-6.5 -30.25,-6.5 C-30.25,-6.5 30.25,-6.5 30.25,-6.5z"/><path stroke-linecap="butt" stroke-linejoin="miter" fill-opacity="0" stroke-miterlimit="4" stroke="rgb(0,0,0)" stroke-opacity="1" stroke-width="0" d=" M30.25,-6.5 C30.25,-6.5 30.25,6.5 30.25,6.5 C30.25,6.5 -30.25,6.5 -30.25,6.5 C-30.25,6.5 -30.25,-6.5 -30.25,-6.5 C-30.25,-6.5 30.25,-6.5 30.25,-6.5z"/></g><g opacity="1" transform="matrix(1,0,0,1,401.75,77.5)"><path fill="rgb(229,183,0)" fill-opacity="1" d=" M30.25,-6.5 C30.25,-6.5 30.25,6.5 30.25,6.5 C30.25,6.5 -30.25,6.5 -30.25,6.5 C-30.25,6.5 -30.25,-6.5 -30.25,-6.5 C-30.25,-6.5 30.25,-6.5 30.25,-6.5z"/><path stroke-linecap="butt" stroke-linejoin="miter" fill-opacity="0" stroke-miterlimit="4" stroke="rgb(0,0,0)" stroke-opacity="1" stroke-width="0" d=" M30.25,-6.5 C30.25,-6.5 30.25,6.5 30.25,6.5 C30.25,6.5 -30.25,6.5 -30.25,6.5 C-30.25,6.5 -30.25,-6.5 -30.25,-6.5 C-30.25,-6.5 30.25,-6.5 30.25,-6.5z"/></g><g opacity="1" transform="matrix(1,0,0,1,346.5,257.5)"><path fill="rgb(229,183,0)" fill-opacity="1" d=" M24,-6 C24,-6 24,6 24,6 C24,6 -24,6 -24,6 C-24,6 -24,-6 -24,-6 C-24,-6 24,-6 24,-6z"/><path stroke-linecap="butt" stroke-linejoin="miter" fill-opacity="0" stroke-miterlimit="4" stroke="rgb(0,0,0)" stroke-opacity="1" stroke-width="0" d=" M24,-6 C24,-6 24,6 24,6 C24,6 -24,6 -24,6 C-24,6 -24,-6 -24,-6 C-24,-6 24,-6 24,-6z"/></g><g opacity="1" transform="matrix(1,0,0,1,346.5,331.5)"><path fill="rgb(229,183,0)" fill-opacity="1" d=" M24,-6 C24,-6 24,6 24,6 C24,6 -24,6 -24,6 C-24,6 -24,-6 -24,-6 C-24,-6 24,-6 24,-6z"/><path stroke-linecap="butt" stroke-linejoin="miter" fill-opacity="0" stroke-miterlimit="4" stroke="rgb(0,0,0)" stroke-opacity="1" stroke-width="0" d=" M24,-6 C24,-6 24,6 24,6 C24,6 -24,6 -24,6 C-24,6 -24,-6 -24,-6 C-24,-6 24,-6 24,-6z"/></g><g opacity="1" transform="matrix(1,0,0,1,346.5,296.5)"><path fill="rgb(229,183,0)" fill-opacity="1" d=" M24,-6 C24,-6 24,6 24,6 C24,6 -24,6 -24,6 C-24,6 -24,-6 -24,-6 C-24,-6 24,-6 24,-6z"/><path stroke-linecap="butt" stroke-linejoin="miter" fill-opacity="0" stroke-miterlimit="4" stroke="rgb(0,0,0)" stroke-opacity="1" stroke-width="0" d=" M24,-6 C24,-6 24,6 24,6 C24,6 -24,6 -24,6 C-24,6 -24,-6 -24,-6 C-24,-6 24,-6 24,-6z"/></g><g opacity="1" transform="matrix(1,0,0,1,346.5,370.5)"><path fill="rgb(229,183,0)" fill-opacity="1" d=" M24,-6 C24,-6 24,6 24,6 C24,6 -24,6 -24,6 C-24,6 -24,-6 -24,-6 C-24,-6 24,-6 24,-6z"/><path stroke-linecap="butt" stroke-linejoin="miter" fill-opacity="0" stroke-miterlimit="4" stroke="rgb(0,0,0)" stroke-opacity="1" stroke-width="0" d=" M24,-6 C24,-6 24,6 24,6 C24,6 -24,6 -24,6 C-24,6 -24,-6 -24,-6 C-24,-6 24,-6 24,-6z"/></g><g opacity="1" transform="matrix(1,0,0,1,344,170)"><path fill="rgb(229,183,0)" fill-opacity="1" d=" M24,-6 C24,-6 24,6 24,6 C24,6 -24,6 -24,6 C-24,6 -24,-6 -24,-6 C-24,-6 24,-6 24,-6z"/><path stroke-linecap="butt" stroke-linejoin="miter" fill-opacity="0" stroke-miterlimit="4" stroke="rgb(0,0,0)" stroke-opacity="1" stroke-width="0" d=" M24,-6 C24,-6 24,6 24,6 C24,6 -24,6 -24,6 C-24,6 -24,-6 -24,-6 C-24,-6 24,-6 24,-6z"/></g><g opacity="1" transform="matrix(1,0,0,1,344,39)"><path fill="rgb(229,183,0)" fill-opacity="1" d=" M24,-6 C24,-6 24,6 24,6 C24,6 -24,6 -24,6 C-24,6 -24,-6 -24,-6 C-24,-6 24,-6 24,-6z"/><path stroke-linecap="butt" stroke-linejoin="miter" fill-opacity="0" stroke-miterlimit="4" stroke="rgb(0,0,0)" stroke-opacity="1" stroke-width="0" d=" M24,-6 C24,-6 24,6 24,6 C24,6 -24,6 -24,6 C-24,6 -24,-6 -24,-6 C-24,-6 24,-6 24,-6z"/></g><g opacity="1" transform="matrix(1,0,0,1,344,211)"><path fill="rgb(229,183,0)" fill-opacity="1" d=" M24,-6 C24,-6 24,6 24,6 C24,6 -24,6 -24,6 C-24,6 -24,-6 -24,-6 C-24,-6 24,-6 24,-6z"/><path stroke-linecap="butt" stroke-linejoin="miter" fill-opacity="0" stroke-miterlimit="4" stroke="rgb(0,0,0)" stroke-opacity="1" stroke-width="0" d=" M24,-6 C24,-6 24,6 24,6 C24,6 -24,6 -24,6 C-24,6 -24,-6 -24,-6 C-24,-6 24,-6 24,-6z"/></g><g opacity="1" transform="matrix(1,0,0,1,344,80)"><path fill="rgb(229,183,0)" fill-opacity="1" d=" M24,-6 C24,-6 24,6 24,6 C24,6 -24,6 -24,6 C-24,6 -24,-6 -24,-6 C-24,-6 24,-6 24,-6z"/><path stroke-linecap="butt" stroke-linejoin="miter" fill-opacity="0" stroke-miterlimit="4" stroke="rgb(0,0,0)" stroke-opacity="1" stroke-width="0" d=" M24,-6 C24,-6 24,6 24,6 C24,6 -24,6 -24,6 C-24,6 -24,-6 -24,-6 C-24,-6 24,-6 24,-6z"/></g><g opacity="1" transform="matrix(1,0,0,1,380.25,275.75)"><path fill="rgb(229,183,0)" fill-opacity="1" d=" M29.25,-5.75 C29.25,-5.75 29.25,5.75 29.25,5.75 C29.25,5.75 -29.25,5.75 -29.25,5.75 C-29.25,5.75 -29.25,-5.75 -29.25,-5.75 C-29.25,-5.75 29.25,-5.75 29.25,-5.75z"/><path stroke-linecap="butt" stroke-linejoin="miter" fill-opacity="0" stroke-miterlimit="4" stroke="rgb(0,0,0)" stroke-opacity="1" stroke-width="0" d=" M29.25,-5.75 C29.25,-5.75 29.25,5.75 29.25,5.75 C29.25,5.75 -29.25,5.75 -29.25,5.75 C-29.25,5.75 -29.25,-5.75 -29.25,-5.75 C-29.25,-5.75 29.25,-5.75 29.25,-5.75z"/></g><g opacity="1" transform="matrix(1,0,0,1,380.25,349.75)"><path fill="rgb(229,183,0)" fill-opacity="1" d=" M29.25,-5.75 C29.25,-5.75 29.25,5.75 29.25,5.75 C29.25,5.75 -29.25,5.75 -29.25,5.75 C-29.25,5.75 -29.25,-5.75 -29.25,-5.75 C-29.25,-5.75 29.25,-5.75 29.25,-5.75z"/><path stroke-linecap="butt" stroke-linejoin="miter" fill-opacity="0" stroke-miterlimit="4" stroke="rgb(0,0,0)" stroke-opacity="1" stroke-width="0" d=" M29.25,-5.75 C29.25,-5.75 29.25,5.75 29.25,5.75 C29.25,5.75 -29.25,5.75 -29.25,5.75 C-29.25,5.75 -29.25,-5.75 -29.25,-5.75 C-29.25,-5.75 29.25,-5.75 29.25,-5.75z"/></g><g opacity="1" transform="matrix(1,0,0,1,380.25,314.75)"><path fill="rgb(229,183,0)" fill-opacity="1" d=" M29.25,-5.75 C29.25,-5.75 29.25,5.75 29.25,5.75 C29.25,5.75 -29.25,5.75 -29.25,5.75 C-29.25,5.75 -29.25,-5.75 -29.25,-5.75 C-29.25,-5.75 29.25,-5.75 29.25,-5.75z"/><path stroke-linecap="butt" stroke-linejoin="miter" fill-opacity="0" stroke-miterlimit="4" stroke="rgb(0,0,0)" stroke-opacity="1" stroke-width="0" d=" M29.25,-5.75 C29.25,-5.75 29.25,5.75 29.25,5.75 C29.25,5.75 -29.25,5.75 -29.25,5.75 C-29.25,5.75 -29.25,-5.75 -29.25,-5.75 C-29.25,-5.75 29.25,-5.75 29.25,-5.75z"/></g><g opacity="1" transform="matrix(1,0,0,1,380.25,388.75)"><path fill="rgb(229,183,0)" fill-opacity="1" d=" M29.25,-5.75 C29.25,-5.75 29.25,5.75 29.25,5.75 C29.25,5.75 -29.25,5.75 -29.25,5.75 C-29.25,5.75 -29.25,-5.75 -29.25,-5.75 C-29.25,-5.75 29.25,-5.75 29.25,-5.75z"/><path stroke-linecap="butt" stroke-linejoin="miter" fill-opacity="0" stroke-miterlimit="4" stroke="rgb(0,0,0)" stroke-opacity="1" stroke-width="0" d=" M29.25,-5.75 C29.25,-5.75 29.25,5.75 29.25,5.75 C29.25,5.75 -29.25,5.75 -29.25,5.75 C-29.25,5.75 -29.25,-5.75 -29.25,-5.75 C-29.25,-5.75 29.25,-5.75 29.25,-5.75z"/></g><g opacity="1" transform="matrix(1,0,0,1,377.75,188.25)"><path fill="rgb(229,183,0)" fill-opacity="1" d=" M29.25,-5.75 C29.25,-5.75 29.25,5.75 29.25,5.75 C29.25,5.75 -29.25,5.75 -29.25,5.75 C-29.25,5.75 -29.25,-5.75 -29.25,-5.75 C-29.25,-5.75 29.25,-5.75 29.25,-5.75z"/><path stroke-linecap="butt" stroke-linejoin="miter" fill-opacity="0" stroke-miterlimit="4" stroke="rgb(0,0,0)" stroke-opacity="1" stroke-width="0" d=" M29.25,-5.75 C29.25,-5.75 29.25,5.75 29.25,5.75 C29.25,5.75 -29.25,5.75 -29.25,5.75 C-29.25,5.75 -29.25,-5.75 -29.25,-5.75 C-29.25,-5.75 29.25,-5.75 29.25,-5.75z"/></g><g opacity="1" transform="matrix(1,0,0,1,377.75,57.25)"><path fill="rgb(229,183,0)" fill-opacity="1" d=" M29.25,-5.75 C29.25,-5.75 29.25,5.75 29.25,5.75 C29.25,5.75 -29.25,5.75 -29.25,5.75 C-29.25,5.75 -29.25,-5.75 -29.25,-5.75 C-29.25,-5.75 29.25,-5.75 29.25,-5.75z"/><path stroke-linecap="butt" stroke-linejoin="miter" fill-opacity="0" stroke-miterlimit="4" stroke="rgb(0,0,0)" stroke-opacity="1" stroke-width="0" d=" M29.25,-5.75 C29.25,-5.75 29.25,5.75 29.25,5.75 C29.25,5.75 -29.25,5.75 -29.25,5.75 C-29.25,5.75 -29.25,-5.75 -29.25,-5.75 C-29.25,-5.75 29.25,-5.75 29.25,-5.75z"/></g><g opacity="1" transform="matrix(1,0,0,1,377.75,229.25)"><path fill="rgb(229,183,0)" fill-opacity="1" d=" M29.25,-5.75 C29.25,-5.75 29.25,5.75 29.25,5.75 C29.25,5.75 -29.25,5.75 -29.25,5.75 C-29.25,5.75 -29.25,-5.75 -29.25,-5.75 C-29.25,-5.75 29.25,-5.75 29.25,-5.75z"/><path stroke-linecap="butt" stroke-linejoin="miter" fill-opacity="0" stroke-miterlimit="4" stroke="rgb(0,0,0)" stroke-opacity="1" stroke-width="0" d=" M29.25,-5.75 C29.25,-5.75 29.25,5.75 29.25,5.75 C29.25,5.75 -29.25,5.75 -29.25,5.75 C-29.25,5.75 -29.25,-5.75 -29.25,-5.75 C-29.25,-5.75 29.25,-5.75 29.25,-5.75z"/></g><g opacity="1" transform="matrix(1,0,0,1,377.75,98.25)"><path fill="rgb(229,183,0)" fill-opacity="1" d=" M29.25,-5.75 C29.25,-5.75 29.25,5.75 29.25,5.75 C29.25,5.75 -29.25,5.75 -29.25,5.75 C-29.25,5.75 -29.25,-5.75 -29.25,-5.75 C-29.25,-5.75 29.25,-5.75 29.25,-5.75z"/><path stroke-linecap="butt" stroke-linejoin="miter" fill-opacity="0" stroke-miterlimit="4" stroke="rgb(0,0,0)" stroke-opacity="1" stroke-width="0" d=" M29.25,-5.75 C29.25,-5.75 29.25,5.75 29.25,5.75 C29.25,5.75 -29.25,5.75 -29.25,5.75 C-29.25,5.75 -29.25,-5.75 -29.25,-5.75 C-29.25,-5.75 29.25,-5.75 29.25,-5.75z"/></g><g opacity="1" transform="matrix(1,0,0,1,333.75,275.5)"><path fill="rgb(229,183,0)" fill-opacity="1" d=" M11.75,-5 C11.75,-5 11.75,5 11.75,5 C11.75,5 -11.75,5 -11.75,5 C-11.75,5 -11.75,-5 -11.75,-5 C-11.75,-5 11.75,-5 11.75,-5z"/><path stroke-linecap="butt" stroke-linejoin="miter" fill-opacity="0" stroke-miterlimit="4" stroke="rgb(0,0,0)" stroke-opacity="1" stroke-width="0" d=" M11.75,-5 C11.75,-5 11.75,5 11.75,5 C11.75,5 -11.75,5 -11.75,5 C-11.75,5 -11.75,-5 -11.75,-5 C-11.75,-5 11.75,-5 11.75,-5z"/></g><g opacity="1" transform="matrix(1,0,0,1,333.75,349.5)"><path fill="rgb(229,183,0)" fill-opacity="1" d=" M11.75,-5 C11.75,-5 11.75,5 11.75,5 C11.75,5 -11.75,5 -11.75,5 C-11.75,5 -11.75,-5 -11.75,-5 C-11.75,-5 11.75,-5 11.75,-5z"/><path stroke-linecap="butt" stroke-linejoin="miter" fill-opacity="0" stroke-miterlimit="4" stroke="rgb(0,0,0)" stroke-opacity="1" stroke-width="0" d=" M11.75,-5 C11.75,-5 11.75,5 11.75,5 C11.75,5 -11.75,5 -11.75,5 C-11.75,5 -11.75,-5 -11.75,-5 C-11.75,-5 11.75,-5 11.75,-5z"/></g><g opacity="1" transform="matrix(1,0,0,1,333.75,314.5)"><path fill="rgb(229,183,0)" fill-opacity="1" d=" M11.75,-5 C11.75,-5 11.75,5 11.75,5 C11.75,5 -11.75,5 -11.75,5 C-11.75,5 -11.75,-5 -11.75,-5 C-11.75,-5 11.75,-5 11.75,-5z"/><path stroke-linecap="butt" stroke-linejoin="miter" fill-opacity="0" stroke-miterlimit="4" stroke="rgb(0,0,0)" stroke-opacity="1" stroke-width="0" d=" M11.75,-5 C11.75,-5 11.75,5 11.75,5 C11.75,5 -11.75,5 -11.75,5 C-11.75,5 -11.75,-5 -11.75,-5 C-11.75,-5 11.75,-5 11.75,-5z"/></g><g opacity="1" transform="matrix(1,0,0,1,333.75,388.5)"><path fill="rgb(229,183,0)" fill-opacity="1" d=" M11.75,-5 C11.75,-5 11.75,5 11.75,5 C11.75,5 -11.75,5 -11.75,5 C-11.75,5 -11.75,-5 -11.75,-5 C-11.75,-5 11.75,-5 11.75,-5z"/><path stroke-linecap="butt" stroke-linejoin="miter" fill-opacity="0" stroke-miterlimit="4" stroke="rgb(0,0,0)" stroke-opacity="1" stroke-width="0" d=" M11.75,-5 C11.75,-5 11.75,5 11.75,5 C11.75,5 -11.75,5 -11.75,5 C-11.75,5 -11.75,-5 -11.75,-5 C-11.75,-5 11.75,-5 11.75,-5z"/></g><g opacity="1" transform="matrix(1,0,0,1,331.25,188)"><path fill="rgb(229,183,0)" fill-opacity="1" d=" M11.75,-5 C11.75,-5 11.75,5 11.75,5 C11.75,5 -11.75,5 -11.75,5 C-11.75,5 -11.75,-5 -11.75,-5 C-11.75,-5 11.75,-5 11.75,-5z"/><path stroke-linecap="butt" stroke-linejoin="miter" fill-opacity="0" stroke-miterlimit="4" stroke="rgb(0,0,0)" stroke-opacity="1" stroke-width="0" d=" M11.75,-5 C11.75,-5 11.75,5 11.75,5 C11.75,5 -11.75,5 -11.75,5 C-11.75,5 -11.75,-5 -11.75,-5 C-11.75,-5 11.75,-5 11.75,-5z"/></g><g opacity="1" transform="matrix(1,0,0,1,331.25,57)"><path fill="rgb(229,183,0)" fill-opacity="1" d=" M11.75,-5 C11.75,-5 11.75,5 11.75,5 C11.75,5 -11.75,5 -11.75,5 C-11.75,5 -11.75,-5 -11.75,-5 C-11.75,-5 11.75,-5 11.75,-5z"/><path stroke-linecap="butt" stroke-linejoin="miter" fill-opacity="0" stroke-miterlimit="4" stroke="rgb(0,0,0)" stroke-opacity="1" stroke-width="0" d=" M11.75,-5 C11.75,-5 11.75,5 11.75,5 C11.75,5 -11.75,5 -11.75,5 C-11.75,5 -11.75,-5 -11.75,-5 C-11.75,-5 11.75,-5 11.75,-5z"/></g><g opacity="1" transform="matrix(1,0,0,1,331.25,229)"><path fill="rgb(229,183,0)" fill-opacity="1" d=" M11.75,-5 C11.75,-5 11.75,5 11.75,5 C11.75,5 -11.75,5 -11.75,5 C-11.75,5 -11.75,-5 -11.75,-5 C-11.75,-5 11.75,-5 11.75,-5z"/><path stroke-linecap="butt" stroke-linejoin="miter" fill-opacity="0" stroke-miterlimit="4" stroke="rgb(0,0,0)" stroke-opacity="1" stroke-width="0" d=" M11.75,-5 C11.75,-5 11.75,5 11.75,5 C11.75,5 -11.75,5 -11.75,5 C-11.75,5 -11.75,-5 -11.75,-5 C-11.75,-5 11.75,-5 11.75,-5z"/></g><g opacity="1" transform="matrix(1,0,0,1,331.25,98)"><path fill="rgb(229,183,0)" fill-opacity="1" d=" M11.75,-5 C11.75,-5 11.75,5 11.75,5 C11.75,5 -11.75,5 -11.75,5 C-11.75,5 -11.75,-5 -11.75,-5 C-11.75,-5 11.75,-5 11.75,-5z"/><path stroke-linecap="butt" stroke-linejoin="miter" fill-opacity="0" stroke-miterlimit="4" stroke="rgb(0,0,0)" stroke-opacity="1" stroke-width="0" d=" M11.75,-5 C11.75,-5 11.75,5 11.75,5 C11.75,5 -11.75,5 -11.75,5 C-11.75,5 -11.75,-5 -11.75,-5 C-11.75,-5 11.75,-5 11.75,-5z"/></g><g opacity="1" transform="matrix(1,0,0,1,423.5,277)"><path fill="rgb(229,183,0)" fill-opacity="1" d=" M9,-4.5 C9,-4.5 9,4.5 9,4.5 C9,4.5 -9,4.5 -9,4.5 C-9,4.5 -9,-4.5 -9,-4.5 C-9,-4.5 9,-4.5 9,-4.5z"/><path stroke-linecap="butt" stroke-linejoin="miter" fill-opacity="0" stroke-miterlimit="4" stroke="rgb(0,0,0)" stroke-opacity="1" stroke-width="0" d=" M9,-4.5 C9,-4.5 9,4.5 9,4.5 C9,4.5 -9,4.5 -9,4.5 C-9,4.5 -9,-4.5 -9,-4.5 C-9,-4.5 9,-4.5 9,-4.5z"/></g><g opacity="1" transform="matrix(1,0,0,1,423.5,351)"><path fill="rgb(229,183,0)" fill-opacity="1" d=" M9,-4.5 C9,-4.5 9,4.5 9,4.5 C9,4.5 -9,4.5 -9,4.5 C-9,4.5 -9,-4.5 -9,-4.5 C-9,-4.5 9,-4.5 9,-4.5z"/><path stroke-linecap="butt" stroke-linejoin="miter" fill-opacity="0" stroke-miterlimit="4" stroke="rgb(0,0,0)" stroke-opacity="1" stroke-width="0" d=" M9,-4.5 C9,-4.5 9,4.5 9,4.5 C9,4.5 -9,4.5 -9,4.5 C-9,4.5 -9,-4.5 -9,-4.5 C-9,-4.5 9,-4.5 9,-4.5z"/></g><g opacity="1" transform="matrix(1,0,0,1,423.5,316)"><path fill="rgb(229,183,0)" fill-opacity="1" d=" M9,-4.5 C9,-4.5 9,4.5 9,4.5 C9,4.5 -9,4.5 -9,4.5 C-9,4.5 -9,-4.5 -9,-4.5 C-9,-4.5 9,-4.5 9,-4.5z"/><path stroke-linecap="butt" stroke-linejoin="miter" fill-opacity="0" stroke-miterlimit="4" stroke="rgb(0,0,0)" stroke-opacity="1" stroke-width="0" d=" M9,-4.5 C9,-4.5 9,4.5 9,4.5 C9,4.5 -9,4.5 -9,4.5 C-9,4.5 -9,-4.5 -9,-4.5 C-9,-4.5 9,-4.5 9,-4.5z"/></g><g opacity="1" transform="matrix(1,0,0,1,423.5,390)"><path fill="rgb(229,183,0)" fill-opacity="1" d=" M9,-4.5 C9,-4.5 9,4.5 9,4.5 C9,4.5 -9,4.5 -9,4.5 C-9,4.5 -9,-4.5 -9,-4.5 C-9,-4.5 9,-4.5 9,-4.5z"/><path stroke-linecap="butt" stroke-linejoin="miter" fill-opacity="0" stroke-miterlimit="4" stroke="rgb(0,0,0)" stroke-opacity="1" stroke-width="0" d=" M9,-4.5 C9,-4.5 9,4.5 9,4.5 C9,4.5 -9,4.5 -9,4.5 C-9,4.5 -9,-4.5 -9,-4.5 C-9,-4.5 9,-4.5 9,-4.5z"/></g><g opacity="1" transform="matrix(1,0,0,1,421,189.5)"><path fill="rgb(229,183,0)" fill-opacity="1" d=" M9,-4.5 C9,-4.5 9,4.5 9,4.5 C9,4.5 -9,4.5 -9,4.5 C-9,4.5 -9,-4.5 -9,-4.5 C-9,-4.5 9,-4.5 9,-4.5z"/><path stroke-linecap="butt" stroke-linejoin="miter" fill-opacity="0" stroke-miterlimit="4" stroke="rgb(0,0,0)" stroke-opacity="1" stroke-width="0" d=" M9,-4.5 C9,-4.5 9,4.5 9,4.5 C9,4.5 -9,4.5 -9,4.5 C-9,4.5 -9,-4.5 -9,-4.5 C-9,-4.5 9,-4.5 9,-4.5z"/></g><g opacity="1" transform="matrix(1,0,0,1,421,58.5)"><path fill="rgb(229,183,0)" fill-opacity="1" d=" M9,-4.5 C9,-4.5 9,4.5 9,4.5 C9,4.5 -9,4.5 -9,4.5 C-9,4.5 -9,-4.5 -9,-4.5 C-9,-4.5 9,-4.5 9,-4.5z"/><path stroke-linecap="butt" stroke-linejoin="miter" fill-opacity="0" stroke-miterlimit="4" stroke="rgb(0,0,0)" stroke-opacity="1" stroke-width="0" d=" M9,-4.5 C9,-4.5 9,4.5 9,4.5 C9,4.5 -9,4.5 -9,4.5 C-9,4.5 -9,-4.5 -9,-4.5 C-9,-4.5 9,-4.5 9,-4.5z"/></g><g opacity="1" transform="matrix(1,0,0,1,421,230.5)"><path fill="rgb(229,183,0)" fill-opacity="1" d=" M9,-4.5 C9,-4.5 9,4.5 9,4.5 C9,4.5 -9,4.5 -9,4.5 C-9,4.5 -9,-4.5 -9,-4.5 C-9,-4.5 9,-4.5 9,-4.5z"/><path stroke-linecap="butt" stroke-linejoin="miter" fill-opacity="0" stroke-miterlimit="4" stroke="rgb(0,0,0)" stroke-opacity="1" stroke-width="0" d=" M9,-4.5 C9,-4.5 9,4.5 9,4.5 C9,4.5 -9,4.5 -9,4.5 C-9,4.5 -9,-4.5 -9,-4.5 C-9,-4.5 9,-4.5 9,-4.5z"/></g><g opacity="1" transform="matrix(1,0,0,1,421,99.5)"><path fill="rgb(229,183,0)" fill-opacity="1" d=" M9,-4.5 C9,-4.5 9,4.5 9,4.5 C9,4.5 -9,4.5 -9,4.5 C-9,4.5 -9,-4.5 -9,-4.5 C-9,-4.5 9,-4.5 9,-4.5z"/><path stroke-linecap="butt" stroke-linejoin="miter" fill-opacity="0" stroke-miterlimit="4" stroke="rgb(0,0,0)" stroke-opacity="1" stroke-width="0" d=" M9,-4.5 C9,-4.5 9,4.5 9,4.5 C9,4.5 -9,4.5 -9,4.5 C-9,4.5 -9,-4.5 -9,-4.5 C-9,-4.5 9,-4.5 9,-4.5z"/></g></g><g transform="matrix(1,0,0,1,751,540)" opacity="1" style="display: block;"><path stroke-linecap="round" stroke-linejoin="round" fill-opacity="0" stroke="rgb(52,52,52)" stroke-opacity="1" stroke-width="15" d="M0 0"/><g opacity="1" transform="matrix(1,0,0,1,0,0)"><path stroke-linecap="round" stroke-linejoin="round" fill-opacity="0" stroke="rgb(51,204,102)" stroke-opacity="1" stroke-width="8" d="M0 0"/></g></g><g transform="matrix(1,0,0,1,801.0064697265625,742)" opacity="1" style="display: block;"><g opacity="1" transform="matrix(1,0,0,1,-261,152)"><path fill="rgb(51,204,102)" fill-opacity="1" d=" M47,-18 C47,-18 47,18 47,18 C47,34.00510025024414 34.00510025024414,47 18,47 C18,47 -18,47 -18,47 C-34.00510025024414,47 -47,34.00510025024414 -47,18 C-47,18 -47,-18 -47,-18 C-47,-34.00510025024414 -34.00510025024414,-47 -18,-47 C-18,-47 18,-47 18,-47 C34.00510025024414,-47 47,-34.00510025024414 47,-18z"/><path stroke-linecap="round" stroke-linejoin="round" fill-opacity="0" stroke-dasharray=" 65 28" stroke-dashoffset="799" stroke="rgb(51,51,51)" stroke-opacity="1" stroke-width="5" d=" M47,-18 C47,-18 47,18 47,18 C47,34.00510025024414 34.00510025024414,47 18,47 C18,47 -18,47 -18,47 C-34.00510025024414,47 -47,34.00510025024414 -47,18 C-47,18 -47,-18 -47,-18 C-47,-34.00510025024414 -34.00510025024414,-47 -18,-47 C-18,-47 18,-47 18,-47 C34.00510025024414,-47 47,-34.00510025024414 47,-18z"/></g></g><g transform="matrix(1,0,0,0.3185200095176697,0,936.9992065429688)" opacity="1" style="display: block;"><rect width="1080" height="1080" fill="#ffffff"/></g><g transform="matrix(1,0,0,1,794.8116455078125,734.5509033203125)" opacity="1" style="display: block;"><g opacity="1" transform="matrix(1,0,0,1,-247.5,145.75)"><path fill="rgb(51,51,51)" fill-opacity="1" d=" M6,-4.25 C6,-4.25 6,4.25 6,4.25 C6,7.561399936676025 3.3113999366760254,10.25 0,10.25 C0,10.25 0,10.25 0,10.25 C-3.3113999366760254,10.25 -6,7.561399936676025 -6,4.25 C-6,4.25 -6,-4.25 -6,-4.25 C-6,-7.561399936676025 -3.3113999366760254,-10.25 0,-10.25 C0,-10.25 0,-10.25 0,-10.25 C3.3113999366760254,-10.25 6,-7.561399936676025 6,-4.25z"/></g><g opacity="1" transform="matrix(1,0,0,1,-228.25,145.75)"><path fill="rgb(51,51,51)" fill-opacity="1" d=" M6,-4.25 C6,-4.25 6,4.25 6,4.25 C6,7.561399936676025 3.3113999366760254,10.25 0,10.25 C0,10.25 0,10.25 0,10.25 C-3.3113999366760254,10.25 -6,7.561399936676025 -6,4.25 C-6,4.25 -6,-4.25 -6,-4.25 C-6,-7.561399936676025 -3.3113999366760254,-10.25 0,-10.25 C0,-10.25 0,-10.25 0,-10.25 C3.3113999366760254,-10.25 6,-7.561399936676025 6,-4.25z"/></g></g><g transform="matrix(1,0,0,1,540,540)" opacity="1" style="display: block;"><g opacity="1" transform="matrix(1,0,0,1,0,0)"><path stroke-linecap="round" stroke-linejoin="miter" fill-opacity="0" stroke-miterlimit="4" stroke-dasharray=" 217 26" stroke-dashoffset="784" stroke="rgb(0,0,0)" stroke-opacity="1" stroke-width="10" d=" M-540,399 C-540,399 542,400 542,400"/></g></g><g transform="matrix(0,0,0,0,582.0650024414062,849.8920288085938)" opacity="1" style="display: block;"><g opacity="1" transform="matrix(1,0,0,1,0,0)"><path fill="rgb(255,0,0)" fill-opacity="1" d=" M-214.5780029296875,-11 C-214.5780029296875,-11 -205.29100036621094,-11 -205.29100036621094,-11 C-205.29100036621094,-11 -205.29100036621094,-20.28700065612793 -205.29100036621094,-20.28700065612793 C-205.29100036621094,-20.28700065612793 -214.5780029296875,-20.28700065612793 -214.5780029296875,-20.28700065612793 C-214.5780029296875,-20.28700065612793 -214.5780029296875,-11 -214.5780029296875,-11z M-213.52699279785156,-27.208999633789062 C-213.52699279785156,-27.208999633789062 -206.34300231933594,-27.208999633789062 -206.34300231933594,-27.208999633789062 C-206.34300231933594,-27.208999633789062 -205.11599731445312,-46.74700164794922 -205.11599731445312,-46.74700164794922 C-205.11599731445312,-46.74700164794922 -205.11599731445312,-72.33100128173828 -205.11599731445312,-72.33100128173828 C-205.11599731445312,-72.33100128173828 -214.75399780273438,-72.33100128173828 -214.75399780273438,-72.33100128173828 C-214.75399780273438,-72.33100128173828 -214.75399780273438,-46.74700164794922 -214.75399780273438,-46.74700164794922 C-214.75399780273438,-46.74700164794922 -213.52699279785156,-27.208999633789062 -213.52699279785156,-27.208999633789062z"/></g></g><g transform="matrix(1,0,0,1,885,540)" opacity="1" style="display: block;"><g opacity="1" transform="matrix(1,0,0,1,0,0)"><path stroke-linecap="round" stroke-linejoin="miter" fill-opacity="0" stroke-miterlimit="4" stroke="rgb(51,204,102)" stroke-opacity="1" stroke-width="8" d="M0 0"/></g></g><g transform="matrix(1,0,0,1,885,247)" opacity="1" style="display: block;"><g opacity="1" transform="matrix(1,0,0,1,0,0)"><path stroke-linecap="round" stroke-linejoin="miter" fill-opacity="0" stroke-miterlimit="4" stroke="rgb(51,204,102)" stroke-opacity="1" stroke-width="8" d="M0 0"/></g></g><g transform="matrix(1,0,0,1,989,247)" opacity="1" style="display: block;"><g opacity="1" transform="matrix(1,0,0,1,0,0)"><path stroke-linecap="round" stroke-linejoin="miter" fill-opacity="0" stroke-miterlimit="4" stroke="rgb(51,204,102)" stroke-opacity="1" stroke-width="8" d="M0 0"/></g></g><g transform="matrix(1,0,0,1,559,-426)" opacity="0.5" style="display: block;"><g opacity="1" transform="matrix(1,0,0,1,0,0)"><path fill="rgb(255,230,128)" fill-opacity="1" d=" M6,-780 C6,-780 -5,400.5 -5,400.5 C-5,400.5 -2,398 -2,398 C-2,398 4,-786 4,-786 C4,-786 6,-780 6,-780z"/></g></g><g transform="matrix(1,0,0,1,544,-450.99993896484375)" opacity="0.5" style="display: block;"><g opacity="1" transform="matrix(1,0,0,1,0,0)"><path fill="rgb(255,230,128)" fill-opacity="1" d=" M-40,-556 C-40,-556 -38.35900115966797,405.3710021972656 -38.35900115966797,405.3710021972656 C-38.35900115966797,405.3710021972656 -37.0359992980957,405.97698974609375 -37.0359992980957,405.97698974609375 C-37.0359992980957,405.97698974609375 -38,-556 -38,-556 C-38,-556 -40,-556 -40,-556z"/></g></g><g transform="matrix(1,0,0,1,905,540)" opacity="1" style="display: block;"><g opacity="1" transform="matrix(1,0,0,1,0,0)"><path stroke-linecap="round" stroke-linejoin="miter" fill-opacity="0" stroke-miterlimit="4" stroke="rgb(51,204,102)" stroke-opacity="1" stroke-width="8" d="M0 0"/></g></g><g transform="matrix(1,0,0,1,962,540)" opacity="1" style="display: block;"><g opacity="1" transform="matrix(1,0,0,1,0,0)"><path stroke-linecap="round" stroke-linejoin="miter" fill-opacity="0" stroke-miterlimit="4" stroke="rgb(51,204,102)" stroke-opacity="1" stroke-width="8" d="M0 0"/></g></g><g transform="matrix(1,0,0,1,539,832)" opacity="1" style="display: block;"><g opacity="1" transform="matrix(1,0,0,1,0,0)"><path stroke-linecap="round" stroke-linejoin="miter" fill-opacity="0" stroke-miterlimit="4" stroke="rgb(51,204,102)" stroke-opacity="1" stroke-width="8" d="M0 0"/></g></g><g transform="matrix(1,0,0,1,885,540)" opacity="1" style="display: block;"><g opacity="1" transform="matrix(1,0,0,1,-136,-221)"><path stroke-linecap="butt" stroke-linejoin="miter" fill-opacity="0" stroke-miterlimit="4" stroke="rgb(51,204,102)" stroke-opacity="1" stroke-width="8" d="M0 0"/></g></g><g style="display: none;" transform="matrix(1.4199999570846558,0,0,1.4199999570846558,852.0509643554688,611.6805419921875)" opacity="0.10043600000045246"><g opacity="1" transform="matrix(1,0,0,1,0,0)"><path fill="rgb(255,0,0)" fill-opacity="1" d=" M-87.65599822998047,-11 C-87.65599822998047,-11 -87.65599822998047,-16.437999725341797 -87.65599822998047,-16.437999725341797 C-87.65599822998047,-16.437999725341797 -87.65599822998047,-21.875 -87.65599822998047,-21.875 C-87.65599822998047,-21.875 -87.65599822998047,-27.312999725341797 -87.65599822998047,-27.312999725341797 C-87.65599822998047,-27.312999725341797 -87.65599822998047,-32.75 -87.65599822998047,-32.75 C-87.65599822998047,-32.75 -87.65599822998047,-38.1879997253418 -87.65599822998047,-38.1879997253418 C-87.65599822998047,-38.1879997253418 -87.65599822998047,-43.625 -87.65599822998047,-43.625 C-87.65599822998047,-43.625 -87.65599822998047,-49.0629997253418 -87.65599822998047,-49.0629997253418 C-87.65599822998047,-49.0629997253418 -87.65599822998047,-54.5 -87.65599822998047,-54.5 C-87.65599822998047,-54.5 -87.65599822998047,-59.9379997253418 -87.65599822998047,-59.9379997253418 C-87.65599822998047,-59.9379997253418 -87.65599822998047,-65.375 -87.65599822998047,-65.375 C-87.65599822998047,-65.375 -82.21900177001953,-65.375 -82.21900177001953,-65.375 C-82.21900177001953,-65.375 -76.78099822998047,-65.375 -76.78099822998047,-65.375 C-76.78099822998047,-65.375 -71.34400177001953,-65.375 -71.34400177001953,-65.375 C-71.34400177001953,-65.375 -65.90599822998047,-65.375 -65.90599822998047,-65.375 C-65.90599822998047,-65.375 -65.90599822998047,-70.81300354003906 -65.90599822998047,-70.81300354003906 C-65.90599822998047,-70.81300354003906 -65.90599822998047,-76.25 -65.90599822998047,-76.25 C-65.90599822998047,-76.25 -71.34400177001953,-76.25 -71.34400177001953,-76.25 C-71.34400177001953,-76.25 -76.78099822998047,-76.25 -76.78099822998047,-76.25 C-76.78099822998047,-76.25 -82.21900177001953,-76.25 -82.21900177001953,-76.25 C-82.21900177001953,-76.25 -87.65599822998047,-76.25 -87.65599822998047,-76.25 C-87.65599822998047,-76.25 -93.09400177001953,-76.25 -93.09400177001953,-76.25 C-93.09400177001953,-76.25 -98.53099822998047,-76.25 -98.53099822998047,-76.25 C-98.53099822998047,-76.25 -103.96900177001953,-76.25 -103.96900177001953,-76.25 C-103.96900177001953,-76.25 -109.40599822998047,-76.25 -109.40599822998047,-76.25 C-109.40599822998047,-76.25 -114.84400177001953,-76.25 -114.84400177001953,-76.25 C-114.84400177001953,-76.25 -120.28099822998047,-76.25 -120.28099822998047,-76.25 C-120.28099822998047,-76.25 -120.28099822998047,-70.81300354003906 -120.28099822998047,-70.81300354003906 C-120.28099822998047,-70.81300354003906 -120.28099822998047,-65.375 -120.28099822998047,-65.375 C-120.28099822998047,-65.375 -114.84400177001953,-65.375 -114.84400177001953,-65.375 C-114.84400177001953,-65.375 -109.40599822998047,-65.375 -109.40599822998047,-65.375 C-109.40599822998047,-65.375 -103.96900177001953,-65.375 -103.96900177001953,-65.375 C-103.96900177001953,-65.375 -98.53099822998047,-65.375 -98.53099822998047,-65.375 C-98.53099822998047,-65.375 -98.53099822998047,-59.9379997253418 -98.53099822998047,-59.9379997253418 C-98.53099822998047,-59.9379997253418 -98.53099822998047,-54.5 -98.53099822998047,-54.5 C-98.53099822998047,-54.5 -98.53099822998047,-49.0629997253418 -98.53099822998047,-49.0629997253418 C-98.53099822998047,-49.0629997253418 -98.53099822998047,-43.625 -98.53099822998047,-43.625 C-98.53099822998047,-43.625 -98.53099822998047,-38.1879997253418 -98.53099822998047,-38.1879997253418 C-98.53099822998047,-38.1879997253418 -98.53099822998047,-32.75 -98.53099822998047,-32.75 C-98.53099822998047,-32.75 -98.53099822998047,-27.312999725341797 -98.53099822998047,-27.312999725341797 C-98.53099822998047,-27.312999725341797 -98.53099822998047,-21.875 -98.53099822998047,-21.875 C-98.53099822998047,-21.875 -98.53099822998047,-16.437999725341797 -98.53099822998047,-16.437999725341797 C-98.53099822998047,-16.437999725341797 -98.53099822998047,-11 -98.53099822998047,-11 C-98.53099822998047,-11 -93.09400177001953,-11 -93.09400177001953,-11 C-93.09400177001953,-11 -87.65599822998047,-11 -87.65599822998047,-11z"/></g><g opacity="1" transform="matrix(1,0,0,1,0,0)"><path fill="rgb(255,0,0)" fill-opacity="1" d=" M-180.093994140625,-11 C-180.093994140625,-11 -180.093994140625,-16.437999725341797 -180.093994140625,-16.437999725341797 C-180.093994140625,-16.437999725341797 -180.093994140625,-21.875 -180.093994140625,-21.875 C-180.093994140625,-21.875 -180.093994140625,-27.312999725341797 -180.093994140625,-27.312999725341797 C-180.093994140625,-27.312999725341797 -180.093994140625,-32.75 -180.093994140625,-32.75 C-180.093994140625,-32.75 -180.093994140625,-38.1879997253418 -180.093994140625,-38.1879997253418 C-180.093994140625,-38.1879997253418 -180.093994140625,-43.625 -180.093994140625,-43.625 C-180.093994140625,-43.625 -174.656005859375,-43.625 -174.656005859375,-43.625 C-174.656005859375,-43.625 -169.218994140625,-43.625 -169.218994140625,-43.625 C-169.218994140625,-43.625 -163.781005859375,-43.625 -163.781005859375,-43.625 C-163.781005859375,-43.625 -158.343994140625,-43.625 -158.343994140625,-43.625 C-158.343994140625,-43.625 -158.343994140625,-38.1879997253418 -158.343994140625,-38.1879997253418 C-158.343994140625,-38.1879997253418 -158.343994140625,-32.75 -158.343994140625,-32.75 C-158.343994140625,-32.75 -152.906005859375,-32.75 -152.906005859375,-32.75 C-152.906005859375,-32.75 -147.468994140625,-32.75 -147.468994140625,-32.75 C-147.468994140625,-32.75 -147.468994140625,-27.312999725341797 -147.468994140625,-27.312999725341797 C-147.468994140625,-27.312999725341797 -147.468994140625,-21.875 -147.468994140625,-21.875 C-147.468994140625,-21.875 -142.031005859375,-21.875 -142.031005859375,-21.875 C-142.031005859375,-21.875 -136.593994140625,-21.875 -136.593994140625,-21.875 C-136.593994140625,-21.875 -136.593994140625,-27.312999725341797 -136.593994140625,-27.312999725341797 C-136.593994140625,-27.312999725341797 -136.593994140625,-32.75 -136.593994140625,-32.75 C-136.593994140625,-32.75 -142.031005859375,-32.75 -142.031005859375,-32.75 C-142.031005859375,-32.75 -147.468994140625,-32.75 -147.468994140625,-32.75 C-147.468994140625,-32.75 -147.468994140625,-38.1879997253418 -147.468994140625,-38.1879997253418 C-147.468994140625,-38.1879997253418 -147.468994140625,-43.625 -147.468994140625,-43.625 C-147.468994140625,-43.625 -142.031005859375,-43.625 -142.031005859375,-43.625 C-142.031005859375,-43.625 -142.031005859375,-49.0629997253418 -142.031005859375,-49.0629997253418 C-142.031005859375,-49.0629997253418 -142.031005859375,-54.5 -142.031005859375,-54.5 C-142.031005859375,-54.5 -147.468994140625,-54.5 -147.468994140625,-54.5 C-147.468994140625,-54.5 -152.906005859375,-54.5 -152.906005859375,-54.5 C-152.906005859375,-54.5 -158.343994140625,-54.5 -158.343994140625,-54.5 C-158.343994140625,-54.5 -163.781005859375,-54.5 -163.781005859375,-54.5 C-163.781005859375,-54.5 -169.218994140625,-54.5 -169.218994140625,-54.5 C-169.218994140625,-54.5 -174.656005859375,-54.5 -174.656005859375,-54.5 C-174.656005859375,-54.5 -180.093994140625,-54.5 -180.093994140625,-54.5 C-180.093994140625,-54.5 -180.093994140625,-59.9379997253418 -180.093994140625,-59.9379997253418 C-180.093994140625,-59.9379997253418 -180.093994140625,-65.375 -180.093994140625,-65.375 C-180.093994140625,-65.375 -174.656005859375,-65.375 -174.656005859375,-65.375 C-174.656005859375,-65.375 -169.218994140625,-65.375 -169.218994140625,-65.375 C-169.218994140625,-65.375 -163.781005859375,-65.375 -163.781005859375,-65.375 C-163.781005859375,-65.375 -158.343994140625,-65.375 -158.343994140625,-65.375 C-158.343994140625,-65.375 -152.906005859375,-65.375 -152.906005859375,-65.375 C-152.906005859375,-65.375 -147.468994140625,-65.375 -147.468994140625,-65.375 C-147.468994140625,-65.375 -142.031005859375,-65.375 -142.031005859375,-65.375 C-142.031005859375,-65.375 -142.031005859375,-59.9379997253418 -142.031005859375,-59.9379997253418 C-142.031005859375,-59.9379997253418 -142.031005859375,-54.5 -142.031005859375,-54.5 C-142.031005859375,-54.5 -136.593994140625,-54.5 -136.593994140625,-54.5 C-136.593994140625,-54.5 -131.156005859375,-54.5 -131.156005859375,-54.5 C-131.156005859375,-54.5 -131.156005859375,-59.9379997253418 -131.156005859375,-59.9379997253418 C-131.156005859375,-59.9379997253418 -131.156005859375,-65.375 -131.156005859375,-65.375 C-131.156005859375,-65.375 -136.593994140625,-65.375 -136.593994140625,-65.375 C-136.593994140625,-65.375 -142.031005859375,-65.375 -142.031005859375,-65.375 C-142.031005859375,-65.375 -142.031005859375,-70.81300354003906 -142.031005859375,-70.81300354003906 C-142.031005859375,-70.81300354003906 -142.031005859375,-76.25 -142.031005859375,-76.25 C-142.031005859375,-76.25 -147.468994140625,-76.25 -147.468994140625,-76.25 C-147.468994140625,-76.25 -152.906005859375,-76.25 -152.906005859375,-76.25 C-152.906005859375,-76.25 -158.343994140625,-76.25 -158.343994140625,-76.25 C-158.343994140625,-76.25 -163.781005859375,-76.25 -163.781005859375,-76.25 C-163.781005859375,-76.25 -169.218994140625,-76.25 -169.218994140625,-76.25 C-169.218994140625,-76.25 -174.656005859375,-76.25 -174.656005859375,-76.25 C-174.656005859375,-76.25 -180.093994140625,-76.25 -180.093994140625,-76.25 C-180.093994140625,-76.25 -185.531005859375,-76.25 -185.531005859375,-76.25 C-185.531005859375,-76.25 -190.968994140625,-76.25 -190.968994140625,-76.25 C-190.968994140625,-76.25 -190.968994140625,-70.81300354003906 -190.968994140625,-70.81300354003906 C-190.968994140625,-70.81300354003906 -190.968994140625,-65.375 -190.968994140625,-65.375 C-190.968994140625,-65.375 -190.968994140625,-59.9379997253418 -190.968994140625,-59.9379997253418 C-190.968994140625,-59.9379997253418 -190.968994140625,-54.5 -190.968994140625,-54.5 C-190.968994140625,-54.5 -190.968994140625,-49.0629997253418 -190.968994140625,-49.0629997253418 C-190.968994140625,-49.0629997253418 -190.968994140625,-43.625 -190.968994140625,-43.625 C-190.968994140625,-43.625 -190.968994140625,-38.1879997253418 -190.968994140625,-38.1879997253418 C-190.968994140625,-38.1879997253418 -190.968994140625,-32.75 -190.968994140625,-32.75 C-190.968994140625,-32.75 -190.968994140625,-27.312999725341797 -190.968994140625,-27.312999725341797 C-190.968994140625,-27.312999725341797 -190.968994140625,-21.875 -190.968994140625,-21.875 C-190.968994140625,-21.875 -190.968994140625,-16.437999725341797 -190.968994140625,-16.437999725341797 C-190.968994140625,-16.437999725341797 -190.968994140625,-11 -190.968994140625,-11 C-190.968994140625,-11 -185.531005859375,-11 -185.531005859375,-11 C-185.531005859375,-11 -180.093994140625,-11 -180.093994140625,-11z M-125.71900177001953,-11 C-125.71900177001953,-11 -125.71900177001953,-16.437999725341797 -125.71900177001953,-16.437999725341797 C-125.71900177001953,-16.437999725341797 -125.71900177001953,-21.875 -125.71900177001953,-21.875 C-125.71900177001953,-21.875 -131.156005859375,-21.875 -131.156005859375,-21.875 C-131.156005859375,-21.875 -136.593994140625,-21.875 -136.593994140625,-21.875 C-136.593994140625,-21.875 -136.593994140625,-16.437999725341797 -136.593994140625,-16.437999725341797 C-136.593994140625,-16.437999725341797 -136.593994140625,-11 -136.593994140625,-11 C-136.593994140625,-11 -131.156005859375,-11 -131.156005859375,-11 C-131.156005859375,-11 -125.71900177001953,-11 -125.71900177001953,-11z"/></g><g opacity="1" transform="matrix(1,0,0,1,0,0)"><path fill="rgb(255,0,0)" fill-opacity="1" d=" M-207.281005859375,-70.81300354003906 C-207.281005859375,-70.81300354003906 -207.281005859375,-76.25 -207.281005859375,-76.25 C-207.281005859375,-76.25 -212.718994140625,-76.25 -212.718994140625,-76.25 C-212.718994140625,-76.25 -218.156005859375,-76.25 -218.156005859375,-76.25 C-218.156005859375,-76.25 -223.593994140625,-76.25 -223.593994140625,-76.25 C-223.593994140625,-76.25 -229.031005859375,-76.25 -229.031005859375,-76.25 C-229.031005859375,-76.25 -234.468994140625,-76.25 -234.468994140625,-76.25 C-234.468994140625,-76.25 -234.468994140625,-70.81300354003906 -234.468994140625,-70.81300354003906 C-234.468994140625,-70.81300354003906 -234.468994140625,-65.375 -234.468994140625,-65.375 C-234.468994140625,-65.375 -229.031005859375,-65.375 -229.031005859375,-65.375 C-229.031005859375,-65.375 -223.593994140625,-65.375 -223.593994140625,-65.375 C-223.593994140625,-65.375 -218.156005859375,-65.375 -218.156005859375,-65.375 C-218.156005859375,-65.375 -212.718994140625,-65.375 -212.718994140625,-65.375 C-212.718994140625,-65.375 -207.281005859375,-65.375 -207.281005859375,-65.375 C-207.281005859375,-65.375 -207.281005859375,-70.81300354003906 -207.281005859375,-70.81300354003906z M-196.406005859375,-11 C-196.406005859375,-11 -196.406005859375,-16.437999725341797 -196.406005859375,-16.437999725341797 C-196.406005859375,-16.437999725341797 -196.406005859375,-21.875 -196.406005859375,-21.875 C-196.406005859375,-21.875 -196.406005859375,-27.312999725341797 -196.406005859375,-27.312999725341797 C-196.406005859375,-27.312999725341797 -196.406005859375,-32.75 -196.406005859375,-32.75 C-196.406005859375,-32.75 -196.406005859375,-38.1879997253418 -196.406005859375,-38.1879997253418 C-196.406005859375,-38.1879997253418 -196.406005859375,-43.625 -196.406005859375,-43.625 C-196.406005859375,-43.625 -196.406005859375,-49.0629997253418 -196.406005859375,-49.0629997253418 C-196.406005859375,-49.0629997253418 -196.406005859375,-54.5 -196.406005859375,-54.5 C-196.406005859375,-54.5 -196.406005859375,-59.9379997253418 -196.406005859375,-59.9379997253418 C-196.406005859375,-59.9379997253418 -196.406005859375,-65.375 -196.406005859375,-65.375 C-196.406005859375,-65.375 -201.843994140625,-65.375 -201.843994140625,-65.375 C-201.843994140625,-65.375 -207.281005859375,-65.375 -207.281005859375,-65.375 C-207.281005859375,-65.375 -207.281005859375,-59.9379997253418 -207.281005859375,-59.9379997253418 C-207.281005859375,-59.9379997253418 -207.281005859375,-54.5 -207.281005859375,-54.5 C-207.281005859375,-54.5 -212.718994140625,-54.5 -212.718994140625,-54.5 C-212.718994140625,-54.5 -218.156005859375,-54.5 -218.156005859375,-54.5 C-218.156005859375,-54.5 -223.593994140625,-54.5 -223.593994140625,-54.5 C-223.593994140625,-54.5 -229.031005859375,-54.5 -229.031005859375,-54.5 C-229.031005859375,-54.5 -234.468994140625,-54.5 -234.468994140625,-54.5 C-234.468994140625,-54.5 -234.468994140625,-59.9379997253418 -234.468994140625,-59.9379997253418 C-234.468994140625,-59.9379997253418 -234.468994140625,-65.375 -234.468994140625,-65.375 C-234.468994140625,-65.375 -239.906005859375,-65.375 -239.906005859375,-65.375 C-239.906005859375,-65.375 -245.343994140625,-65.375 -245.343994140625,-65.375 C-245.343994140625,-65.375 -245.343994140625,-59.9379997253418 -245.343994140625,-59.9379997253418 C-245.343994140625,-59.9379997253418 -245.343994140625,-54.5 -245.343994140625,-54.5 C-245.343994140625,-54.5 -245.343994140625,-49.0629997253418 -245.343994140625,-49.0629997253418 C-245.343994140625,-49.0629997253418 -245.343994140625,-43.625 -245.343994140625,-43.625 C-245.343994140625,-43.625 -245.343994140625,-38.1879997253418 -245.343994140625,-38.1879997253418 C-245.343994140625,-38.1879997253418 -245.343994140625,-32.75 -245.343994140625,-32.75 C-245.343994140625,-32.75 -245.343994140625,-27.312999725341797 -245.343994140625,-27.312999725341797 C-245.343994140625,-27.312999725341797 -245.343994140625,-21.875 -245.343994140625,-21.875 C-245.343994140625,-21.875 -245.343994140625,-16.437999725341797 -245.343994140625,-16.437999725341797 C-245.343994140625,-16.437999725341797 -245.343994140625,-11 -245.343994140625,-11 C-245.343994140625,-11 -239.906005859375,-11 -239.906005859375,-11 C-239.906005859375,-11 -234.468994140625,-11 -234.468994140625,-11 C-234.468994140625,-11 -234.468994140625,-16.437999725341797 -234.468994140625,-16.437999725341797 C-234.468994140625,-16.437999725341797 -234.468994140625,-21.875 -234.468994140625,-21.875 C-234.468994140625,-21.875 -234.468994140625,-27.312999725341797 -234.468994140625,-27.312999725341797 C-234.468994140625,-27.312999725341797 -234.468994140625,-32.75 -234.468994140625,-32.75 C-234.468994140625,-32.75 -234.468994140625,-38.1879997253418 -234.468994140625,-38.1879997253418 C-234.468994140625,-38.1879997253418 -234.468994140625,-43.625 -234.468994140625,-43.625 C-234.468994140625,-43.625 -229.031005859375,-43.625 -229.031005859375,-43.625 C-229.031005859375,-43.625 -223.593994140625,-43.625 -223.593994140625,-43.625 C-223.593994140625,-43.625 -218.156005859375,-43.625 -218.156005859375,-43.625 C-218.156005859375,-43.625 -212.718994140625,-43.625 -212.718994140625,-43.625 C-212.718994140625,-43.625 -207.281005859375,-43.625 -207.281005859375,-43.625 C-207.281005859375,-43.625 -207.281005859375,-38.1879997253418 -207.281005859375,-38.1879997253418 C-207.281005859375,-38.1879997253418 -207.281005859375,-32.75 -207.281005859375,-32.75 C-207.281005859375,-32.75 -207.281005859375,-27.312999725341797 -207.281005859375,-27.312999725341797 C-207.281005859375,-27.312999725341797 -207.281005859375,-21.875 -207.281005859375,-21.875 C-207.281005859375,-21.875 -207.281005859375,-16.437999725341797 -207.281005859375,-16.437999725341797 C-207.281005859375,-16.437999725341797 -207.281005859375,-11 -207.281005859375,-11 C-207.281005859375,-11 -201.843994140625,-11 -201.843994140625,-11 C-201.843994140625,-11 -196.406005859375,-11 -196.406005859375,-11z"/></g><g opacity="1" transform="matrix(1,0,0,1,0,0)"><path fill="rgb(255,0,0)" fill-opacity="1" d=" M-272.531005859375,-11 C-272.531005859375,-11 -272.531005859375,-16.437999725341797 -272.531005859375,-16.437999725341797 C-272.531005859375,-16.437999725341797 -272.531005859375,-21.875 -272.531005859375,-21.875 C-272.531005859375,-21.875 -272.531005859375,-27.312999725341797 -272.531005859375,-27.312999725341797 C-272.531005859375,-27.312999725341797 -272.531005859375,-32.75 -272.531005859375,-32.75 C-272.531005859375,-32.75 -272.531005859375,-38.1879997253418 -272.531005859375,-38.1879997253418 C-272.531005859375,-38.1879997253418 -272.531005859375,-43.625 -272.531005859375,-43.625 C-272.531005859375,-43.625 -272.531005859375,-49.0629997253418 -272.531005859375,-49.0629997253418 C-272.531005859375,-49.0629997253418 -272.531005859375,-54.5 -272.531005859375,-54.5 C-272.531005859375,-54.5 -272.531005859375,-59.9379997253418 -272.531005859375,-59.9379997253418 C-272.531005859375,-59.9379997253418 -272.531005859375,-65.375 -272.531005859375,-65.375 C-272.531005859375,-65.375 -267.093994140625,-65.375 -267.093994140625,-65.375 C-267.093994140625,-65.375 -261.656005859375,-65.375 -261.656005859375,-65.375 C-261.656005859375,-65.375 -256.218994140625,-65.375 -256.218994140625,-65.375 C-256.218994140625,-65.375 -250.781005859375,-65.375 -250.781005859375,-65.375 C-250.781005859375,-65.375 -250.781005859375,-70.81300354003906 -250.781005859375,-70.81300354003906 C-250.781005859375,-70.81300354003906 -250.781005859375,-76.25 -250.781005859375,-76.25 C-250.781005859375,-76.25 -256.218994140625,-76.25 -256.218994140625,-76.25 C-256.218994140625,-76.25 -261.656005859375,-76.25 -261.656005859375,-76.25 C-261.656005859375,-76.25 -267.093994140625,-76.25 -267.093994140625,-76.25 C-267.093994140625,-76.25 -272.531005859375,-76.25 -272.531005859375,-76.25 C-272.531005859375,-76.25 -277.968994140625,-76.25 -277.968994140625,-76.25 C-277.968994140625,-76.25 -283.406005859375,-76.25 -283.406005859375,-76.25 C-283.406005859375,-76.25 -288.843994140625,-76.25 -288.843994140625,-76.25 C-288.843994140625,-76.25 -294.281005859375,-76.25 -294.281005859375,-76.25 C-294.281005859375,-76.25 -299.718994140625,-76.25 -299.718994140625,-76.25 C-299.718994140625,-76.25 -305.156005859375,-76.25 -305.156005859375,-76.25 C-305.156005859375,-76.25 -305.156005859375,-70.81300354003906 -305.156005859375,-70.81300354003906 C-305.156005859375,-70.81300354003906 -305.156005859375,-65.375 -305.156005859375,-65.375 C-305.156005859375,-65.375 -299.718994140625,-65.375 -299.718994140625,-65.375 C-299.718994140625,-65.375 -294.281005859375,-65.375 -294.281005859375,-65.375 C-294.281005859375,-65.375 -288.843994140625,-65.375 -288.843994140625,-65.375 C-288.843994140625,-65.375 -283.406005859375,-65.375 -283.406005859375,-65.375 C-283.406005859375,-65.375 -283.406005859375,-59.9379997253418 -283.406005859375,-59.9379997253418 C-283.406005859375,-59.9379997253418 -283.406005859375,-54.5 -283.406005859375,-54.5 C-283.406005859375,-54.5 -283.406005859375,-49.0629997253418 -283.406005859375,-49.0629997253418 C-283.406005859375,-49.0629997253418 -283.406005859375,-43.625 -283.406005859375,-43.625 C-283.406005859375,-43.625 -283.406005859375,-38.1879997253418 -283.406005859375,-38.1879997253418 C-283.406005859375,-38.1879997253418 -283.406005859375,-32.75 -283.406005859375,-32.75 C-283.406005859375,-32.75 -283.406005859375,-27.312999725341797 -283.406005859375,-27.312999725341797 C-283.406005859375,-27.312999725341797 -283.406005859375,-21.875 -283.406005859375,-21.875 C-283.406005859375,-21.875 -283.406005859375,-16.437999725341797 -283.406005859375,-16.437999725341797 C-283.406005859375,-16.437999725341797 -283.406005859375,-11 -283.406005859375,-11 C-283.406005859375,-11 -277.968994140625,-11 -277.968994140625,-11 C-277.968994140625,-11 -272.531005859375,-11 -272.531005859375,-11z"/></g><g opacity="1" transform="matrix(1,0,0,1,0,0)"><path fill="rgb(255,0,0)" fill-opacity="1" d=" M-310.593994140625,-65.375 C-310.593994140625,-65.375 -310.593994140625,-70.81300354003906 -310.593994140625,-70.81300354003906 C-310.593994140625,-70.81300354003906 -310.593994140625,-76.25 -310.593994140625,-76.25 C-310.593994140625,-76.25 -316.031005859375,-76.25 -316.031005859375,-76.25 C-316.031005859375,-76.25 -321.468994140625,-76.25 -321.468994140625,-76.25 C-321.468994140625,-76.25 -326.906005859375,-76.25 -326.906005859375,-76.25 C-326.906005859375,-76.25 -332.343994140625,-76.25 -332.343994140625,-76.25 C-332.343994140625,-76.25 -337.781005859375,-76.25 -337.781005859375,-76.25 C-337.781005859375,-76.25 -343.218994140625,-76.25 -343.218994140625,-76.25 C-343.218994140625,-76.25 -348.656005859375,-76.25 -348.656005859375,-76.25 C-348.656005859375,-76.25 -348.656005859375,-70.81300354003906 -348.656005859375,-70.81300354003906 C-348.656005859375,-70.81300354003906 -348.656005859375,-65.375 -348.656005859375,-65.375 C-348.656005859375,-65.375 -343.218994140625,-65.375 -343.218994140625,-65.375 C-343.218994140625,-65.375 -337.781005859375,-65.375 -337.781005859375,-65.375 C-337.781005859375,-65.375 -332.343994140625,-65.375 -332.343994140625,-65.375 C-332.343994140625,-65.375 -326.906005859375,-65.375 -326.906005859375,-65.375 C-326.906005859375,-65.375 -321.468994140625,-65.375 -321.468994140625,-65.375 C-321.468994140625,-65.375 -316.031005859375,-65.375 -316.031005859375,-65.375 C-316.031005859375,-65.375 -310.593994140625,-65.375 -310.593994140625,-65.375z M-348.656005859375,-59.9379997253418 C-348.656005859375,-59.9379997253418 -348.656005859375,-65.375 -348.656005859375,-65.375 C-348.656005859375,-65.375 -354.093994140625,-65.375 -354.093994140625,-65.375 C-354.093994140625,-65.375 -359.531005859375,-65.375 -359.531005859375,-65.375 C-359.531005859375,-65.375 -359.531005859375,-59.9379997253418 -359.531005859375,-59.9379997253418 C-359.531005859375,-59.9379997253418 -359.531005859375,-54.5 -359.531005859375,-54.5 C-359.531005859375,-54.5 -354.093994140625,-54.5 -354.093994140625,-54.5 C-354.093994140625,-54.5 -348.656005859375,-54.5 -348.656005859375,-54.5 C-348.656005859375,-54.5 -348.656005859375,-59.9379997253418 -348.656005859375,-59.9379997253418z M-321.468994140625,-49.0629997253418 C-321.468994140625,-49.0629997253418 -321.468994140625,-54.5 -321.468994140625,-54.5 C-321.468994140625,-54.5 -326.906005859375,-54.5 -326.906005859375,-54.5 C-326.906005859375,-54.5 -332.343994140625,-54.5 -332.343994140625,-54.5 C-332.343994140625,-54.5 -337.781005859375,-54.5 -337.781005859375,-54.5 C-337.781005859375,-54.5 -343.218994140625,-54.5 -343.218994140625,-54.5 C-343.218994140625,-54.5 -348.656005859375,-54.5 -348.656005859375,-54.5 C-348.656005859375,-54.5 -348.656005859375,-49.0629997253418 -348.656005859375,-49.0629997253418 C-348.656005859375,-49.0629997253418 -348.656005859375,-43.625 -348.656005859375,-43.625 C-348.656005859375,-43.625 -343.218994140625,-43.625 -343.218994140625,-43.625 C-343.218994140625,-43.625 -337.781005859375,-43.625 -337.781005859375,-43.625 C-337.781005859375,-43.625 -332.343994140625,-43.625 -332.343994140625,-43.625 C-332.343994140625,-43.625 -326.906005859375,-43.625 -326.906005859375,-43.625 C-326.906005859375,-43.625 -321.468994140625,-43.625 -321.468994140625,-43.625 C-321.468994140625,-43.625 -321.468994140625,-49.0629997253418 -321.468994140625,-49.0629997253418z M-316.031005859375,-21.875 C-316.031005859375,-21.875 -310.593994140625,-21.875 -310.593994140625,-21.875 C-310.593994140625,-21.875 -310.593994140625,-27.312999725341797 -310.593994140625,-27.312999725341797 C-310.593994140625,-27.312999725341797 -310.593994140625,-32.75 -310.593994140625,-32.75 C-310.593994140625,-32.75 -310.593994140625,-38.1879997253418 -310.593994140625,-38.1879997253418 C-310.593994140625,-38.1879997253418 -310.593994140625,-43.625 -310.593994140625,-43.625 C-310.593994140625,-43.625 -316.031005859375,-43.625 -316.031005859375,-43.625 C-316.031005859375,-43.625 -321.468994140625,-43.625 -321.468994140625,-43.625 C-321.468994140625,-43.625 -321.468994140625,-38.1879997253418 -321.468994140625,-38.1879997253418 C-321.468994140625,-38.1879997253418 -321.468994140625,-32.75 -321.468994140625,-32.75 C-321.468994140625,-32.75 -321.468994140625,-27.312999725341797 -321.468994140625,-27.312999725341797 C-321.468994140625,-27.312999725341797 -321.468994140625,-21.875 -321.468994140625,-21.875 C-321.468994140625,-21.875 -316.031005859375,-21.875 -316.031005859375,-21.875z M-321.468994140625,-11 C-321.468994140625,-11 -321.468994140625,-16.437999725341797 -321.468994140625,-16.437999725341797 C-321.468994140625,-16.437999725341797 -321.468994140625,-21.875 -321.468994140625,-21.875 C-321.468994140625,-21.875 -326.906005859375,-21.875 -326.906005859375,-21.875 C-326.906005859375,-21.875 -332.343994140625,-21.875 -332.343994140625,-21.875 C-332.343994140625,-21.875 -337.781005859375,-21.875 -337.781005859375,-21.875 C-337.781005859375,-21.875 -343.218994140625,-21.875 -343.218994140625,-21.875 C-343.218994140625,-21.875 -348.656005859375,-21.875 -348.656005859375,-21.875 C-348.656005859375,-21.875 -354.093994140625,-21.875 -354.093994140625,-21.875 C-354.093994140625,-21.875 -359.531005859375,-21.875 -359.531005859375,-21.875 C-359.531005859375,-21.875 -359.531005859375,-16.437999725341797 -359.531005859375,-16.437999725341797 C-359.531005859375,-16.437999725341797 -359.531005859375,-11 -359.531005859375,-11 C-359.531005859375,-11 -354.093994140625,-11 -354.093994140625,-11 C-354.093994140625,-11 -348.656005859375,-11 -348.656005859375,-11 C-348.656005859375,-11 -343.218994140625,-11 -343.218994140625,-11 C-343.218994140625,-11 -337.781005859375,-11 -337.781005859375,-11 C-337.781005859375,-11 -332.343994140625,-11 -332.343994140625,-11 C-332.343994140625,-11 -326.906005859375,-11 -326.906005859375,-11 C-326.906005859375,-11 -321.468994140625,-11 -321.468994140625,-11z"/></g></g></g></svg>
